<svg width="32" height="32" viewBox="0 0 32 32" fill="none" xmlns="http://www.w3.org/2000/svg">
<path d="M15.9989 29.9978C25.3333 29.9978 29.9978 23.7303 29.9978 15.9989C29.9978 8.26751 25.3333 2 15.9989 2C6.66443 2 2 8.26751 2 15.9989C2 23.7303 6.66443 29.9978 15.9989 29.9978Z" fill="url(#paint0_radial_1374_351)"/>
<path d="M15.9989 29.9978C25.3333 29.9978 29.9978 23.7303 29.9978 15.9989C29.9978 8.26751 25.3333 2 15.9989 2C6.66443 2 2 8.26751 2 15.9989C2 23.7303 6.66443 29.9978 15.9989 29.9978Z" fill="url(#paint1_radial_1374_351)"/>
<path d="M15.9989 29.9978C25.3333 29.9978 29.9978 23.7303 29.9978 15.9989C29.9978 8.26751 25.3333 2 15.9989 2C6.66443 2 2 8.26751 2 15.9989C2 23.7303 6.66443 29.9978 15.9989 29.9978Z" fill="url(#paint2_radial_1374_351)" fill-opacity="0.6"/>
<path d="M15.9989 29.9978C25.3333 29.9978 29.9978 23.7303 29.9978 15.9989C29.9978 8.26751 25.3333 2 15.9989 2C6.66443 2 2 8.26751 2 15.9989C2 23.7303 6.66443 29.9978 15.9989 29.9978Z" fill="url(#paint3_radial_1374_351)"/>
<path d="M15.9989 29.9978C25.3333 29.9978 29.9978 23.7303 29.9978 15.9989C29.9978 8.26751 25.3333 2 15.9989 2C6.66443 2 2 8.26751 2 15.9989C2 23.7303 6.66443 29.9978 15.9989 29.9978Z" fill="url(#paint4_radial_1374_351)"/>
<path d="M15.9989 29.9978C25.3333 29.9978 29.9978 23.7303 29.9978 15.9989C29.9978 8.26751 25.3333 2 15.9989 2C6.66443 2 2 8.26751 2 15.9989C2 23.7303 6.66443 29.9978 15.9989 29.9978Z" fill="url(#paint5_radial_1374_351)"/>
<path d="M15.9989 29.9978C25.3333 29.9978 29.9978 23.7303 29.9978 15.9989C29.9978 8.26751 25.3333 2 15.9989 2C6.66443 2 2 8.26751 2 15.9989C2 23.7303 6.66443 29.9978 15.9989 29.9978Z" fill="url(#paint6_radial_1374_351)"/>
<path d="M15.9989 29.9978C25.3333 29.9978 29.9978 23.7303 29.9978 15.9989C29.9978 8.26751 25.3333 2 15.9989 2C6.66443 2 2 8.26751 2 15.9989C2 23.7303 6.66443 29.9978 15.9989 29.9978Z" fill="url(#paint7_radial_1374_351)"/>
<path d="M15.9989 29.9978C25.3333 29.9978 29.9978 23.7303 29.9978 15.9989C29.9978 8.26751 25.3333 2 15.9989 2C6.66443 2 2 8.26751 2 15.9989C2 23.7303 6.66443 29.9978 15.9989 29.9978Z" fill="url(#paint8_radial_1374_351)"/>
<path d="M15.9989 29.9978C25.3333 29.9978 29.9978 23.7303 29.9978 15.9989C29.9978 8.26751 25.3333 2 15.9989 2C6.66443 2 2 8.26751 2 15.9989C2 23.7303 6.66443 29.9978 15.9989 29.9978Z" fill="url(#paint9_radial_1374_351)"/>
<path d="M15.9989 29.9978C25.3333 29.9978 29.9978 23.7303 29.9978 15.9989C29.9978 8.26751 25.3333 2 15.9989 2C6.66443 2 2 8.26751 2 15.9989C2 23.7303 6.66443 29.9978 15.9989 29.9978Z" fill="url(#paint10_radial_1374_351)"/>
<path d="M15.9989 29.9978C25.3333 29.9978 29.9978 23.7303 29.9978 15.9989C29.9978 8.26751 25.3333 2 15.9989 2C6.66443 2 2 8.26751 2 15.9989C2 23.7303 6.66443 29.9978 15.9989 29.9978Z" fill="url(#paint11_radial_1374_351)"/>
<path d="M15.9989 29.9978C25.3333 29.9978 29.9978 23.7303 29.9978 15.9989C29.9978 8.26751 25.3333 2 15.9989 2C6.66443 2 2 8.26751 2 15.9989C2 23.7303 6.66443 29.9978 15.9989 29.9978Z" fill="url(#paint12_radial_1374_351)"/>
<path d="M15.9989 29.9978C25.3333 29.9978 29.9978 23.7303 29.9978 15.9989C29.9978 8.26751 25.3333 2 15.9989 2C6.66443 2 2 8.26751 2 15.9989C2 23.7303 6.66443 29.9978 15.9989 29.9978Z" fill="url(#paint13_radial_1374_351)"/>
<path d="M15.9989 29.9978C25.3333 29.9978 29.9978 23.7303 29.9978 15.9989C29.9978 8.26751 25.3333 2 15.9989 2C6.66443 2 2 8.26751 2 15.9989C2 23.7303 6.66443 29.9978 15.9989 29.9978Z" fill="url(#paint14_radial_1374_351)"/>
<path d="M15.9989 29.9978C25.3333 29.9978 29.9978 23.7303 29.9978 15.9989C29.9978 8.26751 25.3333 2 15.9989 2C6.66443 2 2 8.26751 2 15.9989C2 23.7303 6.66443 29.9978 15.9989 29.9978Z" fill="url(#paint15_radial_1374_351)"/>
<path d="M10.5 21C12.9853 21 15 18.9853 15 16.5C15 14.0147 12.9853 12 10.5 12C8.01472 12 6 14.0147 6 16.5C6 18.9853 8.01472 21 10.5 21Z" fill="white"/>
<path d="M21.5 21C23.9853 21 26 18.9853 26 16.5C26 14.0147 23.9853 12 21.5 12C19.0147 12 17 14.0147 17 16.5C17 18.9853 19.0147 21 21.5 21Z" fill="white"/>
<path d="M12 19C13.1046 19 14 18.1046 14 17C14 15.8954 13.1046 15 12 15C10.8954 15 10 15.8954 10 17C10 18.1046 10.8954 19 12 19Z" fill="url(#paint16_linear_1374_351)"/>
<path d="M20 19C21.1046 19 22 18.1046 22 17C22 15.8954 21.1046 15 20 15C18.8954 15 18 15.8954 18 17C18 18.1046 18.8954 19 20 19Z" fill="url(#paint17_linear_1374_351)"/>
<path fill-rule="evenodd" clip-rule="evenodd" d="M16 24C13.9954 24 13.0659 25.1042 12.8944 25.4472C12.6474 25.9412 12.0468 26.1414 11.5528 25.8944C11.0588 25.6474 10.8586 25.0468 11.1056 24.5528C11.6007 23.5625 13.2046 22 16 22C18.7954 22 20.3993 23.5625 20.8944 24.5528C21.1414 25.0468 20.9412 25.6474 20.4472 25.8944C19.9532 26.1414 19.3526 25.9412 19.1056 25.4472C18.9341 25.1042 18.0046 24 16 24Z" fill="url(#paint18_radial_1374_351)"/>
<path fill-rule="evenodd" clip-rule="evenodd" d="M16 24C13.9954 24 13.0659 25.1042 12.8944 25.4472C12.6474 25.9412 12.0468 26.1414 11.5528 25.8944C11.0588 25.6474 10.8586 25.0468 11.1056 24.5528C11.6007 23.5625 13.2046 22 16 22C18.7954 22 20.3993 23.5625 20.8944 24.5528C21.1414 25.0468 20.9412 25.6474 20.4472 25.8944C19.9532 26.1414 19.3526 25.9412 19.1056 25.4472C18.9341 25.1042 18.0046 24 16 24Z" fill="url(#paint19_radial_1374_351)"/>
<path fill-rule="evenodd" clip-rule="evenodd" d="M16 24C13.9954 24 13.0659 25.1042 12.8944 25.4472C12.6474 25.9412 12.0468 26.1414 11.5528 25.8944C11.0588 25.6474 10.8586 25.0468 11.1056 24.5528C11.6007 23.5625 13.2046 22 16 22C18.7954 22 20.3993 23.5625 20.8944 24.5528C21.1414 25.0468 20.9412 25.6474 20.4472 25.8944C19.9532 26.1414 19.3526 25.9412 19.1056 25.4472C18.9341 25.1042 18.0046 24 16 24Z" fill="url(#paint20_radial_1374_351)"/>
<path fill-rule="evenodd" clip-rule="evenodd" d="M10.9774 10.0674L10.9767 10.0646L10.9803 10.0774C10.9841 10.0908 10.991 10.114 11.0013 10.1456C11.0221 10.2088 11.0562 10.3047 11.1068 10.4222C11.2088 10.6589 11.3728 10.9732 11.6193 11.2845C12.099 11.8905 12.8961 12.5 14.25 12.5C14.6642 12.5 15 12.8358 15 13.25C15 13.6642 14.6642 14 14.25 14C12.3539 14 11.151 13.1095 10.4432 12.2155C10.0959 11.7768 9.86935 11.3411 9.7291 11.0153C9.6586 10.8516 9.6088 10.7131 9.57579 10.6123C9.55927 10.5618 9.54687 10.5205 9.53814 10.49C9.53378 10.4747 9.53032 10.4621 9.52771 10.4524L9.52444 10.4399L9.52326 10.4354L9.52279 10.4335L9.52239 10.4319C9.42193 10.0301 9.66625 9.62285 10.0681 9.52239C10.4687 9.42223 10.8747 9.66483 10.9767 10.0646L10.977 10.0657L10.9774 10.0674Z" fill="url(#paint21_radial_1374_351)"/>
<path fill-rule="evenodd" clip-rule="evenodd" d="M10.9774 10.0674L10.9767 10.0646L10.9803 10.0774C10.9841 10.0908 10.991 10.114 11.0013 10.1456C11.0221 10.2088 11.0562 10.3047 11.1068 10.4222C11.2088 10.6589 11.3728 10.9732 11.6193 11.2845C12.099 11.8905 12.8961 12.5 14.25 12.5C14.6642 12.5 15 12.8358 15 13.25C15 13.6642 14.6642 14 14.25 14C12.3539 14 11.151 13.1095 10.4432 12.2155C10.0959 11.7768 9.86935 11.3411 9.7291 11.0153C9.6586 10.8516 9.6088 10.7131 9.57579 10.6123C9.55927 10.5618 9.54687 10.5205 9.53814 10.49C9.53378 10.4747 9.53032 10.4621 9.52771 10.4524L9.52444 10.4399L9.52326 10.4354L9.52279 10.4335L9.52239 10.4319C9.42193 10.0301 9.66625 9.62285 10.0681 9.52239C10.4687 9.42223 10.8747 9.66483 10.9767 10.0646L10.977 10.0657L10.9774 10.0674Z" fill="url(#paint22_radial_1374_351)"/>
<path fill-rule="evenodd" clip-rule="evenodd" d="M10.9774 10.0674L10.9767 10.0646L10.9803 10.0774C10.9841 10.0908 10.991 10.114 11.0013 10.1456C11.0221 10.2088 11.0562 10.3047 11.1068 10.4222C11.2088 10.6589 11.3728 10.9732 11.6193 11.2845C12.099 11.8905 12.8961 12.5 14.25 12.5C14.6642 12.5 15 12.8358 15 13.25C15 13.6642 14.6642 14 14.25 14C12.3539 14 11.151 13.1095 10.4432 12.2155C10.0959 11.7768 9.86935 11.3411 9.7291 11.0153C9.6586 10.8516 9.6088 10.7131 9.57579 10.6123C9.55927 10.5618 9.54687 10.5205 9.53814 10.49C9.53378 10.4747 9.53032 10.4621 9.52771 10.4524L9.52444 10.4399L9.52326 10.4354L9.52279 10.4335L9.52239 10.4319C9.42193 10.0301 9.66625 9.62285 10.0681 9.52239C10.4687 9.42223 10.8747 9.66483 10.9767 10.0646L10.977 10.0657L10.9774 10.0674Z" fill="url(#paint23_radial_1374_351)"/>
<path fill-rule="evenodd" clip-rule="evenodd" d="M21.0226 10.0674L21.0233 10.0646L21.0197 10.0774C21.0159 10.0908 21.009 10.114 20.9987 10.1456C20.9779 10.2088 20.9438 10.3047 20.8932 10.4222C20.7912 10.6589 20.6272 10.9732 20.3807 11.2845C19.901 11.8905 19.1039 12.5 17.75 12.5C17.3358 12.5 17 12.8358 17 13.25C17 13.6642 17.3358 14 17.75 14C19.6461 14 20.849 13.1095 21.5568 12.2155C21.9041 11.7768 22.1306 11.3411 22.2709 11.0153C22.3414 10.8516 22.3912 10.7131 22.4242 10.6123C22.4407 10.5618 22.4531 10.5205 22.4619 10.49C22.4662 10.4747 22.4697 10.4621 22.4723 10.4524L22.4756 10.4399L22.4767 10.4354L22.4772 10.4335L22.4776 10.4319C22.5781 10.0301 22.3338 9.62285 21.9319 9.52239C21.5313 9.42223 21.1253 9.66483 21.0233 10.0646L21.023 10.0657L21.0226 10.0674Z" fill="url(#paint24_linear_1374_351)"/>
<path fill-rule="evenodd" clip-rule="evenodd" d="M21.0226 10.0674L21.0233 10.0646L21.0197 10.0774C21.0159 10.0908 21.009 10.114 20.9987 10.1456C20.9779 10.2088 20.9438 10.3047 20.8932 10.4222C20.7912 10.6589 20.6272 10.9732 20.3807 11.2845C19.901 11.8905 19.1039 12.5 17.75 12.5C17.3358 12.5 17 12.8358 17 13.25C17 13.6642 17.3358 14 17.75 14C19.6461 14 20.849 13.1095 21.5568 12.2155C21.9041 11.7768 22.1306 11.3411 22.2709 11.0153C22.3414 10.8516 22.3912 10.7131 22.4242 10.6123C22.4407 10.5618 22.4531 10.5205 22.4619 10.49C22.4662 10.4747 22.4697 10.4621 22.4723 10.4524L22.4756 10.4399L22.4767 10.4354L22.4772 10.4335L22.4776 10.4319C22.5781 10.0301 22.3338 9.62285 21.9319 9.52239C21.5313 9.42223 21.1253 9.66483 21.0233 10.0646L21.023 10.0657L21.0226 10.0674Z" fill="url(#paint25_radial_1374_351)"/>
<path fill-rule="evenodd" clip-rule="evenodd" d="M21.0226 10.0674L21.0233 10.0646L21.0197 10.0774C21.0159 10.0908 21.009 10.114 20.9987 10.1456C20.9779 10.2088 20.9438 10.3047 20.8932 10.4222C20.7912 10.6589 20.6272 10.9732 20.3807 11.2845C19.901 11.8905 19.1039 12.5 17.75 12.5C17.3358 12.5 17 12.8358 17 13.25C17 13.6642 17.3358 14 17.75 14C19.6461 14 20.849 13.1095 21.5568 12.2155C21.9041 11.7768 22.1306 11.3411 22.2709 11.0153C22.3414 10.8516 22.3912 10.7131 22.4242 10.6123C22.4407 10.5618 22.4531 10.5205 22.4619 10.49C22.4662 10.4747 22.4697 10.4621 22.4723 10.4524L22.4756 10.4399L22.4767 10.4354L22.4772 10.4335L22.4776 10.4319C22.5781 10.0301 22.3338 9.62285 21.9319 9.52239C21.5313 9.42223 21.1253 9.66483 21.0233 10.0646L21.023 10.0657L21.0226 10.0674Z" fill="url(#paint26_radial_1374_351)"/>
<path fill-rule="evenodd" clip-rule="evenodd" d="M21.0226 10.0674L21.0233 10.0646L21.0197 10.0774C21.0159 10.0908 21.009 10.114 20.9987 10.1456C20.9779 10.2088 20.9438 10.3047 20.8932 10.4222C20.7912 10.6589 20.6272 10.9732 20.3807 11.2845C19.901 11.8905 19.1039 12.5 17.75 12.5C17.3358 12.5 17 12.8358 17 13.25C17 13.6642 17.3358 14 17.75 14C19.6461 14 20.849 13.1095 21.5568 12.2155C21.9041 11.7768 22.1306 11.3411 22.2709 11.0153C22.3414 10.8516 22.3912 10.7131 22.4242 10.6123C22.4407 10.5618 22.4531 10.5205 22.4619 10.49C22.4662 10.4747 22.4697 10.4621 22.4723 10.4524L22.4756 10.4399L22.4767 10.4354L22.4772 10.4335L22.4776 10.4319C22.5781 10.0301 22.3338 9.62285 21.9319 9.52239C21.5313 9.42223 21.1253 9.66483 21.0233 10.0646L21.023 10.0657L21.0226 10.0674Z" fill="url(#paint27_radial_1374_351)" fill-opacity="0.6"/>
<defs>
<radialGradient id="paint0_radial_1374_351" cx="0" cy="0" r="1" gradientUnits="userSpaceOnUse" gradientTransform="translate(25.5 9) rotate(131.878) scale(38.9487)">
<stop stop-color="#FFF478"/>
<stop offset="0.474827" stop-color="#FFB02E"/>
<stop offset="1" stop-color="#F70A8D"/>
</radialGradient>
<radialGradient id="paint1_radial_1374_351" cx="0" cy="0" r="1" gradientUnits="userSpaceOnUse" gradientTransform="translate(16 12.5) rotate(101.31) scale(17.8466 22.8581)">
<stop offset="0.787821" stop-color="#F59639" stop-opacity="0"/>
<stop offset="0.972509" stop-color="#FF7DCE"/>
</radialGradient>
<radialGradient id="paint2_radial_1374_351" cx="0" cy="0" r="1" gradientUnits="userSpaceOnUse" gradientTransform="translate(18 14) rotate(135) scale(41.0122)">
<stop offset="0.314853" stop-opacity="0"/>
<stop offset="1"/>
</radialGradient>
<radialGradient id="paint3_radial_1374_351" cx="0" cy="0" r="1" gradientUnits="userSpaceOnUse" gradientTransform="translate(16 17) rotate(77.692) scale(28.1469)">
<stop offset="0.507903" stop-color="#7D6133" stop-opacity="0"/>
<stop offset="1" stop-color="#715B32"/>
</radialGradient>
<radialGradient id="paint4_radial_1374_351" cx="0" cy="0" r="1" gradientUnits="userSpaceOnUse" gradientTransform="translate(16.5 16.5) rotate(55.7131) scale(13.3135 9.65032)">
<stop stop-color="#FFB849"/>
<stop offset="1" stop-color="#FFB847" stop-opacity="0"/>
</radialGradient>
<radialGradient id="paint5_radial_1374_351" cx="0" cy="0" r="1" gradientUnits="userSpaceOnUse" gradientTransform="translate(20.5 18) rotate(9.86581) scale(11.6726)">
<stop stop-color="#FFA64B"/>
<stop offset="0.900412" stop-color="#FFAE46" stop-opacity="0"/>
</radialGradient>
<radialGradient id="paint6_radial_1374_351" cx="0" cy="0" r="1" gradientUnits="userSpaceOnUse" gradientTransform="translate(17.5 15) rotate(43.9708) scale(59.0529)">
<stop offset="0.185425" stop-opacity="0"/>
<stop offset="1" stop-opacity="0.4"/>
</radialGradient>
<radialGradient id="paint7_radial_1374_351" cx="0" cy="0" r="1" gradientUnits="userSpaceOnUse" gradientTransform="translate(9.8882 17.2392) rotate(-171.807) scale(4.99538)">
<stop offset="0.192606" stop-color="#392108"/>
<stop offset="1" stop-color="#C87928" stop-opacity="0"/>
</radialGradient>
<radialGradient id="paint8_radial_1374_351" cx="0" cy="0" r="1" gradientUnits="userSpaceOnUse" gradientTransform="translate(10.5086 17.2844) rotate(57.4143) scale(4.35805)">
<stop offset="0.359039" stop-color="#C84E28"/>
<stop offset="1" stop-color="#C84528" stop-opacity="0"/>
</radialGradient>
<radialGradient id="paint9_radial_1374_351" cx="0" cy="0" r="1" gradientUnits="userSpaceOnUse" gradientTransform="translate(20.1998 16.4895) rotate(139.862) scale(4.69256)">
<stop stop-color="#392108"/>
<stop offset="1" stop-color="#C87928" stop-opacity="0"/>
</radialGradient>
<radialGradient id="paint10_radial_1374_351" cx="0" cy="0" r="1" gradientUnits="userSpaceOnUse" gradientTransform="translate(21.3733 16.9437) rotate(146.107) scale(4.66736)">
<stop offset="0.359039" stop-color="#C84E28"/>
<stop offset="1" stop-color="#C84528" stop-opacity="0"/>
</radialGradient>
<radialGradient id="paint11_radial_1374_351" cx="0" cy="0" r="1" gradientUnits="userSpaceOnUse" gradientTransform="translate(9.33669 14.6204) rotate(-39.9364) scale(4.52903)">
<stop stop-color="#D59A13"/>
<stop offset="1" stop-color="#D59A13" stop-opacity="0"/>
</radialGradient>
<radialGradient id="paint12_radial_1374_351" cx="0" cy="0" r="1" gradientUnits="userSpaceOnUse" gradientTransform="translate(21.6453 13.4633) rotate(166.723) scale(2.50818)">
<stop stop-color="#D59A13"/>
<stop offset="1" stop-color="#D59A13" stop-opacity="0"/>
</radialGradient>
<radialGradient id="paint13_radial_1374_351" cx="0" cy="0" r="1" gradientUnits="userSpaceOnUse" gradientTransform="translate(11.1523 13.27) rotate(-46.7899) scale(2.48876 5.22228)">
<stop stop-color="#D59A13"/>
<stop offset="1" stop-color="#D59A13" stop-opacity="0"/>
</radialGradient>
<radialGradient id="paint14_radial_1374_351" cx="0" cy="0" r="1" gradientUnits="userSpaceOnUse" gradientTransform="translate(20.0429 12.0488) rotate(44.6338) scale(1.22421 2.56881)">
<stop stop-color="#D59A13"/>
<stop offset="1" stop-color="#D59A13" stop-opacity="0"/>
</radialGradient>
<radialGradient id="paint15_radial_1374_351" cx="0" cy="0" r="1" gradientUnits="userSpaceOnUse" gradientTransform="translate(21.1197 10.8875) rotate(87.2737) scale(1.33168)">
<stop stop-color="#D59A13"/>
<stop offset="1" stop-color="#D59A13" stop-opacity="0"/>
</radialGradient>
<linearGradient id="paint16_linear_1374_351" x1="20.6154" y1="15" x2="19.9265" y2="19.0302" gradientUnits="userSpaceOnUse">
<stop stop-color="#553B3E"/>
<stop offset="1" stop-color="#3D2432"/>
</linearGradient>
<linearGradient id="paint17_linear_1374_351" x1="20.6154" y1="15" x2="19.9265" y2="19.0302" gradientUnits="userSpaceOnUse">
<stop stop-color="#553B3E"/>
<stop offset="1" stop-color="#3D2432"/>
</linearGradient>
<radialGradient id="paint18_radial_1374_351" cx="0" cy="0" r="1" gradientUnits="userSpaceOnUse" gradientTransform="translate(16 25.6125) rotate(90) scale(9.68717 14.866)">
<stop offset="0.180838" stop-color="#49235A"/>
<stop offset="0.278352" stop-color="#4F3F50"/>
<stop offset="0.31308" stop-color="#4F3F50"/>
<stop offset="0.412151" stop-color="#362338"/>
</radialGradient>
<radialGradient id="paint19_radial_1374_351" cx="0" cy="0" r="1" gradientUnits="userSpaceOnUse" gradientTransform="translate(16 23.3067) rotate(90) scale(7.89043 6.9461)">
<stop offset="0.483976" stop-color="#3C2846" stop-opacity="0"/>
<stop offset="0.734375" stop-color="#3C2846"/>
</radialGradient>
<radialGradient id="paint20_radial_1374_351" cx="0" cy="0" r="1" gradientUnits="userSpaceOnUse" gradientTransform="translate(20.3242 24.6654) rotate(-45) scale(1.06423)">
<stop stop-color="#52484E"/>
<stop offset="1" stop-color="#51474D" stop-opacity="0"/>
</radialGradient>
<radialGradient id="paint21_radial_1374_351" cx="0" cy="0" r="1" gradientUnits="userSpaceOnUse" gradientTransform="translate(13.2788 10.3173) rotate(-49.1446) scale(4.06762 5.81684)">
<stop offset="0.423728" stop-color="#3B2A3A"/>
<stop offset="0.556723" stop-color="#4D414B"/>
<stop offset="0.64586" stop-color="#4D414B"/>
<stop offset="0.791667" stop-color="#481E58"/>
<stop offset="0.833333" stop-color="#49404A"/>
</radialGradient>
<radialGradient id="paint22_radial_1374_351" cx="0" cy="0" r="1" gradientUnits="userSpaceOnUse" gradientTransform="translate(10.7365 13.3096) rotate(-53.441) scale(7.03062 6.42911)">
<stop offset="0.484115" stop-color="#362839" stop-opacity="0"/>
<stop offset="0.591432" stop-color="#362839"/>
</radialGradient>
<radialGradient id="paint23_radial_1374_351" cx="0" cy="0" r="1" gradientUnits="userSpaceOnUse" gradientTransform="translate(14.5499 13.1177) rotate(-135) scale(0.789533)">
<stop stop-color="#645560"/>
<stop offset="1" stop-color="#4F434C" stop-opacity="0"/>
</radialGradient>
<linearGradient id="paint24_linear_1374_351" x1="20.5" y1="10" x2="20.5" y2="11.5" gradientUnits="userSpaceOnUse">
<stop offset="0.0299084" stop-color="#524049"/>
<stop offset="1" stop-color="#4A2C42"/>
</linearGradient>
<radialGradient id="paint25_radial_1374_351" cx="0" cy="0" r="1" gradientUnits="userSpaceOnUse" gradientTransform="translate(18.7212 10.3173) rotate(-130.855) scale(4.06762 5.81684)">
<stop offset="0.423728" stop-color="#3B2A3A"/>
<stop offset="0.556723" stop-color="#4D414B"/>
<stop offset="0.64586" stop-color="#4D414B"/>
<stop offset="0.791667" stop-color="#481E58"/>
<stop offset="0.833333" stop-color="#49404A"/>
</radialGradient>
<radialGradient id="paint26_radial_1374_351" cx="0" cy="0" r="1" gradientUnits="userSpaceOnUse" gradientTransform="translate(21.2635 13.3096) rotate(-126.559) scale(7.03062 6.42911)">
<stop offset="0.484115" stop-color="#362839" stop-opacity="0"/>
<stop offset="0.591432" stop-color="#362839"/>
</radialGradient>
<radialGradient id="paint27_radial_1374_351" cx="0" cy="0" r="1" gradientUnits="userSpaceOnUse" gradientTransform="translate(21.905 9.97917) rotate(123.071) scale(0.563326 0.947149)">
<stop stop-color="#645560"/>
<stop offset="1" stop-color="#4F434C" stop-opacity="0"/>
</radialGradient>
</defs>
</svg>
