<svg width="314" height="143" viewBox="0 0 314 143" fill="none" xmlns="http://www.w3.org/2000/svg">
<g filter="url(#filter0_d_621_742)">
<rect x="7.9563" y="69.5605" width="240" height="64" rx="16" transform="rotate(-3 7.9563 69.5605)" fill="#EEEEEE" shape-rendering="crispEdges"/>
<g clip-path="url(#clip0_621_742)">
<path d="M31.3916 96.3715L31.1822 92.377L27.1877 92.5864M21.7193 102.887L23.7165 102.782M39.6946 101.945L41.6919 101.84M34.6491 101.208L34.7538 103.205M28.6574 101.522L28.762 103.519M25.3998 96.6856L37.3833 96.0575C38.4864 95.9997 39.4275 96.8471 39.4853 97.9501L39.904 105.939C39.9618 107.042 39.1144 107.983 38.0114 108.041L26.0278 108.669C24.9248 108.727 23.9837 107.88 23.9259 106.777L23.5072 98.7875C23.4494 97.6844 24.2967 96.7434 25.3998 96.6856Z" stroke="#8D8D8D" stroke-width="2" stroke-linecap="round" stroke-linejoin="round"/>
</g>
<rect x="50.8408" y="85.3379" width="29" height="8" rx="4" transform="rotate(-3 50.8408 85.3379)" fill="#8D8D8D"/>
<rect opacity="0.32" x="51.6782" y="101.316" width="64" height="4" rx="2" transform="rotate(-3 51.6782 101.316)" fill="#8D8D8D"/>
<rect opacity="0.32" x="52.0969" y="109.305" width="136" height="4" rx="2" transform="rotate(-3 52.0969 109.305)" fill="#8D8D8D"/>
</g>
<g filter="url(#filter1_d_621_742)">
<rect x="66.1899" y="6" width="240" height="64" rx="16" transform="rotate(2 66.1899 6)" fill="#D9E7FD" shape-rendering="crispEdges"/>
<rect x="77.8336" y="16.4141" width="44" height="44" rx="22" transform="rotate(2 77.8336 16.4141)" fill="#81AEF8"/>
<mask id="mask0_621_742" style="mask-type:alpha" maskUnits="userSpaceOnUse" x="77" y="17" width="45" height="45">
<rect x="77.8336" y="16.4141" width="44" height="44" rx="22" transform="rotate(2 77.8336 16.4141)" fill="#81AEF8"/>
</mask>
<g mask="url(#mask0_621_742)">
<g filter="url(#filter2_d_621_742)">
<path d="M98.7383 48.1614C104.258 48.3542 108.888 44.036 109.081 38.5165C109.274 32.997 104.956 28.3664 99.4363 28.1736C93.9168 27.9809 89.2861 32.2991 89.0934 37.8185C88.9007 43.338 93.2188 47.9687 98.7383 48.1614ZM98.7383 48.1614C102.979 48.3095 106.988 50.1362 109.882 53.2397C112.776 56.3432 114.318 60.4692 114.17 64.7101M98.7383 48.1614C94.4974 48.0133 90.3714 49.556 87.2679 52.45C84.1645 55.3441 82.3378 59.3524 82.1897 63.5933" stroke="#6299F6" stroke-width="4" stroke-linecap="round" stroke-linejoin="round"/>
</g>
</g>
<rect x="131.661" y="22.2949" width="50" height="8" rx="4" transform="rotate(2 131.661 22.2949)" fill="#81AEF8"/>
<rect x="131.103" y="38.2852" width="146" height="4" rx="2" transform="rotate(2 131.103 38.2852)" fill="#2C59A3"/>
<rect x="130.823" y="46.2812" width="100" height="4" rx="2" transform="rotate(2 130.823 46.2812)" fill="#2C59A3"/>
<rect x="130.544" y="54.2754" width="118" height="4" rx="2" transform="rotate(2 130.544 54.2754)" fill="#2C59A3"/>
</g>
<defs>
<filter id="filter0_d_621_742" x="-0.0437012" y="51" width="259.021" height="92.4727" filterUnits="userSpaceOnUse" color-interpolation-filters="sRGB">
<feFlood flood-opacity="0" result="BackgroundImageFix"/>
<feColorMatrix in="SourceAlpha" type="matrix" values="0 0 0 0 0 0 0 0 0 0 0 0 0 0 0 0 0 0 127 0" result="hardAlpha"/>
<feOffset dy="2"/>
<feGaussianBlur stdDeviation="4"/>
<feComposite in2="hardAlpha" operator="out"/>
<feColorMatrix type="matrix" values="0 0 0 0 0 0 0 0 0 0 0 0 0 0 0 0 0 0 0.08 0"/>
<feBlend mode="normal" in2="BackgroundImageFix" result="effect1_dropShadow_621_742"/>
<feBlend mode="normal" in="SourceGraphic" in2="effect1_dropShadow_621_742" result="shape"/>
</filter>
<filter id="filter1_d_621_742" x="55.9563" y="0" width="258.087" height="88.3359" filterUnits="userSpaceOnUse" color-interpolation-filters="sRGB">
<feFlood flood-opacity="0" result="BackgroundImageFix"/>
<feColorMatrix in="SourceAlpha" type="matrix" values="0 0 0 0 0 0 0 0 0 0 0 0 0 0 0 0 0 0 127 0" result="hardAlpha"/>
<feOffset dy="2"/>
<feGaussianBlur stdDeviation="4"/>
<feComposite in2="hardAlpha" operator="out"/>
<feColorMatrix type="matrix" values="0 0 0 0 0 0 0 0 0 0 0 0 0 0 0 0 0 0 0.08 0"/>
<feBlend mode="normal" in2="BackgroundImageFix" result="effect1_dropShadow_621_742"/>
<feBlend mode="normal" in="SourceGraphic" in2="effect1_dropShadow_621_742" result="shape"/>
</filter>
<filter id="filter2_d_621_742" x="70.2992" y="21.3398" width="57.3318" height="53.3711" filterUnits="userSpaceOnUse" color-interpolation-filters="sRGB">
<feFlood flood-opacity="0" result="BackgroundImageFix"/>
<feColorMatrix in="SourceAlpha" type="matrix" values="0 0 0 0 0 0 0 0 0 0 0 0 0 0 0 0 0 0 127 0" result="hardAlpha"/>
<feOffset dy="4"/>
<feGaussianBlur stdDeviation="2"/>
<feComposite in2="hardAlpha" operator="out"/>
<feColorMatrix type="matrix" values="0 0 0 0 0 0 0 0 0 0 0 0 0 0 0 0 0 0 0.25 0"/>
<feBlend mode="normal" in2="BackgroundImageFix" result="effect1_dropShadow_621_742"/>
<feBlend mode="normal" in="SourceGraphic" in2="effect1_dropShadow_621_742" result="shape"/>
</filter>
<clipPath id="clip0_621_742">
<rect width="24" height="24" fill="white" transform="translate(18.9893 89.0098) rotate(-3)"/>
</clipPath>
</defs>
</svg>
