<svg width="33" height="32" viewBox="0 0 33 32" fill="none" xmlns="http://www.w3.org/2000/svg">
<g clip-path="url(#clip0_1374_352)">
<path d="M16.4989 29.9978C25.8333 29.9978 30.4978 23.7303 30.4978 15.9989C30.4978 8.26751 25.8333 2 16.4989 2C7.16443 2 2.5 8.26751 2.5 15.9989C2.5 23.7303 7.16443 29.9978 16.4989 29.9978Z" fill="url(#paint0_radial_1374_352)"/>
<path d="M16.4989 29.9978C25.8333 29.9978 30.4978 23.7303 30.4978 15.9989C30.4978 8.26751 25.8333 2 16.4989 2C7.16443 2 2.5 8.26751 2.5 15.9989C2.5 23.7303 7.16443 29.9978 16.4989 29.9978Z" fill="url(#paint1_radial_1374_352)"/>
<path d="M16.4989 29.9978C25.8333 29.9978 30.4978 23.7303 30.4978 15.9989C30.4978 8.26751 25.8333 2 16.4989 2C7.16443 2 2.5 8.26751 2.5 15.9989C2.5 23.7303 7.16443 29.9978 16.4989 29.9978Z" fill="url(#paint2_radial_1374_352)" fill-opacity="0.6"/>
<path d="M16.4989 29.9978C25.8333 29.9978 30.4978 23.7303 30.4978 15.9989C30.4978 8.26751 25.8333 2 16.4989 2C7.16443 2 2.5 8.26751 2.5 15.9989C2.5 23.7303 7.16443 29.9978 16.4989 29.9978Z" fill="url(#paint3_radial_1374_352)"/>
<path d="M16.4989 29.9978C25.8333 29.9978 30.4978 23.7303 30.4978 15.9989C30.4978 8.26751 25.8333 2 16.4989 2C7.16443 2 2.5 8.26751 2.5 15.9989C2.5 23.7303 7.16443 29.9978 16.4989 29.9978Z" fill="url(#paint4_radial_1374_352)"/>
<path d="M16.4989 29.9978C25.8333 29.9978 30.4978 23.7303 30.4978 15.9989C30.4978 8.26751 25.8333 2 16.4989 2C7.16443 2 2.5 8.26751 2.5 15.9989C2.5 23.7303 7.16443 29.9978 16.4989 29.9978Z" fill="url(#paint5_radial_1374_352)"/>
<path d="M16.4989 29.9978C25.8333 29.9978 30.4978 23.7303 30.4978 15.9989C30.4978 8.26751 25.8333 2 16.4989 2C7.16443 2 2.5 8.26751 2.5 15.9989C2.5 23.7303 7.16443 29.9978 16.4989 29.9978Z" fill="url(#paint6_radial_1374_352)"/>
<path d="M16.4989 29.9978C25.8333 29.9978 30.4978 23.7303 30.4978 15.9989C30.4978 8.26751 25.8333 2 16.4989 2C7.16443 2 2.5 8.26751 2.5 15.9989C2.5 23.7303 7.16443 29.9978 16.4989 29.9978Z" fill="url(#paint7_radial_1374_352)"/>
<path d="M16.4989 29.9978C25.8333 29.9978 30.4978 23.7303 30.4978 15.9989C30.4978 8.26751 25.8333 2 16.4989 2C7.16443 2 2.5 8.26751 2.5 15.9989C2.5 23.7303 7.16443 29.9978 16.4989 29.9978Z" fill="url(#paint8_radial_1374_352)"/>
<path d="M16.4989 29.9978C25.8333 29.9978 30.4978 23.7303 30.4978 15.9989C30.4978 8.26751 25.8333 2 16.4989 2C7.16443 2 2.5 8.26751 2.5 15.9989C2.5 23.7303 7.16443 29.9978 16.4989 29.9978Z" fill="url(#paint9_radial_1374_352)"/>
<path d="M16.4989 29.9978C25.8333 29.9978 30.4978 23.7303 30.4978 15.9989C30.4978 8.26751 25.8333 2 16.4989 2C7.16443 2 2.5 8.26751 2.5 15.9989C2.5 23.7303 7.16443 29.9978 16.4989 29.9978Z" fill="url(#paint10_radial_1374_352)"/>
<path d="M10.9191 16.2244C13.242 16.2244 15.1251 14.3414 15.1251 12.0185C15.1251 9.69557 13.242 7.8125 10.9191 7.8125C8.59621 7.8125 6.71313 9.69557 6.71313 12.0185C6.71313 14.3414 8.59621 16.2244 10.9191 16.2244Z" fill="white"/>
<path d="M22.0683 16.3011C24.4123 16.3011 26.3126 14.4009 26.3126 12.0568C26.3126 9.71274 24.4123 7.8125 22.0683 7.8125C19.7242 7.8125 17.824 9.71274 17.824 12.0568C17.824 14.4009 19.7242 16.3011 22.0683 16.3011Z" fill="white"/>
<path fill-rule="evenodd" clip-rule="evenodd" d="M16.5 20C12.96 20 11.598 22.04 11.3944 22.4472C11.1474 22.9412 10.5467 23.1414 10.0528 22.8944C9.55878 22.6474 9.35856 22.0468 9.60555 21.5528C10.0686 20.6267 12.04 18 16.5 18C20.96 18 22.9313 20.6267 23.3944 21.5528C23.6414 22.0468 23.4412 22.6474 22.9472 22.8944C22.4532 23.1414 21.8525 22.9412 21.6055 22.4472C21.4019 22.04 20.04 20 16.5 20Z" fill="url(#paint11_radial_1374_352)"/>
<path fill-rule="evenodd" clip-rule="evenodd" d="M16.5 20C12.96 20 11.598 22.04 11.3944 22.4472C11.1474 22.9412 10.5467 23.1414 10.0528 22.8944C9.55878 22.6474 9.35856 22.0468 9.60555 21.5528C10.0686 20.6267 12.04 18 16.5 18C20.96 18 22.9313 20.6267 23.3944 21.5528C23.6414 22.0468 23.4412 22.6474 22.9472 22.8944C22.4532 23.1414 21.8525 22.9412 21.6055 22.4472C21.4019 22.04 20.04 20 16.5 20Z" fill="url(#paint12_radial_1374_352)"/>
<path fill-rule="evenodd" clip-rule="evenodd" d="M16.5 20C12.96 20 11.598 22.04 11.3944 22.4472C11.1474 22.9412 10.5467 23.1414 10.0528 22.8944C9.55878 22.6474 9.35856 22.0468 9.60555 21.5528C10.0686 20.6267 12.04 18 16.5 18C20.96 18 22.9313 20.6267 23.3944 21.5528C23.6414 22.0468 23.4412 22.6474 22.9472 22.8944C22.4532 23.1414 21.8525 22.9412 21.6055 22.4472C21.4019 22.04 20.04 20 16.5 20Z" fill="url(#paint13_radial_1374_352)"/>
<path fill-rule="evenodd" clip-rule="evenodd" d="M16.5 20C12.96 20 11.598 22.04 11.3944 22.4472C11.1474 22.9412 10.5467 23.1414 10.0528 22.8944C9.55878 22.6474 9.35856 22.0468 9.60555 21.5528C10.0686 20.6267 12.04 18 16.5 18C20.96 18 22.9313 20.6267 23.3944 21.5528C23.6414 22.0468 23.4412 22.6474 22.9472 22.8944C22.4532 23.1414 21.8525 22.9412 21.6055 22.4472C21.4019 22.04 20.04 20 16.5 20Z" fill="url(#paint14_radial_1374_352)"/>
<path fill-rule="evenodd" clip-rule="evenodd" d="M11.5 14C12.6046 14 13.5 13.1046 13.5 12C13.5 10.8954 12.6046 10 11.5 10C10.3954 10 9.5 10.8954 9.5 12C9.5 13.1046 10.3954 14 11.5 14ZM21.5 14C22.6046 14 23.5 13.1046 23.5 12C23.5 10.8954 22.6046 10 21.5 10C20.3954 10 19.5 10.8954 19.5 12C19.5 13.1046 20.3954 14 21.5 14Z" fill="url(#paint15_linear_1374_352)"/>
</g>
<defs>
<radialGradient id="paint0_radial_1374_352" cx="0" cy="0" r="1" gradientUnits="userSpaceOnUse" gradientTransform="translate(26 9) rotate(132.839) scale(37.5033)">
<stop stop-color="#FFF478"/>
<stop offset="0.474827" stop-color="#FFB02E"/>
<stop offset="1" stop-color="#F70A8D"/>
</radialGradient>
<radialGradient id="paint1_radial_1374_352" cx="0" cy="0" r="1" gradientUnits="userSpaceOnUse" gradientTransform="translate(16.5 12.5) rotate(101.31) scale(17.8466 22.8581)">
<stop offset="0.787821" stop-color="#F59639" stop-opacity="0"/>
<stop offset="0.972509" stop-color="#FF7DCE"/>
</radialGradient>
<radialGradient id="paint2_radial_1374_352" cx="0" cy="0" r="1" gradientUnits="userSpaceOnUse" gradientTransform="translate(18.5 14) rotate(135) scale(41.0122)">
<stop offset="0.314853" stop-opacity="0"/>
<stop offset="1"/>
</radialGradient>
<radialGradient id="paint3_radial_1374_352" cx="0" cy="0" r="1" gradientUnits="userSpaceOnUse" gradientTransform="translate(16.5 17) rotate(77.692) scale(28.1469)">
<stop offset="0.507903" stop-color="#7D6133" stop-opacity="0"/>
<stop offset="1" stop-color="#715B32"/>
</radialGradient>
<radialGradient id="paint4_radial_1374_352" cx="0" cy="0" r="1" gradientUnits="userSpaceOnUse" gradientTransform="translate(17 16.5) rotate(55.7131) scale(13.3135 9.65032)">
<stop stop-color="#FFB849"/>
<stop offset="1" stop-color="#FFB847" stop-opacity="0"/>
</radialGradient>
<radialGradient id="paint5_radial_1374_352" cx="0" cy="0" r="1" gradientUnits="userSpaceOnUse" gradientTransform="translate(21 18) rotate(9.86581) scale(11.6726)">
<stop stop-color="#FFA64B"/>
<stop offset="0.900412" stop-color="#FFAE46" stop-opacity="0"/>
</radialGradient>
<radialGradient id="paint6_radial_1374_352" cx="0" cy="0" r="1" gradientUnits="userSpaceOnUse" gradientTransform="translate(18 15) rotate(43.9708) scale(59.0529)">
<stop offset="0.185425" stop-opacity="0"/>
<stop offset="1" stop-opacity="0.4"/>
</radialGradient>
<radialGradient id="paint7_radial_1374_352" cx="0" cy="0" r="1" gradientUnits="userSpaceOnUse" gradientTransform="translate(20.8599 11.3254) rotate(121.065) scale(3.98312)">
<stop stop-color="#392108"/>
<stop offset="1" stop-color="#C87928" stop-opacity="0"/>
</radialGradient>
<radialGradient id="paint8_radial_1374_352" cx="0" cy="0" r="1" gradientUnits="userSpaceOnUse" gradientTransform="translate(10.5807 13.1509) rotate(68.8387) scale(3.7343)">
<stop offset="0.359039" stop-color="#C84E28"/>
<stop offset="1" stop-color="#C84528" stop-opacity="0"/>
</radialGradient>
<radialGradient id="paint9_radial_1374_352" cx="0" cy="0" r="1" gradientUnits="userSpaceOnUse" gradientTransform="translate(21.8218 12.6976) rotate(119.148) scale(4.2009)">
<stop offset="0.359039" stop-color="#C84E28"/>
<stop offset="1" stop-color="#C84528" stop-opacity="0"/>
</radialGradient>
<radialGradient id="paint10_radial_1374_352" cx="0" cy="0" r="1" gradientUnits="userSpaceOnUse" gradientTransform="translate(10.1209 12.2665) rotate(122.474) scale(4.91032)">
<stop offset="0.31498" stop-color="#392108"/>
<stop offset="1" stop-color="#C87928" stop-opacity="0"/>
</radialGradient>
<radialGradient id="paint11_radial_1374_352" cx="0" cy="0" r="1" gradientUnits="userSpaceOnUse" gradientTransform="translate(16.5 23.5252) rotate(-89.9998) scale(6.15216 8.2049)">
<stop offset="0.479167" stop-color="#5B2666"/>
<stop offset="0.686742" stop-color="#533A4E"/>
<stop offset="0.817708" stop-color="#534149"/>
<stop offset="0.959686" stop-color="#53261F"/>
</radialGradient>
<radialGradient id="paint12_radial_1374_352" cx="0" cy="0" r="1" gradientUnits="userSpaceOnUse" gradientTransform="translate(10.9445 22.7077) rotate(21.1902) scale(1.71436 1.58156)">
<stop stop-color="#52265D"/>
<stop offset="1" stop-color="#52265D" stop-opacity="0"/>
</radialGradient>
<radialGradient id="paint13_radial_1374_352" cx="0" cy="0" r="1" gradientUnits="userSpaceOnUse" gradientTransform="translate(9.49976 21.3927) rotate(30.1116) scale(1.07062 2.57488)">
<stop stop-color="#4E3130"/>
<stop offset="1" stop-color="#4E3130" stop-opacity="0"/>
</radialGradient>
<radialGradient id="paint14_radial_1374_352" cx="0" cy="0" r="1" gradientUnits="userSpaceOnUse" gradientTransform="translate(22.924 21.2538) rotate(137.342) scale(1.76295 1.75793)">
<stop stop-color="#694F5B"/>
<stop offset="1" stop-color="#59414E" stop-opacity="0"/>
</radialGradient>
<linearGradient id="paint15_linear_1374_352" x1="25.4444" y1="9.33333" x2="24.87" y2="14.0249" gradientUnits="userSpaceOnUse">
<stop stop-color="#553B3E"/>
<stop offset="1" stop-color="#3D2432"/>
</linearGradient>
<clipPath id="clip0_1374_352">
<rect width="32" height="32" fill="white" transform="translate(0.5)"/>
</clipPath>
</defs>
</svg>
