<svg width="24" height="24" viewBox="0 0 24 24" fill="none" xmlns="http://www.w3.org/2000/svg">
<g clip-path="url(#clip0_45_1239)">
<path d="M23.7141 12.2244C23.7141 11.2412 23.6343 10.5236 23.4616 9.77954H12.2336V14.2175H18.8242C18.6914 15.3204 17.9739 16.9814 16.3793 18.0975L16.357 18.246L19.907 20.9962L20.153 21.0208C22.4118 18.9346 23.7141 15.8652 23.7141 12.2244Z" fill="white"/>
<path d="M12.2337 23.9176C15.4626 23.9176 18.1732 22.8545 20.1531 21.0209L16.3794 18.0976C15.3696 18.8018 14.0142 19.2934 12.2337 19.2934C9.07133 19.2934 6.38727 17.2074 5.43048 14.324L5.29023 14.3359L1.59881 17.1927L1.55054 17.3269C3.51707 21.2334 7.55649 23.9176 12.2337 23.9176Z" fill="white"/>
<path d="M5.43041 14.324C5.17796 13.58 5.03185 12.7826 5.03185 11.9589C5.03185 11.135 5.17796 10.3378 5.41713 9.59366L5.41044 9.43519L1.67277 6.53247L1.55047 6.59064C0.739971 8.21174 0.274902 10.0322 0.274902 11.9589C0.274902 13.8855 0.739971 15.7059 1.55047 17.327L5.43041 14.324Z" fill="white"/>
<path d="M12.2337 4.62403C14.4793 4.62403 15.994 5.59402 16.8578 6.40461L20.2328 3.10928C18.16 1.1826 15.4626 0 12.2337 0C7.55649 0 3.51707 2.68406 1.55054 6.59056L5.41719 9.59359C6.38727 6.7102 9.07133 4.62403 12.2337 4.62403Z" fill="white"/>
</g>
<defs>
<clipPath id="clip0_45_1239">
<rect width="23.4504" height="24" fill="white" transform="translate(0.274902)"/>
</clipPath>
</defs>
</svg>
