<svg width="1521" height="300" viewBox="0 0 1521 300" fill="none" xmlns="http://www.w3.org/2000/svg">
<path d="M288.228 3.87228L96.3597 1L178.507 277.313L303.738 168.741L288.228 3.87228Z" fill="#4285F4"/>
<path d="M98.083 30.2973L26.8505 62.4668L169.316 285.356L98.083 30.2973Z" fill="#4285F4"/>
<path d="M26.8505 85.445L1 122.21L157.252 299.143L26.8505 85.445Z" fill="#4285F4"/>
<path d="M288.228 3.87228L96.3597 1L178.507 277.313L303.738 168.741L288.228 3.87228Z" stroke="#4285F4" stroke-width="1.14891" stroke-linejoin="round"/>
<path d="M98.083 30.2973L26.8505 62.4668L169.316 285.356L98.083 30.2973Z" stroke="#4285F4" stroke-width="1.14891" stroke-linejoin="round"/>
<path d="M26.8505 85.445L1 122.21L157.252 299.143L26.8505 85.445Z" stroke="#4285F4" stroke-width="1.14891" stroke-linejoin="round"/>
<path d="M414.897 147.05C414.897 153.376 415.566 158.986 416.905 163.88C418.244 168.729 420.183 172.815 422.723 176.14C425.309 179.418 428.472 181.911 432.212 183.62C435.998 185.282 440.292 186.113 445.095 186.113C449.066 186.113 452.552 185.536 455.553 184.382C458.554 183.227 461.14 181.588 463.31 179.464C465.481 177.34 467.258 174.778 468.643 171.776C470.029 168.775 471.068 165.427 471.76 161.733H519.759C518.558 171.568 515.903 180.526 511.793 188.607C507.684 196.687 502.374 203.637 495.863 209.454C489.399 215.226 481.872 219.705 473.284 222.891C464.696 226.031 455.299 227.601 445.095 227.601C437.43 227.601 430.157 226.747 423.277 225.038C416.397 223.33 410.025 220.86 404.161 217.627C398.343 214.349 393.079 210.378 388.369 205.714C383.706 201.005 379.735 195.671 376.456 189.715C373.178 183.758 370.661 177.202 368.907 170.045C367.152 162.888 366.275 155.223 366.275 147.05C366.275 138.877 367.152 131.235 368.907 124.124C370.661 116.967 373.178 110.41 376.456 104.454C379.735 98.4513 383.706 93.1182 388.369 88.4546C393.079 83.7448 398.343 79.7738 404.161 76.5416C410.025 73.3094 416.397 70.839 423.277 69.1306C430.157 67.4221 437.43 66.5679 445.095 66.5679C455.299 66.5679 464.696 68.1609 473.284 71.347C481.919 74.4868 489.468 78.9426 495.933 84.7144C502.397 90.4862 507.684 97.4355 511.793 105.562C515.903 113.643 518.558 122.601 519.759 132.436H471.76C471.068 128.742 470.029 125.394 468.643 122.393C467.258 119.391 465.481 116.829 463.31 114.705C461.14 112.581 458.554 110.941 455.553 109.787C452.552 108.633 449.066 108.056 445.095 108.056C440.292 108.056 435.998 108.91 432.212 110.618C428.472 112.281 425.309 114.751 422.723 118.029C420.183 121.308 418.244 125.394 416.905 130.289C415.566 135.137 414.897 140.724 414.897 147.05ZM580.401 223.445H532.195V18.4311H580.401V223.445ZM746.066 171.153C743.942 179.926 740.618 187.799 736.093 194.771C731.568 201.743 726.073 207.677 719.608 212.571C713.144 217.42 705.802 221.137 697.583 223.722C689.41 226.308 680.614 227.601 671.195 227.601C663.437 227.601 656.119 226.724 649.239 224.969C642.359 223.214 636.01 220.698 630.192 217.42C624.42 214.095 619.225 210.078 614.608 205.368C610.037 200.612 606.135 195.256 602.903 189.299C599.717 183.297 597.269 176.74 595.561 169.629C593.852 162.518 592.998 154.969 592.998 146.981C592.998 138.992 593.829 131.466 595.492 124.401C597.2 117.29 599.624 110.757 602.764 104.8C605.95 98.8438 609.806 93.5106 614.331 88.8009C618.902 84.0449 624.05 80.0277 629.776 76.7494C635.548 73.471 641.828 70.9545 648.615 69.1999C655.449 67.4452 662.698 66.5679 670.363 66.5679C678.028 66.5679 685.232 67.4452 691.973 69.1999C698.714 70.9083 704.902 73.4017 710.535 76.6801C716.215 79.9123 721.294 83.8833 725.773 88.5931C730.252 93.3029 734.038 98.636 737.132 104.592C740.271 110.549 742.649 117.083 744.265 124.194C745.928 131.258 746.759 138.808 746.759 146.842C746.759 150.675 746.551 154.507 746.136 158.339H638.78C639.38 163.419 640.581 167.944 642.382 171.915C644.183 175.886 646.514 179.256 649.377 182.027C652.24 184.751 655.611 186.852 659.489 188.33C663.414 189.761 667.778 190.477 672.58 190.477C679.691 190.477 685.624 188.884 690.38 185.698C695.182 182.466 698.945 177.617 701.67 171.153H746.066ZM701.462 132.02C698.183 112.581 687.933 102.861 670.71 102.861C661.844 102.861 654.733 105.354 649.377 110.341C644.067 115.328 640.673 122.554 639.196 132.02H701.462ZM808.322 185.767H896.214V223.445H754.99V183.412L835.541 108.402H757.691V70.7236H890.881V110.757L808.322 185.767ZM957.017 55.5553H908.257V18.4311H957.017V55.5553ZM956.74 223.445H908.534V70.7236H956.74V223.445ZM1511.22 223.445H1464.67V175.239H1511.22V223.445Z" fill="#4285F4"/>
<path d="M1126.56 70.7236V206.615C1126.56 217.974 1124.83 228.178 1121.37 237.228C1117.9 246.325 1112.92 254.036 1106.41 260.362C1099.9 266.734 1091.95 271.605 1082.58 274.976C1073.25 278.393 1062.7 280.101 1050.93 280.101C1043.49 280.101 1036.5 279.432 1029.94 278.093C1023.38 276.8 1017.34 274.907 1011.79 272.413C1006.3 269.92 1001.36 266.872 996.973 263.271C992.632 259.715 988.938 255.675 985.891 251.15C982.89 246.625 980.581 241.661 978.965 236.259C977.349 230.856 976.541 225.108 976.541 219.013H1024.54C1024.54 222.891 1025.14 226.354 1026.34 229.402C1027.59 232.495 1029.32 235.104 1031.53 237.228C1033.75 239.399 1036.43 241.038 1039.57 242.146C1042.71 243.3 1046.19 243.877 1050.03 243.877C1054.55 243.877 1058.57 243.046 1062.08 241.384C1065.59 239.722 1068.54 237.321 1070.94 234.181C1073.39 231.041 1075.24 227.185 1076.48 222.614C1077.73 217.997 1078.36 212.756 1078.36 206.892V167.828C1076.79 175.355 1074.55 182.027 1071.64 187.845C1068.77 193.663 1065.26 198.534 1061.11 202.459C1057 206.384 1052.27 209.362 1046.91 211.394C1041.6 213.425 1035.71 214.441 1029.25 214.441C1023.38 214.441 1017.82 213.633 1012.56 212.017C1007.34 210.355 1002.49 207.977 998.012 204.883C993.579 201.79 989.585 198.049 986.029 193.663C982.52 189.23 979.519 184.243 977.025 178.702C974.532 173.161 972.616 167.113 971.277 160.556C969.984 153.999 969.337 147.027 969.337 139.639C969.337 128.603 970.792 118.583 973.701 109.579C976.656 100.575 980.766 92.8873 986.029 86.5152C991.339 80.1432 997.665 75.2256 1005.01 71.7625C1012.35 68.2994 1020.43 66.5679 1029.25 66.5679C1042.22 66.5679 1052.87 70.3542 1061.18 77.9268C1069.49 85.4532 1075.22 96.6736 1078.36 111.588V70.7236H1126.56ZM1078.36 139.639C1078.36 128.834 1075.72 120.823 1070.46 115.605C1065.24 110.387 1057.65 107.779 1047.67 107.779C1042.78 107.779 1038.48 108.402 1034.79 109.649C1031.1 110.895 1028 112.812 1025.51 115.397C1023.02 117.983 1021.12 121.285 1019.83 125.302C1018.58 129.319 1017.96 134.098 1017.96 139.639C1017.96 150.767 1020.45 159.148 1025.44 164.781C1030.43 170.414 1037.84 173.231 1047.67 173.231C1052.66 173.231 1057.05 172.492 1060.83 171.014C1064.66 169.537 1067.87 167.39 1070.46 164.573C1073.04 161.71 1075.01 158.201 1076.35 154.045C1077.69 149.843 1078.36 145.041 1078.36 139.639ZM1138.97 147.05C1138.97 138.877 1139.85 131.235 1141.61 124.124C1143.36 116.967 1145.88 110.41 1149.16 104.454C1152.43 98.4513 1156.4 93.1182 1161.07 88.4546C1165.78 83.7448 1171.04 79.7738 1176.86 76.5416C1182.72 73.3094 1189.1 70.839 1195.98 69.1306C1202.86 67.4221 1210.13 66.5679 1217.79 66.5679C1225.5 66.5679 1232.8 67.4221 1239.68 69.1306C1246.56 70.839 1252.91 73.3094 1258.73 76.5416C1264.55 79.7738 1269.79 83.7448 1274.45 88.4546C1279.16 93.1182 1283.15 98.4513 1286.43 104.454C1289.71 110.41 1292.23 116.967 1293.98 124.124C1295.74 131.235 1296.61 138.877 1296.61 147.05C1296.61 155.223 1295.74 162.888 1293.98 170.045C1292.23 177.202 1289.71 183.758 1286.43 189.715C1283.15 195.671 1279.16 201.005 1274.45 205.714C1269.79 210.378 1264.55 214.349 1258.73 217.627C1252.91 220.86 1246.56 223.33 1239.68 225.038C1232.8 226.747 1225.5 227.601 1217.79 227.601C1210.13 227.601 1202.86 226.747 1195.98 225.038C1189.1 223.33 1182.72 220.86 1176.86 217.627C1171.04 214.349 1165.78 210.378 1161.07 205.714C1156.4 201.005 1152.43 195.671 1149.16 189.715C1145.88 183.758 1143.36 177.202 1141.61 170.045C1139.85 162.888 1138.97 155.223 1138.97 147.05ZM1187.6 147.05C1187.6 153.376 1188.27 158.986 1189.6 163.88C1190.94 168.729 1192.91 172.815 1195.49 176.14C1198.08 179.418 1201.24 181.911 1204.98 183.62C1208.72 185.282 1213.01 186.113 1217.86 186.113C1222.71 186.113 1227.01 185.282 1230.75 183.62C1234.49 181.911 1237.63 179.418 1240.17 176.14C1242.75 172.815 1244.69 168.729 1245.98 163.88C1247.32 158.986 1247.99 153.376 1247.99 147.05C1247.99 140.724 1247.32 135.137 1245.98 130.289C1244.69 125.394 1242.75 121.308 1240.17 118.029C1237.63 114.751 1234.49 112.281 1230.75 110.618C1227.01 108.91 1222.71 108.056 1217.86 108.056C1213.01 108.056 1208.72 108.91 1204.98 110.618C1201.24 112.281 1198.08 114.751 1195.49 118.029C1192.91 121.308 1190.94 125.394 1189.6 130.289C1188.27 135.137 1187.6 140.724 1187.6 147.05ZM1455.8 70.7236L1406.07 223.445H1341.66L1292.48 70.7236H1343.39L1374.49 191.654L1406 70.7236H1455.8Z" fill="white"/>
<path d="M1165.05 243.99C1167.55 243.99 1169.78 244.258 1171.74 244.794C1173.71 245.329 1175.37 246.103 1176.72 247.115C1178.07 248.127 1179.11 249.357 1179.81 250.806C1180.53 252.254 1180.88 253.891 1180.88 255.717H1170.63C1170.63 254.268 1170.18 253.147 1169.29 252.353C1168.4 251.56 1167.07 251.163 1165.32 251.163C1164.57 251.163 1163.89 251.237 1163.26 251.386C1162.65 251.525 1162.12 251.728 1161.67 251.996C1161.22 252.254 1160.88 252.572 1160.63 252.949C1160.39 253.316 1160.27 253.722 1160.27 254.169C1160.27 254.744 1160.43 255.221 1160.76 255.598C1161.09 255.965 1161.54 256.272 1162.12 256.52C1162.69 256.758 1163.36 256.957 1164.13 257.115C1164.9 257.274 1165.73 257.433 1166.63 257.592L1168.83 257.979C1169.69 258.127 1170.61 258.301 1171.58 258.499C1172.56 258.698 1173.53 258.956 1174.48 259.273C1175.45 259.581 1176.36 259.973 1177.24 260.449C1178.12 260.915 1178.89 261.496 1179.56 262.19C1180.23 262.885 1180.77 263.713 1181.16 264.675C1181.57 265.628 1181.78 266.754 1181.78 268.053C1181.78 269.73 1181.42 271.223 1180.72 272.533C1180.01 273.833 1178.98 274.934 1177.62 275.837C1176.27 276.729 1174.61 277.409 1172.64 277.875C1170.67 278.352 1168.42 278.59 1165.88 278.59C1163.2 278.59 1160.84 278.327 1158.78 277.801C1156.74 277.275 1155.02 276.506 1153.63 275.494C1152.24 274.472 1151.19 273.217 1150.48 271.729C1149.76 270.241 1149.41 268.535 1149.41 266.61H1159.66C1159.66 268.148 1160.17 269.318 1161.18 270.122C1162.19 270.926 1163.73 271.327 1165.79 271.327C1166.68 271.327 1167.47 271.258 1168.17 271.119C1168.88 270.97 1169.48 270.762 1169.97 270.494C1170.47 270.226 1170.85 269.899 1171.12 269.512C1171.39 269.125 1171.52 268.688 1171.52 268.202C1171.52 267.597 1171.37 267.106 1171.06 266.729C1170.75 266.342 1170.31 266.025 1169.72 265.777C1169.15 265.519 1168.44 265.305 1167.61 265.137C1166.77 264.958 1165.83 264.775 1164.78 264.586L1162.58 264.184C1161.78 264.045 1160.92 263.882 1159.99 263.693C1159.07 263.505 1158.14 263.257 1157.21 262.949C1156.28 262.642 1155.38 262.26 1154.51 261.803C1153.65 261.347 1152.88 260.781 1152.22 260.107C1151.56 259.422 1151.02 258.614 1150.63 257.681C1150.23 256.738 1150.03 255.632 1150.03 254.362C1150.03 252.745 1150.37 251.297 1151.06 250.017C1151.74 248.737 1152.73 247.651 1154.01 246.758C1155.3 245.865 1156.87 245.18 1158.72 244.704C1160.59 244.228 1162.7 243.99 1165.05 243.99ZM1183.41 261.282C1183.41 259.526 1183.59 257.884 1183.97 256.357C1184.35 254.819 1184.89 253.41 1185.59 252.13C1186.3 250.84 1187.15 249.695 1188.15 248.692C1189.17 247.681 1190.3 246.827 1191.55 246.133C1192.81 245.438 1194.18 244.908 1195.65 244.541C1197.13 244.173 1198.69 243.99 1200.34 243.99C1202 243.99 1203.57 244.173 1205.04 244.541C1206.52 244.908 1207.89 245.438 1209.14 246.133C1210.39 246.827 1211.51 247.681 1212.51 248.692C1213.53 249.695 1214.39 250.84 1215.09 252.13C1215.79 253.41 1216.33 254.819 1216.71 256.357C1217.09 257.884 1217.28 259.526 1217.28 261.282C1217.28 263.038 1217.09 264.685 1216.71 266.223C1216.33 267.761 1215.79 269.17 1215.09 270.449C1214.39 271.729 1213.53 272.875 1212.51 273.887C1211.51 274.889 1210.39 275.742 1209.14 276.447C1207.89 277.141 1206.52 277.672 1205.04 278.039C1203.57 278.406 1202 278.59 1200.34 278.59C1198.69 278.59 1197.13 278.406 1195.65 278.039C1194.18 277.672 1192.81 277.141 1191.55 276.447C1190.3 275.742 1189.17 274.889 1188.15 273.887C1187.15 272.875 1186.3 271.729 1185.59 270.449C1184.89 269.17 1184.35 267.761 1183.97 266.223C1183.59 264.685 1183.41 263.038 1183.41 261.282ZM1193.85 261.282C1193.85 262.642 1194 263.847 1194.28 264.899C1194.57 265.94 1194.99 266.818 1195.55 267.533C1196.11 268.237 1196.79 268.773 1197.59 269.14C1198.39 269.497 1199.31 269.676 1200.36 269.676C1201.4 269.676 1202.32 269.497 1203.12 269.14C1203.93 268.773 1204.6 268.237 1205.15 267.533C1205.7 266.818 1206.12 265.94 1206.4 264.899C1206.69 263.847 1206.83 262.642 1206.83 261.282C1206.83 259.923 1206.69 258.723 1206.4 257.681C1206.12 256.629 1205.7 255.751 1205.15 255.047C1204.6 254.343 1203.93 253.812 1203.12 253.455C1202.32 253.088 1201.4 252.904 1200.36 252.904C1199.31 252.904 1198.39 253.088 1197.59 253.455C1196.79 253.812 1196.11 254.343 1195.55 255.047C1194.99 255.751 1194.57 256.629 1194.28 257.681C1194 258.723 1193.85 259.923 1193.85 261.282ZM1230.29 277.697H1219.93V233.647H1230.29V277.697ZM1255.08 244.883H1265.43V277.697H1255.08V267.652C1254.43 271.263 1253.17 273.991 1251.28 275.837C1249.4 277.672 1246.93 278.59 1243.87 278.59C1240.44 278.59 1237.85 277.394 1236.1 275.003C1234.37 272.602 1233.5 269.036 1233.5 264.303V244.883H1243.86V262.071C1243.86 264.621 1244.3 266.526 1245.18 267.786C1246.06 269.046 1247.41 269.676 1249.21 269.676C1251.12 269.676 1252.57 269.016 1253.57 267.696C1254.58 266.367 1255.08 264.412 1255.08 261.833V244.883ZM1290.58 277.444C1289.12 277.821 1287.75 278.104 1286.48 278.292C1285.22 278.49 1284.04 278.59 1282.93 278.59C1279.16 278.59 1276.31 277.493 1274.38 275.301C1272.46 273.108 1271.5 269.844 1271.5 265.509V252.978H1267.57V244.883H1271.5V237.323H1281.85V244.883H1290.58V252.978H1281.85V265.524C1281.85 267.26 1282.17 268.525 1282.79 269.318C1283.43 270.112 1284.44 270.509 1285.84 270.509C1286.42 270.509 1287.09 270.444 1287.85 270.315C1288.62 270.187 1289.52 269.993 1290.58 269.735V277.444ZM1303.82 241.624H1293.35V233.647H1303.82V241.624ZM1303.76 277.697H1293.41V244.883H1303.76V277.697ZM1306.47 261.282C1306.47 259.526 1306.66 257.884 1307.04 256.357C1307.41 254.819 1307.95 253.41 1308.66 252.13C1309.36 250.84 1310.22 249.695 1311.22 248.692C1312.23 247.681 1313.36 246.827 1314.61 246.133C1315.87 245.438 1317.24 244.908 1318.72 244.541C1320.2 244.173 1321.76 243.99 1323.41 243.99C1325.06 243.99 1326.63 244.173 1328.11 244.541C1329.59 244.908 1330.95 245.438 1332.2 246.133C1333.45 246.827 1334.58 247.681 1335.58 248.692C1336.59 249.695 1337.45 250.84 1338.15 252.13C1338.86 253.41 1339.4 254.819 1339.78 256.357C1340.15 257.884 1340.34 259.526 1340.34 261.282C1340.34 263.038 1340.15 264.685 1339.78 266.223C1339.4 267.761 1338.86 269.17 1338.15 270.449C1337.45 271.729 1336.59 272.875 1335.58 273.887C1334.58 274.889 1333.45 275.742 1332.2 276.447C1330.95 277.141 1329.59 277.672 1328.11 278.039C1326.63 278.406 1325.06 278.59 1323.41 278.59C1321.76 278.59 1320.2 278.406 1318.72 278.039C1317.24 277.672 1315.87 277.141 1314.61 276.447C1313.36 275.742 1312.23 274.889 1311.22 273.887C1310.22 272.875 1309.36 271.729 1308.66 270.449C1307.95 269.17 1307.41 267.761 1307.04 266.223C1306.66 264.685 1306.47 263.038 1306.47 261.282ZM1316.92 261.282C1316.92 262.642 1317.06 263.847 1317.35 264.899C1317.64 265.94 1318.06 266.818 1318.61 267.533C1319.17 268.237 1319.85 268.773 1320.65 269.14C1321.46 269.497 1322.38 269.676 1323.42 269.676C1324.46 269.676 1325.39 269.497 1326.19 269.14C1326.99 268.773 1327.67 268.237 1328.21 267.533C1328.77 266.818 1329.18 265.94 1329.46 264.899C1329.75 263.847 1329.89 262.642 1329.89 261.282C1329.89 259.923 1329.75 258.723 1329.46 257.681C1329.18 256.629 1328.77 255.751 1328.21 255.047C1327.67 254.343 1326.99 253.812 1326.19 253.455C1325.39 253.088 1324.46 252.904 1323.42 252.904C1322.38 252.904 1321.46 253.088 1320.65 253.455C1319.85 253.812 1319.17 254.343 1318.61 255.047C1318.06 255.751 1317.64 256.629 1317.35 257.681C1317.06 258.723 1316.92 259.923 1316.92 261.282ZM1353.35 277.697H1342.99V244.883H1353.35V254.928C1353.99 251.317 1355.26 248.593 1357.14 246.758C1359.03 244.913 1361.5 243.99 1364.56 243.99C1368 243.99 1370.59 245.19 1372.32 247.591C1374.06 249.982 1374.93 253.544 1374.93 258.276V277.697H1364.57V260.509C1364.57 257.959 1364.13 256.054 1363.25 254.794C1362.36 253.534 1361.02 252.904 1359.21 252.904C1357.31 252.904 1355.86 253.569 1354.85 254.898C1353.85 256.218 1353.35 258.167 1353.35 260.747V277.697ZM1392.81 243.99C1395.31 243.99 1397.54 244.258 1399.5 244.794C1401.47 245.329 1403.12 246.103 1404.47 247.115C1405.83 248.127 1406.86 249.357 1407.57 250.806C1408.28 252.254 1408.64 253.891 1408.64 255.717H1398.39C1398.39 254.268 1397.94 253.147 1397.05 252.353C1396.16 251.56 1394.83 251.163 1393.07 251.163C1392.33 251.163 1391.65 251.237 1391.02 251.386C1390.41 251.525 1389.88 251.728 1389.43 251.996C1388.98 252.254 1388.63 252.572 1388.39 252.949C1388.15 253.316 1388.03 253.722 1388.03 254.169C1388.03 254.744 1388.19 255.221 1388.52 255.598C1388.85 255.965 1389.3 256.272 1389.88 256.52C1390.45 256.758 1391.12 256.957 1391.88 257.115C1392.66 257.274 1393.49 257.433 1394.38 257.592L1396.59 257.979C1397.45 258.127 1398.37 258.301 1399.34 258.499C1400.32 258.698 1401.29 258.956 1402.24 259.273C1403.2 259.581 1404.12 259.973 1404.99 260.449C1405.88 260.915 1406.65 261.496 1407.32 262.19C1407.99 262.885 1408.53 263.713 1408.92 264.675C1409.33 265.628 1409.53 266.754 1409.53 268.053C1409.53 269.73 1409.18 271.223 1408.48 272.533C1407.77 273.833 1406.74 274.934 1405.38 275.837C1404.03 276.729 1402.37 277.409 1400.4 277.875C1398.43 278.352 1396.18 278.59 1393.64 278.59C1390.96 278.59 1388.6 278.327 1386.54 277.801C1384.5 277.275 1382.78 276.506 1381.39 275.494C1380 274.472 1378.95 273.217 1378.24 271.729C1377.52 270.241 1377.17 268.535 1377.17 266.61H1387.42C1387.42 268.148 1387.93 269.318 1388.94 270.122C1389.95 270.926 1391.49 271.327 1393.55 271.327C1394.43 271.327 1395.23 271.258 1395.93 271.119C1396.64 270.97 1397.24 270.762 1397.73 270.494C1398.23 270.226 1398.61 269.899 1398.88 269.512C1399.15 269.125 1399.28 268.688 1399.28 268.202C1399.28 267.597 1399.13 267.106 1398.82 266.729C1398.51 266.342 1398.06 266.025 1397.48 265.777C1396.9 265.519 1396.2 265.305 1395.37 265.137C1394.53 264.958 1393.59 264.775 1392.54 264.586L1390.34 264.184C1389.54 264.045 1388.68 263.882 1387.75 263.693C1386.82 263.505 1385.9 263.257 1384.96 262.949C1384.04 262.642 1383.14 262.26 1382.27 261.803C1381.41 261.347 1380.64 260.781 1379.98 260.107C1379.31 259.422 1378.78 258.614 1378.39 257.681C1377.99 256.738 1377.79 255.632 1377.79 254.362C1377.79 252.745 1378.13 251.297 1378.82 250.017C1379.5 248.737 1380.48 247.651 1381.76 246.758C1383.05 245.865 1384.63 245.18 1386.48 244.704C1388.35 244.228 1390.46 243.99 1392.81 243.99Z" fill="white"/>
</svg>
