<svg width="180" height="160" viewBox="0 0 180 160" fill="none" xmlns="http://www.w3.org/2000/svg">
<path d="M154.677 18.0147C151.676 16.3746 150.314 17.7405 149.223 16.3746C148.131 15.0087 152.224 11.4638 144.024 7.91901C144.024 7.91901 143.48 0.281086 132.293 0.00695308C121.105 -0.26718 124.121 7.64487 121.119 9.55435C118.118 11.4638 117.3 8.48145 114.299 10.372C111.298 12.2626 112.664 16.1005 110.211 16.644C107.758 17.1875 104.477 14.191 101.476 16.1005C98.4748 18.0099 98.4748 19.6453 97.1136 19.6453C95.7524 19.6453 93.0205 18.5535 91.3852 19.6453C89.7498 20.7371 87.8356 22.103 87.8356 22.103H156.842C156.842 22.103 157.678 19.65 154.677 18.0147Z" fill="#B0BEC5"/>
<path opacity="0.5" d="M154.677 18.0147C151.676 16.3746 150.314 17.7405 149.223 16.3746C148.131 15.0087 152.224 11.4638 144.024 7.91901C144.024 7.91901 143.48 0.281086 132.293 0.00695308C121.105 -0.26718 124.121 7.64487 121.119 9.55435C118.118 11.4638 117.3 8.48145 114.299 10.372C111.298 12.2626 112.664 16.1005 110.211 16.644C107.758 17.1875 104.477 14.191 101.476 16.1005C98.4748 18.0099 98.4748 19.6453 97.1136 19.6453C95.7524 19.6453 93.0205 18.5535 91.3852 19.6453C89.7498 20.7371 87.8356 22.103 87.8356 22.103H156.842C156.842 22.103 157.678 19.65 154.677 18.0147Z" fill="white"/>
<path d="M76.4212 79.3306C74.3133 78.1821 73.3538 79.1368 72.5881 78.1821C71.8224 77.2274 74.6961 74.7318 68.9487 72.241C68.9487 72.241 68.5659 66.8765 60.7058 66.6827C52.8457 66.4889 54.9585 72.0472 52.8505 73.3895C50.7425 74.7318 50.1706 72.6238 48.0626 73.9661C45.9546 75.3084 46.9093 77.9883 45.1889 78.3712C43.4685 78.754 41.162 76.646 39.0445 77.9883C36.9271 79.3306 36.9365 80.4791 35.9818 80.4791C35.027 80.4791 33.1034 79.7135 31.9549 80.4791C30.8063 81.2448 29.464 82.2043 29.464 82.2043H77.9526C77.9526 82.2043 78.5292 80.4791 76.4212 79.3306Z" fill="white"/>
<path opacity="0.5" d="M76.4212 79.3306C74.3133 78.1821 73.3538 79.1368 72.5881 78.1821C71.8224 77.2274 74.6961 74.7318 68.9487 72.241C68.9487 72.241 68.5659 66.8765 60.7058 66.6827C52.8457 66.4889 54.9585 72.0472 52.8505 73.3895C50.7425 74.7318 50.1706 72.6238 48.0626 73.9661C45.9546 75.3084 46.9093 77.9883 45.1889 78.3712C43.4685 78.754 41.162 76.646 39.0445 77.9883C36.9271 79.3306 36.9365 80.4791 35.9818 80.4791C35.027 80.4791 33.1034 79.7135 31.9549 80.4791C30.8063 81.2448 29.464 82.2043 29.464 82.2043H77.9526C77.9526 82.2043 78.5292 80.4791 76.4212 79.3306Z" fill="white"/>
<path d="M136.348 159.193H166.219C165.647 155.54 163.298 156.183 162.986 150.52C162.83 147.684 165.472 144.14 165.241 140.396C165.052 137.31 162.012 134.148 161.776 130.617C161.563 127.432 164.139 123.896 163.908 120.465C163.667 117.223 160.599 114.108 160.311 110.733C160.046 107.425 162.589 103.875 162.287 100.548C161.984 97.2203 158.85 94.1622 158.505 90.8821C158.16 87.5121 160.623 83.8823 160.245 80.6588C159.848 77.2322 156.615 74.2734 156.175 71.1161C155.703 67.6044 157.976 63.8516 157.442 60.8172C156.785 57.1023 153.325 54.4129 152.597 51.6716C151.241 46.5623 151.411 41.6421 149.809 41.3207C148.103 40.9804 147.71 45.8061 146.415 51.1989C145.763 53.9072 142.384 56.6532 141.826 60.373C141.377 63.3837 143.768 67.0467 143.376 70.5442C143.026 73.6779 139.874 76.6886 139.567 80.0964C139.278 83.3009 141.835 86.8315 141.585 90.1826C141.339 93.4391 138.276 96.5444 138.073 99.8529C137.87 103.161 140.498 106.621 140.318 109.887C140.134 113.233 137.132 116.395 136.976 119.614C136.816 123.022 139.505 126.458 139.373 129.615C139.226 133.118 136.267 136.322 136.159 139.385C136.026 143.1 138.754 146.526 138.669 149.358C138.489 155.502 135.677 154.221 135.577 159.165L136.348 159.193Z" fill="#B0BEC5"/>
<path d="M149.171 51.1377V157.813" stroke="black" stroke-width="0.25" stroke-miterlimit="10"/>
<path d="M153.836 62.3199L148.972 66.5217L144.993 61.2139" stroke="black" stroke-width="0.25" stroke-miterlimit="10"/>
<path d="M153.836 80.8902L148.972 85.0872L144.993 79.7842" stroke="black" stroke-width="0.25" stroke-miterlimit="10"/>
<path d="M153.836 98.3501L148.972 102.552L144.993 97.2441" stroke="black" stroke-width="0.25" stroke-miterlimit="10"/>
<path d="M153.836 119.132L148.972 123.329L144.993 118.026" stroke="black" stroke-width="0.25" stroke-miterlimit="10"/>
<path d="M153.836 140.131L148.972 144.328L144.993 139.025" stroke="black" stroke-width="0.25" stroke-miterlimit="10"/>
<path d="M116.001 159.193H139.061C138.617 156.357 136.806 156.867 136.565 152.5C136.442 150.298 138.479 147.575 138.305 144.683C138.158 142.319 135.814 139.857 135.629 137.12C135.464 134.663 137.468 131.921 137.274 129.284C137.09 126.779 134.712 124.378 134.5 121.774C134.287 119.169 136.258 116.475 136.026 113.909C135.795 111.342 133.37 108.979 133.115 106.451C132.85 103.846 134.75 101.048 134.457 98.5527C134.15 95.9106 131.654 93.6277 131.319 91.1936C130.941 88.4806 132.708 85.5833 132.293 83.2438C131.787 80.3748 129.116 78.2952 128.559 76.1825C127.509 72.2406 127.642 68.4358 126.403 68.1901C125.085 67.9254 124.782 71.6498 123.785 75.8185C123.284 77.9076 120.67 80.0298 120.24 82.9082C119.895 85.2336 121.738 88.06 121.436 90.7588C121.167 93.1787 118.737 95.4852 118.496 98.132C118.274 100.604 120.25 103.331 120.056 105.916C119.867 108.431 117.508 110.827 117.343 113.38C117.177 115.932 119.233 118.607 119.077 121.126C118.921 123.645 116.62 126.15 116.502 128.636C116.374 131.264 118.449 133.916 118.35 136.355C118.236 139.058 115.953 141.554 115.868 143.917C115.764 146.781 117.872 149.433 117.806 151.612C117.664 156.338 115.495 155.369 115.419 159.174L116.001 159.193Z" fill="#B0BEC5"/>
<path d="M125.902 75.7861V158.13" stroke="black" stroke-width="0.25" stroke-miterlimit="10"/>
<path d="M129.499 84.416L125.746 87.6584L122.674 83.5605" stroke="black" stroke-width="0.25" stroke-miterlimit="10"/>
<path d="M129.499 98.7473L125.746 101.99L122.674 97.8965" stroke="black" stroke-width="0.25" stroke-miterlimit="10"/>
<path d="M129.499 112.227L125.746 115.469L122.674 111.376" stroke="black" stroke-width="0.25" stroke-miterlimit="10"/>
<path d="M129.499 128.269L125.746 131.511L122.674 127.413" stroke="black" stroke-width="0.25" stroke-miterlimit="10"/>
<path d="M129.499 144.48L125.746 147.717L122.674 143.624" stroke="black" stroke-width="0.25" stroke-miterlimit="10"/>
<path d="M95.4452 158.97V63.4111H100.488V158.97" fill="#2E353A"/>
<path d="M95.4452 158.97V63.4111H100.488V158.97" stroke="#2E353A" stroke-width="0.25" stroke-linecap="round" stroke-linejoin="round"/>
<path d="M92.926 158.97V63.4111H97.9691V158.97" fill="#B0BEC5"/>
<path d="M92.926 158.97V63.4111H97.9691V158.97" stroke="#2E353A" stroke-width="0.25" stroke-linecap="round" stroke-linejoin="round"/>
<g style="mix-blend-mode:multiply" opacity="0.3">
<path d="M97.9691 63.4111H92.926V74.7546H97.9691V63.4111Z" fill="#2E353A"/>
</g>
<path d="M114.446 26.1055H77.0783L93.3656 66.11H130.738V42.3928C130.738 40.2535 130.316 38.1352 129.497 36.1588C128.679 34.1824 127.478 32.3867 125.965 30.8742C124.453 29.3618 122.656 28.1622 120.68 27.3439C118.703 26.5257 116.585 26.1048 114.446 26.1055Z" fill="#B0BEC5" stroke="#2E353A" stroke-width="0.25" stroke-linecap="round" stroke-linejoin="round"/>
<g style="mix-blend-mode:multiply" opacity="0.3">
<path d="M90.5155 59.1059L93.3514 66.1105H130.738V42.3932C130.738 42.034 130.738 41.6748 130.7 41.3203H90.525L90.5155 59.1059Z" fill="black"/>
</g>
<path d="M114.171 41.3203H110.239" stroke="#2E353A" stroke-width="0.25" stroke-linecap="round" stroke-linejoin="round"/>
<path d="M130.7 41.3203H118.799" stroke="#2E353A" stroke-width="0.25" stroke-linecap="round" stroke-linejoin="round"/>
<path d="M77.0782 26.1055C81.3992 26.1055 85.5431 27.8219 88.5985 30.8773C91.6538 33.9326 93.3703 38.0766 93.3703 42.3975V66.1147H60.7862V42.3928C60.7874 38.0727 62.5045 33.9299 65.5597 30.8756C68.6149 27.8213 72.7581 26.1055 77.0782 26.1055Z" fill="#2E353A" stroke="#2E353A" stroke-width="0.25" stroke-linecap="round" stroke-linejoin="round"/>
<path d="M93.3656 63.4111H65.2905V66.1099H93.3656V63.4111Z" fill="#B0BEC5" stroke="#2E353A" stroke-width="0.25" stroke-linecap="round" stroke-linejoin="round"/>
<path d="M93.3656 63.4111H35.2634V66.1099H93.3656V63.4111Z" fill="#B0BEC5" stroke="#2E353A" stroke-width="0.25" stroke-linecap="round" stroke-linejoin="round"/>
<path opacity="0.3" d="M93.3656 63.4111H65.2905V66.1099H93.3656V63.4111Z" fill="black"/>
<path d="M116.875 16.4639H105.215V24.6548H116.875V16.4639Z" fill="#162C51" stroke="#162C51" stroke-width="0.25" stroke-linecap="round" stroke-linejoin="round"/>
<path d="M106.16 16.4639H103.641V41.9866H106.16V16.4639Z" fill="white" stroke="#2E353A" stroke-width="0.25" stroke-linecap="round" stroke-linejoin="round"/>
<path d="M104.898 45.451C106.464 45.451 107.734 44.1814 107.734 42.6152C107.734 41.049 106.464 39.7793 104.898 39.7793C103.332 39.7793 102.062 41.049 102.062 42.6152C102.062 44.1814 103.332 45.451 104.898 45.451Z" fill="#2E353A" stroke="#2E353A" stroke-width="0.25" stroke-linecap="round" stroke-linejoin="round"/>
<path d="M63.3101 32.6572C69.8893 35.9988 81.3273 41.3539 91.8767 44.0479" stroke="white" stroke-width="0.25" stroke-linecap="round" stroke-linejoin="round" stroke-dasharray="0.5 1"/>
<path d="M57.7896 29.75C57.7896 29.75 59.8976 30.9411 63.3101 32.6757" stroke="#2E353A" stroke-width="0.25" stroke-linecap="round" stroke-linejoin="round" stroke-dasharray="0.5 1"/>
<path d="M55.4217 29.5758L60.1528 18.3363L25.8436 9.96582L55.4217 29.5758Z" fill="white" stroke="#2E353A" stroke-width="0.315725" stroke-linecap="round" stroke-linejoin="round"/>
<path d="M57.7282 19.6976L55.4216 29.5758L25.8436 9.96582L57.7282 19.6976Z" fill="#4285F4" stroke="#2E353A" stroke-width="0.315725" stroke-linecap="round" stroke-linejoin="round"/>
<path d="M57.7282 19.6976L52.3447 24.3106L25.8436 9.96582L57.7282 19.6976Z" fill="white" stroke="#2E353A" stroke-width="0.315725" stroke-linecap="round" stroke-linejoin="round"/>
<path d="M60.1528 18.3363L64.9454 16.389L25.8436 9.96582L60.1528 18.3363Z" fill="white" stroke="#2E353A" stroke-width="0.315725" stroke-linecap="round" stroke-linejoin="round"/>
<path d="M48.7574 27.8271L49.8681 28.5078" stroke="#2E353A" stroke-width="0.25" stroke-linecap="round" stroke-linejoin="round"/>
<path d="M42.6981 24.1123L46.4178 26.3904" stroke="#2E353A" stroke-width="0.25" stroke-linecap="round" stroke-linejoin="round"/>
<path d="M38.5199 51.0899V38.9004L73.3916 44.5059L38.5199 51.0899Z" fill="white" stroke="#2E353A" stroke-width="0.315725" stroke-linecap="round" stroke-linejoin="round"/>
<path d="M40.2261 41.0938L38.5199 51.0902L73.3916 44.5062L40.2261 41.0938Z" fill="#B0BEC5" stroke="#2E353A" stroke-width="0.315725" stroke-linecap="round" stroke-linejoin="round"/>
<path d="M40.2261 41.0938L43.3976 47.4319L73.3916 44.5062L40.2261 41.0938Z" fill="white" stroke="#2E353A" stroke-width="0.315725" stroke-linecap="round" stroke-linejoin="round"/>
<path d="M38.5199 38.9014L34.8616 35.2432L73.3916 44.507L38.5199 38.9014Z" fill="white" stroke="#2E353A" stroke-width="0.315725" stroke-linecap="round" stroke-linejoin="round"/>
<path d="M51.0072 50.8635L54.0321 50.249" stroke="#2E353A" stroke-width="0.25" stroke-linecap="round" stroke-linejoin="round"/>
<path d="M40.3821 53.0241L47.987 51.4785" stroke="#2E353A" stroke-width="0.25" stroke-linecap="round" stroke-linejoin="round"/>
<path d="M34.3181 50.3389C34.3181 50.3389 6.90471 55.0653 1.70562 79.6428C-3.49347 104.22 23.9199 105.638 28.6464 93.8221C33.3728 82.006 12.5764 77.2795 7.85 88.623C3.12356 99.9664 17.3029 119.345 36.6813 120.29C52.7843 121.075 97.9313 102.278 126.011 97.5276C126.011 97.5276 146.807 91.7708 178.947 93.0328" stroke="#2E353A" stroke-width="0.25" stroke-linecap="round" stroke-linejoin="round" stroke-dasharray="0.5 1"/>
<path d="M169.65 127.38H177.529" stroke="#2E353A" stroke-width="0.25" stroke-linecap="round" stroke-linejoin="round"/>
<path d="M169.65 139.035H177.529" stroke="#2E353A" stroke-width="0.25" stroke-linecap="round" stroke-linejoin="round"/>
<path d="M3.75215 138.724H168.705V127.692H3.75215" fill="white"/>
<path d="M3.75215 138.724H168.705V127.692H3.75215" stroke="#2E353A" stroke-width="0.25" stroke-linecap="round" stroke-linejoin="round"/>
<path d="M15.2185 159.047V103.549C15.2186 103.413 15.2463 103.279 15.2999 103.154C15.3535 103.028 15.432 102.916 15.5305 102.822L19.841 98.7616C20.0351 98.5801 20.2931 98.4827 20.5587 98.4907C20.8243 98.4987 21.076 98.6113 21.2589 98.8041L25.0401 102.826C25.2116 103.014 25.3076 103.258 25.3095 103.512V159.047" fill="#2E353A"/>
<path d="M15.2185 159.047V103.549C15.2186 103.413 15.2463 103.279 15.2999 103.154C15.3535 103.028 15.432 102.916 15.5305 102.822L19.841 98.7616C20.0351 98.5801 20.2931 98.4827 20.5587 98.4907C20.8243 98.4987 21.076 98.6113 21.2589 98.8041L25.0401 102.826C25.2116 103.014 25.3076 103.258 25.3095 103.512V159.047" stroke="#2E353A" stroke-width="0.25" stroke-linecap="round" stroke-linejoin="round"/>
<path d="M13.9944 159.52V103.549C13.9942 103.413 14.0223 103.278 14.0768 103.152C14.1313 103.027 14.211 102.915 14.311 102.822L18.6216 98.7616C18.7174 98.6711 18.8301 98.6005 18.9533 98.5537C19.0764 98.5069 19.2076 98.4848 19.3393 98.4887C19.4711 98.4927 19.6007 98.5226 19.7208 98.5767C19.841 98.6308 19.9493 98.7081 20.0395 98.8041L23.8206 102.826C23.9942 103.012 24.0905 103.257 24.09 103.512V159.52" fill="white"/>
<path d="M13.9944 159.52V103.549C13.9942 103.413 14.0223 103.278 14.0768 103.152C14.1313 103.027 14.211 102.915 14.311 102.822L18.6216 98.7616C18.7174 98.6711 18.8301 98.6005 18.9533 98.5537C19.0764 98.5069 19.2076 98.4848 19.3393 98.4887C19.4711 98.4927 19.6007 98.5226 19.7208 98.5767C19.841 98.6308 19.9493 98.7081 20.0395 98.8041L23.8206 102.826C23.9942 103.012 24.0905 103.257 24.09 103.512V159.52" stroke="#2E353A" stroke-width="0.25" stroke-linecap="round" stroke-linejoin="round"/>
<path d="M51.5649 159.047V103.549C51.565 103.413 51.5927 103.279 51.6463 103.154C51.6999 103.028 51.7783 102.916 51.8768 102.822L56.1921 98.7616C56.2879 98.6711 56.4006 98.6005 56.5238 98.5537C56.647 98.5069 56.7781 98.4848 56.9099 98.4887C57.0416 98.4927 57.1712 98.5226 57.2913 98.5767C57.4115 98.6308 57.5198 98.7081 57.61 98.8041L61.3911 102.826C61.5647 103.012 61.661 103.257 61.6606 103.512V159.047" fill="#2E353A"/>
<path d="M51.5649 159.047V103.549C51.565 103.413 51.5927 103.279 51.6463 103.154C51.6999 103.028 51.7783 102.916 51.8768 102.822L56.1921 98.7616C56.2879 98.6711 56.4006 98.6005 56.5238 98.5537C56.647 98.5069 56.7781 98.4848 56.9099 98.4887C57.0416 98.4927 57.1712 98.5226 57.2913 98.5767C57.4115 98.6308 57.5198 98.7081 57.61 98.8041L61.3911 102.826C61.5647 103.012 61.661 103.257 61.6606 103.512V159.047" stroke="#2E353A" stroke-width="0.25" stroke-linecap="round" stroke-linejoin="round"/>
<path d="M50.544 159.52V103.549C50.5438 103.413 50.5719 103.278 50.6264 103.152C50.6809 103.027 50.7606 102.915 50.8606 102.822L55.1711 98.7616C55.3653 98.5801 55.6233 98.4827 55.8889 98.4907C56.1545 98.4987 56.4062 98.6113 56.5891 98.8041L60.3702 102.826C60.5451 103.012 60.6431 103.257 60.6444 103.512V159.52" fill="white"/>
<path d="M50.544 159.52V103.549C50.5438 103.413 50.5719 103.278 50.6264 103.152C50.6809 103.027 50.7606 102.915 50.8606 102.822L55.1711 98.7616C55.3653 98.5801 55.6233 98.4827 55.8889 98.4907C56.1545 98.4987 56.4062 98.6113 56.5891 98.8041L60.3702 102.826C60.5451 103.012 60.6431 103.257 60.6444 103.512V159.52" stroke="#2E353A" stroke-width="0.25" stroke-linecap="round" stroke-linejoin="round"/>
<path d="M88.1145 159.047V103.549C88.1143 103.413 88.1424 103.278 88.1969 103.152C88.2514 103.027 88.3311 102.915 88.4311 102.822L92.7417 98.7616C92.9358 98.5801 93.1938 98.4827 93.4594 98.4907C93.725 98.4987 93.9767 98.6113 94.1596 98.8041L97.9407 102.826C98.1156 103.012 98.2136 103.257 98.2149 103.512V159.52" fill="#2E353A"/>
<path d="M88.1145 159.047V103.549C88.1143 103.413 88.1424 103.278 88.1969 103.152C88.2514 103.027 88.3311 102.915 88.4311 102.822L92.7417 98.7616C92.9358 98.5801 93.1938 98.4827 93.4594 98.4907C93.725 98.4987 93.9767 98.6113 94.1596 98.8041L97.9407 102.826C98.1156 103.012 98.2136 103.257 98.2149 103.512V159.52" stroke="#2E353A" stroke-width="0.25" stroke-linecap="round" stroke-linejoin="round"/>
<path d="M87.0983 159.52V103.549C87.0984 103.413 87.1261 103.279 87.1797 103.154C87.2333 103.028 87.3117 102.916 87.4102 102.822L91.7255 98.7616C91.8213 98.6711 91.934 98.6005 92.0572 98.5537C92.1804 98.5069 92.3116 98.4848 92.4433 98.4887C92.575 98.4927 92.7046 98.5226 92.8247 98.5767C92.9449 98.6308 93.0532 98.7081 93.1434 98.8041L96.9246 102.826C97.0981 103.012 97.1944 103.257 97.194 103.512V159.52" fill="white"/>
<path d="M87.0983 159.52V103.549C87.0984 103.413 87.1261 103.279 87.1797 103.154C87.2333 103.028 87.3117 102.916 87.4102 102.822L91.7255 98.7616C91.8213 98.6711 91.934 98.6005 92.0572 98.5537C92.1804 98.5069 92.3116 98.4848 92.4433 98.4887C92.575 98.4927 92.7046 98.5226 92.8247 98.5767C92.9449 98.6308 93.0532 98.7081 93.1434 98.8041L96.9246 102.826C97.0981 103.012 97.1944 103.257 97.194 103.512V159.52" stroke="#2E353A" stroke-width="0.25" stroke-linecap="round" stroke-linejoin="round"/>
<path d="M124.669 159.047V103.549C124.669 103.413 124.697 103.279 124.75 103.154C124.804 103.028 124.882 102.916 124.981 102.822L129.291 98.7616C129.485 98.5801 129.743 98.4827 130.009 98.4907C130.275 98.4987 130.526 98.6113 130.709 98.8041L134.49 102.826C134.662 103.014 134.758 103.258 134.76 103.512V159.047" fill="#2E353A"/>
<path d="M124.669 159.047V103.549C124.669 103.413 124.697 103.279 124.75 103.154C124.804 103.028 124.882 102.916 124.981 102.822L129.291 98.7616C129.485 98.5801 129.743 98.4827 130.009 98.4907C130.275 98.4987 130.526 98.6113 130.709 98.8041L134.49 102.826C134.662 103.014 134.758 103.258 134.76 103.512V159.047" stroke="#2E353A" stroke-width="0.25" stroke-linecap="round" stroke-linejoin="round"/>
<path d="M123.648 159.52V103.549C123.648 103.413 123.676 103.278 123.73 103.152C123.785 103.027 123.865 102.915 123.965 102.822L128.275 98.7616C128.371 98.6711 128.484 98.6005 128.607 98.5537C128.73 98.5069 128.861 98.4848 128.993 98.4887C129.125 98.4927 129.254 98.5226 129.374 98.5767C129.494 98.6308 129.603 98.7081 129.693 98.8041L133.474 102.826C133.648 103.012 133.744 103.257 133.744 103.512V159.52" fill="white"/>
<path d="M123.648 159.52V103.549C123.648 103.413 123.676 103.278 123.73 103.152C123.785 103.027 123.865 102.915 123.965 102.822L128.275 98.7616C128.371 98.6711 128.484 98.6005 128.607 98.5537C128.73 98.5069 128.861 98.4848 128.993 98.4887C129.125 98.4927 129.254 98.5226 129.374 98.5767C129.494 98.6308 129.603 98.7081 129.693 98.8041L133.474 102.826C133.648 103.012 133.744 103.257 133.744 103.512V159.52" stroke="#2E353A" stroke-width="0.25" stroke-linecap="round" stroke-linejoin="round"/>
<path d="M161.218 159.047V103.549C161.218 103.413 161.246 103.279 161.3 103.154C161.353 103.028 161.432 102.916 161.53 102.822L165.846 98.7616C165.941 98.6711 166.054 98.6005 166.177 98.5537C166.3 98.5069 166.432 98.4848 166.563 98.4887C166.695 98.4927 166.825 98.5226 166.945 98.5767C167.065 98.6308 167.173 98.7081 167.264 98.8041L171.045 102.826C171.218 103.012 171.315 103.257 171.314 103.512V159.047" fill="#2E353A"/>
<path d="M161.218 159.047V103.549C161.218 103.413 161.246 103.279 161.3 103.154C161.353 103.028 161.432 102.916 161.53 102.822L165.846 98.7616C165.941 98.6711 166.054 98.6005 166.177 98.5537C166.3 98.5069 166.432 98.4848 166.563 98.4887C166.695 98.4927 166.825 98.5226 166.945 98.5767C167.065 98.6308 167.173 98.7081 167.264 98.8041L171.045 102.826C171.218 103.012 171.315 103.257 171.314 103.512V159.047" stroke="#2E353A" stroke-width="0.25" stroke-linecap="round" stroke-linejoin="round"/>
<path d="M160.197 159.52V103.549C160.197 103.413 160.225 103.278 160.28 103.152C160.334 103.027 160.414 102.915 160.514 102.822L164.825 98.7616C165.019 98.5801 165.277 98.4827 165.542 98.4907C165.808 98.4987 166.06 98.6113 166.243 98.8041L170.024 102.826C170.199 103.012 170.297 103.257 170.298 103.512V159.52" fill="white"/>
<path d="M160.197 159.52V103.549C160.197 103.413 160.225 103.278 160.28 103.152C160.334 103.027 160.414 102.915 160.514 102.822L164.825 98.7616C165.019 98.5801 165.277 98.4827 165.542 98.4907C165.808 98.4987 166.06 98.6113 166.243 98.8041L170.024 102.826C170.199 103.012 170.297 103.257 170.298 103.512V159.52" stroke="#2E353A" stroke-width="0.25" stroke-linecap="round" stroke-linejoin="round"/>
<path d="M20.0348 98.8047V102.851" stroke="#2E353A" stroke-width="0.25" stroke-linecap="round" stroke-linejoin="round"/>
<path d="M21.6559 100.894V110.469" stroke="#2E353A" stroke-width="0.25" stroke-linecap="round" stroke-linejoin="round"/>
<path d="M52.5338 101.678V113.792" stroke="#2E353A" stroke-width="0.25" stroke-linecap="round" stroke-linejoin="round"/>
<path d="M54.0982 100.113V105.388" stroke="#2E353A" stroke-width="0.25" stroke-linecap="round" stroke-linejoin="round"/>
<path d="M91.7254 98.7617V110.668" stroke="#2E353A" stroke-width="0.25" stroke-linecap="round" stroke-linejoin="round"/>
<path d="M93.9705 99.7207V117.312" stroke="#2E353A" stroke-width="0.25" stroke-linecap="round" stroke-linejoin="round"/>
<path d="M125.434 101.678V114.964" stroke="#2E353A" stroke-width="0.25" stroke-linecap="round" stroke-linejoin="round"/>
<path d="M130.515 100.113V103.436" stroke="#2E353A" stroke-width="0.25" stroke-linecap="round" stroke-linejoin="round"/>
<path d="M163.544 99.915V106.953" stroke="#2E353A" stroke-width="0.25" stroke-linecap="round" stroke-linejoin="round"/>
<path d="M167.845 100.699V121.023" stroke="#2E353A" stroke-width="0.25" stroke-linecap="round" stroke-linejoin="round"/>
<path d="M160.027 130.405H155.726" stroke="#2E353A" stroke-width="0.25" stroke-linecap="round" stroke-linejoin="round"/>
<path d="M160.027 133.728H144.978" stroke="#2E353A" stroke-width="0.25" stroke-linecap="round" stroke-linejoin="round"/>
<path d="M103.934 133.728H97.0947" stroke="#2E353A" stroke-width="0.25" stroke-linecap="round" stroke-linejoin="round"/>
<path d="M67.9751 133.728H61.1359" stroke="#2E353A" stroke-width="0.25" stroke-linecap="round" stroke-linejoin="round"/>
<path d="M13.8384 131.97H6.99921" stroke="#2E353A" stroke-width="0.25" stroke-linecap="round" stroke-linejoin="round"/>
<path d="M13.8384 135.094H11.1018" stroke="#2E353A" stroke-width="0.25" stroke-linecap="round" stroke-linejoin="round"/>
<path d="M100.417 131.97H97.0947" stroke="#2E353A" stroke-width="0.25" stroke-linecap="round" stroke-linejoin="round"/>
<path d="M64.0663 135.68H60.7436" stroke="#2E353A" stroke-width="0.25" stroke-linecap="round" stroke-linejoin="round"/>
<path d="M50.1895 135.68H46.8668" stroke="#2E353A" stroke-width="0.25" stroke-linecap="round" stroke-linejoin="round"/>
<path d="M173.313 133.728H170.383" stroke="#2E353A" stroke-width="0.25" stroke-linecap="round" stroke-linejoin="round"/>
<path d="M177.222 133.728H175.464" stroke="#2E353A" stroke-width="0.25" stroke-linecap="round" stroke-linejoin="round"/>
<path d="M23.9199 113.409C23.9199 113.409 22.7383 123.566 21.3203 133.96C19.9024 144.353 22.502 154.988 23.2109 155.933" stroke="#2E353A" stroke-width="0.25" stroke-linecap="round" stroke-linejoin="round"/>
<path d="M19.2454 133.969C19.4723 131.941 19.6614 130.66 19.6614 130.66" stroke="#2E353A" stroke-width="0.25" stroke-linecap="round" stroke-linejoin="round"/>
<path d="M22.7336 154.751C22.7336 154.751 18.4798 153.805 18.4798 146.243C18.4798 143.138 18.6783 139.957 18.9146 137.263" stroke="#2E353A" stroke-width="0.25" stroke-linecap="round" stroke-linejoin="round"/>
<path d="M58.4229 101.356C58.4229 101.356 59.3682 102.065 57.714 110.1C56.0597 118.135 56.296 129.951 58.4229 136.568" stroke="#2E353A" stroke-width="0.25" stroke-linecap="round" stroke-linejoin="round"/>
<path d="M60.7862 116.245C60.7862 116.245 58.4229 123.335 60.0772 133.26" stroke="#2E353A" stroke-width="0.25" stroke-linecap="round" stroke-linejoin="round"/>
<path d="M87.7269 120.729C87.7269 120.729 88.9085 127.583 90.0901 134.668C91.2717 141.753 90.3264 151.683 89.3811 154.278C88.4359 156.873 87.4906 159.004 87.4906 159.004" stroke="#2E353A" stroke-width="0.25" stroke-linecap="round" stroke-linejoin="round"/>
<path d="M92.1792 155.531C91.1252 158.764 89.816 154.987 89.816 154.987" stroke="#2E353A" stroke-width="0.25" stroke-linecap="round" stroke-linejoin="round"/>
<path d="M92.1367 131.369C92.1367 131.369 94.3628 142.859 93.1056 151.508" stroke="#2E353A" stroke-width="0.25" stroke-linecap="round" stroke-linejoin="round"/>
<path d="M87.2543 135.15C87.2543 135.15 89.6175 140.113 87.4906 144.84" stroke="#2E353A" stroke-width="0.25" stroke-linecap="round" stroke-linejoin="round"/>
<path d="M131.352 135.85C131.668 137.294 132.084 138.716 132.595 140.103" stroke="#2E353A" stroke-width="0.25" stroke-linecap="round" stroke-linejoin="round"/>
<path d="M133.304 111.282C131.804 116.042 130.853 120.958 130.468 125.934C130.327 128.452 130.468 130.977 130.889 133.463" stroke="#2E353A" stroke-width="0.25" stroke-linecap="round" stroke-linejoin="round"/>
<path d="M128.814 133.014C128.814 133.014 130.941 141.049 132.122 143.884C133.304 146.72 132.831 153.569 131.413 156.877" stroke="#2E353A" stroke-width="0.25" stroke-linecap="round" stroke-linejoin="round"/>
<path d="M160.708 114.826C160.708 114.826 165.434 123.334 160.944 137.272" stroke="#2E353A" stroke-width="0.25" stroke-linecap="round" stroke-linejoin="round"/>
<path d="M165.052 129.355C165.08 132.012 164.844 135.377 163.78 138.213C161.653 143.885 160.708 145.775 160.708 145.775" stroke="#2E353A" stroke-width="0.25" stroke-linecap="round" stroke-linejoin="round"/>
<path d="M164.725 124.752C164.725 124.752 164.881 125.768 164.976 127.333" stroke="#2E353A" stroke-width="0.25" stroke-linecap="round" stroke-linejoin="round"/>
</svg>
