<svg width="33" height="32" viewBox="0 0 33 32" fill="none" xmlns="http://www.w3.org/2000/svg">
<path d="M16.4989 29.9978C25.8333 29.9978 30.4978 23.7303 30.4978 15.9989C30.4978 8.26751 25.8333 2 16.4989 2C7.16443 2 2.5 8.26751 2.5 15.9989C2.5 23.7303 7.16443 29.9978 16.4989 29.9978Z" fill="url(#paint0_radial_1374_354)"/>
<path d="M16.4989 29.9978C25.8333 29.9978 30.4978 23.7303 30.4978 15.9989C30.4978 8.26751 25.8333 2 16.4989 2C7.16443 2 2.5 8.26751 2.5 15.9989C2.5 23.7303 7.16443 29.9978 16.4989 29.9978Z" fill="url(#paint1_radial_1374_354)"/>
<path d="M16.4989 29.9978C25.8333 29.9978 30.4978 23.7303 30.4978 15.9989C30.4978 8.26751 25.8333 2 16.4989 2C7.16443 2 2.5 8.26751 2.5 15.9989C2.5 23.7303 7.16443 29.9978 16.4989 29.9978Z" fill="url(#paint2_radial_1374_354)" fill-opacity="0.6"/>
<path d="M16.4989 29.9978C25.8333 29.9978 30.4978 23.7303 30.4978 15.9989C30.4978 8.26751 25.8333 2 16.4989 2C7.16443 2 2.5 8.26751 2.5 15.9989C2.5 23.7303 7.16443 29.9978 16.4989 29.9978Z" fill="url(#paint3_radial_1374_354)"/>
<path d="M16.4989 29.9978C25.8333 29.9978 30.4978 23.7303 30.4978 15.9989C30.4978 8.26751 25.8333 2 16.4989 2C7.16443 2 2.5 8.26751 2.5 15.9989C2.5 23.7303 7.16443 29.9978 16.4989 29.9978Z" fill="url(#paint4_radial_1374_354)"/>
<path d="M16.4989 29.9978C25.8333 29.9978 30.4978 23.7303 30.4978 15.9989C30.4978 8.26751 25.8333 2 16.4989 2C7.16443 2 2.5 8.26751 2.5 15.9989C2.5 23.7303 7.16443 29.9978 16.4989 29.9978Z" fill="url(#paint5_radial_1374_354)"/>
<path d="M16.4989 29.9978C25.8333 29.9978 30.4978 23.7303 30.4978 15.9989C30.4978 8.26751 25.8333 2 16.4989 2C7.16443 2 2.5 8.26751 2.5 15.9989C2.5 23.7303 7.16443 29.9978 16.4989 29.9978Z" fill="url(#paint6_radial_1374_354)"/>
<path d="M16.4989 29.9978C25.8333 29.9978 30.4978 23.7303 30.4978 15.9989C30.4978 8.26751 25.8333 2 16.4989 2C7.16443 2 2.5 8.26751 2.5 15.9989C2.5 23.7303 7.16443 29.9978 16.4989 29.9978Z" fill="url(#paint7_radial_1374_354)"/>
<path d="M16.4989 29.9978C25.8333 29.9978 30.4978 23.7303 30.4978 15.9989C30.4978 8.26751 25.8333 2 16.4989 2C7.16443 2 2.5 8.26751 2.5 15.9989C2.5 23.7303 7.16443 29.9978 16.4989 29.9978Z" fill="url(#paint8_radial_1374_354)"/>
<path d="M16.4989 29.9978C25.8333 29.9978 30.4978 23.7303 30.4978 15.9989C30.4978 8.26751 25.8333 2 16.4989 2C7.16443 2 2.5 8.26751 2.5 15.9989C2.5 23.7303 7.16443 29.9978 16.4989 29.9978Z" fill="url(#paint9_radial_1374_354)"/>
<path d="M16.4989 29.9978C25.8333 29.9978 30.4978 23.7303 30.4978 15.9989C30.4978 8.26751 25.8333 2 16.4989 2C7.16443 2 2.5 8.26751 2.5 15.9989C2.5 23.7303 7.16443 29.9978 16.4989 29.9978Z" fill="url(#paint10_radial_1374_354)"/>
<path d="M10.9191 16.2244C13.242 16.2244 15.1251 14.3414 15.1251 12.0185C15.1251 9.69557 13.242 7.8125 10.9191 7.8125C8.59621 7.8125 6.71313 9.69557 6.71313 12.0185C6.71313 14.3414 8.59621 16.2244 10.9191 16.2244Z" fill="white"/>
<path d="M22.0683 16.3011C24.4123 16.3011 26.3126 14.4009 26.3126 12.0568C26.3126 9.71274 24.4123 7.8125 22.0683 7.8125C19.7242 7.8125 17.824 9.71274 17.824 12.0568C17.824 14.4009 19.7242 16.3011 22.0683 16.3011Z" fill="white"/>
<path fill-rule="evenodd" clip-rule="evenodd" d="M10.9001 18.2001C11.3419 17.8687 11.9687 17.9582 12.3001 18.4001C12.6094 18.8125 14.0118 20.0001 16.5001 20.0001C18.9883 20.0001 20.3907 18.8125 20.7001 18.4001C21.0314 17.9582 21.6582 17.8687 22.1001 18.2001C22.5419 18.5314 22.6314 19.1582 22.3001 19.6001C21.6094 20.5209 19.6118 22.0001 16.5001 22.0001C13.3883 22.0001 11.3907 20.5209 10.7001 19.6001C10.3687 19.1582 10.4582 18.5314 10.9001 18.2001Z" fill="url(#paint11_radial_1374_354)"/>
<path fill-rule="evenodd" clip-rule="evenodd" d="M11.5 14C12.6046 14 13.5 13.1046 13.5 12C13.5 10.8954 12.6046 10 11.5 10C10.3954 10 9.5 10.8954 9.5 12C9.5 13.1046 10.3954 14 11.5 14ZM21.5 14C22.6046 14 23.5 13.1046 23.5 12C23.5 10.8954 22.6046 10 21.5 10C20.3954 10 19.5 10.8954 19.5 12C19.5 13.1046 20.3954 14 21.5 14Z" fill="url(#paint12_linear_1374_354)"/>
<defs>
<radialGradient id="paint0_radial_1374_354" cx="0" cy="0" r="1" gradientUnits="userSpaceOnUse" gradientTransform="translate(26 9) rotate(131.878) scale(38.9487)">
<stop stop-color="#FFF478"/>
<stop offset="0.474827" stop-color="#FFB02E"/>
<stop offset="1" stop-color="#F70A8D"/>
</radialGradient>
<radialGradient id="paint1_radial_1374_354" cx="0" cy="0" r="1" gradientUnits="userSpaceOnUse" gradientTransform="translate(16.5 12.5) rotate(101.31) scale(17.8466 22.8581)">
<stop offset="0.787821" stop-color="#F59639" stop-opacity="0"/>
<stop offset="0.972509" stop-color="#FF7DCE"/>
</radialGradient>
<radialGradient id="paint2_radial_1374_354" cx="0" cy="0" r="1" gradientUnits="userSpaceOnUse" gradientTransform="translate(18.5 14) rotate(135) scale(41.0122)">
<stop offset="0.314853" stop-opacity="0"/>
<stop offset="1"/>
</radialGradient>
<radialGradient id="paint3_radial_1374_354" cx="0" cy="0" r="1" gradientUnits="userSpaceOnUse" gradientTransform="translate(16.5 17) rotate(77.692) scale(28.1469)">
<stop offset="0.507903" stop-color="#7D6133" stop-opacity="0"/>
<stop offset="1" stop-color="#715B32"/>
</radialGradient>
<radialGradient id="paint4_radial_1374_354" cx="0" cy="0" r="1" gradientUnits="userSpaceOnUse" gradientTransform="translate(17 16.5) rotate(55.7131) scale(13.3135 9.65032)">
<stop stop-color="#FFB849"/>
<stop offset="1" stop-color="#FFB847" stop-opacity="0"/>
</radialGradient>
<radialGradient id="paint5_radial_1374_354" cx="0" cy="0" r="1" gradientUnits="userSpaceOnUse" gradientTransform="translate(21 18) rotate(9.86581) scale(11.6726)">
<stop stop-color="#FFA64B"/>
<stop offset="0.900412" stop-color="#FFAE46" stop-opacity="0"/>
</radialGradient>
<radialGradient id="paint6_radial_1374_354" cx="0" cy="0" r="1" gradientUnits="userSpaceOnUse" gradientTransform="translate(18 15) rotate(43.9708) scale(59.0529)">
<stop offset="0.185425" stop-opacity="0"/>
<stop offset="1" stop-opacity="0.4"/>
</radialGradient>
<radialGradient id="paint7_radial_1374_354" cx="0" cy="0" r="1" gradientUnits="userSpaceOnUse" gradientTransform="translate(10.1071 12.5548) rotate(101.574) scale(4.74729)">
<stop offset="0.177535" stop-color="#392108"/>
<stop offset="1" stop-color="#C87928" stop-opacity="0"/>
</radialGradient>
<radialGradient id="paint8_radial_1374_354" cx="0" cy="0" r="1" gradientUnits="userSpaceOnUse" gradientTransform="translate(20.8766 11.8455) rotate(124.895) scale(4.01162)">
<stop offset="0.10085" stop-color="#392108"/>
<stop offset="1" stop-color="#C87928" stop-opacity="0"/>
</radialGradient>
<radialGradient id="paint9_radial_1374_354" cx="0" cy="0" r="1" gradientUnits="userSpaceOnUse" gradientTransform="translate(21.8236 12.7857) rotate(107.802) scale(3.9775)">
<stop offset="0.359039" stop-color="#C84E28"/>
<stop offset="1" stop-color="#C84528" stop-opacity="0"/>
</radialGradient>
<radialGradient id="paint10_radial_1374_354" cx="0" cy="0" r="1" gradientUnits="userSpaceOnUse" gradientTransform="translate(10.8844 12.6474) rotate(74.6785) scale(4.23372)">
<stop offset="0.359039" stop-color="#C84E28"/>
<stop offset="1" stop-color="#C84528" stop-opacity="0"/>
</radialGradient>
<radialGradient id="paint11_radial_1374_354" cx="0" cy="0" r="1" gradientUnits="userSpaceOnUse" gradientTransform="translate(16.5001 17.0001) rotate(90) scale(5.5 8.41855)">
<stop offset="0.34763" stop-color="#241A1A"/>
<stop offset="0.628228" stop-color="#57444A"/>
<stop offset="1" stop-color="#4E2553"/>
<stop offset="1" stop-color="#502A56"/>
</radialGradient>
<linearGradient id="paint12_linear_1374_354" x1="16.9375" y1="9.33333" x2="16.4253" y2="14.0395" gradientUnits="userSpaceOnUse">
<stop stop-color="#553B3E"/>
<stop offset="1" stop-color="#3D2432"/>
</linearGradient>
</defs>
</svg>
