<svg width="138" height="75" viewBox="0 0 138 75" fill="none" xmlns="http://www.w3.org/2000/svg">
<path d="M13.9614 69.059C21.2983 69.059 27.246 63.1112 27.246 55.7744C27.246 48.4375 21.2983 42.4897 13.9614 42.4897C6.62449 42.4897 0.676758 48.4375 0.676758 55.7744C0.676758 63.1112 6.62449 69.059 13.9614 69.059Z" fill="#EBEBEB"/>
<path d="M128.067 29.8881C133.179 29.8881 137.323 25.7438 137.323 20.6315C137.323 15.5193 133.179 11.375 128.067 11.375C122.954 11.375 118.81 15.5193 118.81 20.6315C118.81 25.7438 122.954 29.8881 128.067 29.8881Z" fill="#455A64"/>
<path d="M75.8442 40.2742C75.4328 46.3552 73.27 52.1871 69.6168 57.0659C65.9637 61.9446 60.9764 65.6617 55.2571 67.7682L55.0206 67.8099L54.9024 67.8308C50.8998 69.258 46.6453 69.8422 42.4062 69.5466C41.0286 69.4652 39.6595 69.2764 38.3112 68.982C38.0761 68.9486 37.8444 68.8942 37.6189 68.8197C37.4123 68.7862 37.2087 68.736 37.0101 68.6697C35.5723 68.3874 34.1671 67.959 32.8164 67.3912C27.4319 65.2429 22.7463 61.6476 19.2775 57.0027C15.8087 52.3578 13.6918 46.8442 13.1608 41.0714C12.6298 35.2985 13.7053 29.4913 16.2686 24.2915C18.8319 19.0918 22.783 14.7021 27.6852 11.6076C32.5874 8.51313 38.2499 6.83442 44.0466 6.75705C49.8433 6.67967 55.5485 8.20664 60.5316 11.1692C65.5146 14.1317 69.5815 18.4144 72.2827 23.5438C74.9838 28.6733 76.214 34.4498 75.8373 40.2348L75.8442 40.2742Z" fill="#37474F"/>
<path d="M53.4712 53.185L53.4294 53.6393C53.4503 53.7575 53.4085 53.9816 53.3969 54.1462C53.3853 54.3107 53.3597 54.857 53.311 55.2719C53.2993 55.897 53.2536 56.6364 53.2651 57.3928C53.2423 57.7082 53.2439 58.0249 53.2696 58.3401C53.2881 58.9057 53.2694 59.4913 53.2972 60.1094C53.3206 60.7876 53.3856 61.4636 53.4916 62.1338C53.5314 62.801 53.6168 63.4647 53.7471 64.1203C53.8078 64.4976 53.9182 64.8653 54.0753 65.2137L54.11 65.4107C54.2884 65.9616 54.6012 66.8139 54.9094 67.8701C50.9068 69.2974 46.6523 69.8815 42.4131 69.586C41.0355 69.5045 39.6664 69.3158 38.3182 69.0214C38.0831 68.9879 37.8514 68.9336 37.6259 68.859C37.4193 68.8255 37.2156 68.7754 37.0171 68.7091C36.7855 67.3955 36.748 64.3412 36.3893 60.6935C36.2296 58.8662 36.0027 56.8882 35.741 54.9434C35.6646 54.5099 35.5998 54.1422 35.5233 53.7087L35.2547 52.185C35.2338 52.0668 35.3188 52.0112 35.437 51.9903C35.8067 51.955 36.1797 52.0001 36.5303 52.1226C36.7798 52.1743 37.0264 52.2393 37.2689 52.3174L38.39 52.377L41.0162 52.5234L52.7364 53.1656L53.105 53.1819L53.4712 53.185Z" fill="#D3766A"/>
<path d="M54.0645 65.2292C54.0645 65.2292 54.0853 65.3475 54.0969 65.4131C53.5213 65.606 52.9308 65.7509 52.3313 65.8463C40.5845 67.7415 36.3687 53.1263 36.3687 53.1263L41.0355 52.4795L53.4271 53.1658C53.0731 56.813 53.1666 60.4898 53.7053 64.1143C53.7901 64.4963 53.9104 64.8695 54.0645 65.2292Z" fill="#263238"/>
<path d="M28.9724 34.2232C28.569 40.7682 36.0072 57.6052 41.284 60.4941C48.9172 64.6875 59.2864 62.7373 62.3759 54.0663C65.3031 45.6271 55.2331 23.8502 49.5398 21.441C41.1516 17.8818 29.5726 24.569 28.9724 34.2232Z" fill="#D3766A"/>
<path d="M47.9242 42.5426C47.9242 42.5426 47.8593 42.6353 47.8817 42.6856C48.4162 43.7967 48.8441 45.2246 47.9655 46.0025C49.2157 45.3351 48.6373 43.5139 47.9242 42.5426Z" fill="#263238"/>
<path d="M46.437 41.789C44.5486 42.4471 45.9914 46.1745 47.7624 45.6184C49.5334 45.0624 48.0064 41.2414 46.437 41.789Z" fill="#263238"/>
<path d="M54.8345 39.5635C54.8345 39.5635 54.9395 39.5449 54.9666 39.6214C55.3767 40.7951 56.0603 42.1373 57.2348 42.0386C57.2348 42.0386 57.2348 42.0386 57.2487 42.1174C55.9096 42.4348 55.0406 40.7325 54.8345 39.5635Z" fill="#263238"/>
<path d="M55.3894 37.9487C57.2013 37.0875 58.7972 40.7608 57.1227 41.5572C55.4483 42.3536 53.8787 38.6756 55.3894 37.9487Z" fill="#263238"/>
<path d="M44.2886 40.6646C44.7232 40.3297 45.1392 39.9715 45.535 39.5916C46.0025 39.1705 46.4275 38.8925 46.586 38.255C46.6196 38.0705 46.5885 37.8801 46.4978 37.7159C46.4072 37.5517 46.2626 37.4239 46.0885 37.3541C45.7291 37.2567 45.3502 37.2576 44.9913 37.3567C44.6323 37.4557 44.3066 37.6492 44.0479 37.917C43.4378 38.3792 43.0207 39.0511 42.8771 39.8029C42.8554 39.9762 42.8841 40.1521 42.96 40.3094C43.0358 40.4667 43.1554 40.5988 43.3044 40.6898C43.4535 40.7808 43.6256 40.8268 43.8002 40.8223C43.9748 40.8179 44.1444 40.7631 44.2886 40.6646Z" fill="#263238"/>
<path d="M56.1647 35.5095C55.613 35.6068 55.0876 35.6994 54.5328 35.7024C53.9659 35.8459 53.3676 35.7991 52.8299 35.5693C52.6732 35.4688 52.5549 35.3182 52.4944 35.1421C52.4338 34.966 52.4345 34.7745 52.4963 34.5988C52.6696 34.267 52.9282 33.9873 53.2454 33.7885C53.5627 33.5898 53.9272 33.4791 54.3014 33.4679C55.056 33.3339 55.8336 33.4811 56.4871 33.8816C56.6312 33.9825 56.7427 34.1231 56.8083 34.2862C56.8739 34.4494 56.8905 34.6281 56.8564 34.8006C56.8222 34.9731 56.7387 35.132 56.6158 35.2578C56.493 35.3837 56.3363 35.4711 56.1647 35.5095Z" fill="#263238"/>
<path d="M50.8597 53.1986C51.2406 53.3617 51.6663 53.6252 52.0905 53.4962C52.5219 53.327 52.9103 53.0642 53.2279 52.7268C53.2279 52.7268 53.3068 52.7129 53.2279 52.7268C53.1489 53.0168 52.9935 53.2803 52.7779 53.4899C52.5623 53.6994 52.2945 53.8473 52.0024 53.9181C51.7433 53.9476 51.4812 53.9005 51.2486 53.7826C51.016 53.6648 50.823 53.4813 50.6936 53.255C50.7307 53.2349 50.8025 53.1816 50.8597 53.1986Z" fill="#263238"/>
<path d="M50.7218 49.2681C51.1925 49.6173 51.73 49.8658 52.301 49.9981C52.8719 50.1305 53.4639 50.1438 54.0402 50.0374C54.5426 49.9457 55.0292 49.7823 55.4852 49.5523L55.7448 49.4117L55.9782 49.2758C56.033 49.2383 56.0747 49.1847 56.0977 49.1224C56.1207 49.0601 56.1238 48.9922 56.1064 48.9281C56.1051 48.8879 56.0981 48.8481 56.0856 48.8099L56.0671 48.7048C55.7473 47.8131 55.1363 46.4988 55.1363 46.4988C55.5203 46.5259 57.4752 46.6281 57.2512 46.1259C55.5912 42.1569 53.5299 38.3679 51.0994 34.8181C51.0105 34.6983 50.8366 34.8644 50.8876 34.9232C52.4154 38.595 54.5699 41.9803 56.1525 45.656C55.4536 45.6095 54.7516 45.6648 54.0686 45.8203C53.9504 45.8411 55.2937 48.313 55.4119 48.7526C54.7115 49.1089 53.9467 49.3205 53.1628 49.375C52.379 49.4294 51.5922 49.3255 50.8493 49.0695C50.6763 49.0865 50.616 49.2055 50.7218 49.2681Z" fill="#263238"/>
<path d="M54.7697 49.2587C54.535 50.0853 54.0885 50.8363 53.4744 51.4374C53.1304 51.7601 52.6903 51.9614 52.2211 52.0105C51.2228 52.1865 50.8614 51.2887 50.7378 50.5114C50.6846 50.0892 50.6821 49.6623 50.7303 49.2396C52.0399 49.6788 53.456 49.6855 54.7697 49.2587Z" fill="#263238"/>
<path d="M53.4745 51.4374C53.1305 51.7601 52.6903 51.9614 52.2212 52.0105C51.2229 52.1866 50.8614 51.2887 50.7379 50.5114C51.2316 50.3337 51.7709 50.3285 52.2679 50.4967C52.7649 50.6648 53.1902 50.9964 53.4745 51.4374Z" fill="#FF98B9"/>
<path d="M33.3589 49.2688C33.3589 49.2688 25.3161 40.4479 24.7344 34.5371C24.4682 31.8753 27.6881 29.3979 27.6881 29.3979C27.2016 28.3846 27.008 27.2554 27.1293 26.138C27.2505 25.0205 27.6818 23.9592 28.3744 23.0738C30.896 19.5548 38.5237 18.7245 38.5237 18.7245C38.5237 18.7245 41.9901 10.7319 49.4197 12.1577C56.8492 13.5835 53.8996 22.2027 53.8996 22.2027C53.8996 22.2027 57.152 25.2861 51.5235 29.3123C45.895 33.3386 33.2105 32.9883 33.2105 32.9883C34.6185 37.095 35.4031 41.3896 35.5383 45.7288C35.5341 46.4619 35.3287 47.1798 34.9444 47.804C34.56 48.4283 34.0116 48.935 33.3589 49.2688Z" fill="#263238"/>
<path d="M39.7199 18.5948C38.0622 18.2718 36.3555 18.296 34.7077 18.6659C33.2261 18.9351 31.8017 19.4566 30.4965 20.2075C29.3059 20.8143 28.3032 21.7341 27.5963 22.8682C26.8894 24.0023 26.5052 25.3077 26.4848 26.6439C26.5127 27.3298 26.6782 28.0031 26.9714 28.6238C27.2647 29.2445 27.6797 29.7999 28.1919 30.257C28.1919 30.257 28.297 30.2385 28.2576 30.2454C26.2752 28.6041 26.5035 25.3675 27.8227 23.4013C29.4853 21.2527 31.8759 19.7859 34.5446 19.2771C36.2441 18.9157 37.9808 18.7595 39.7175 18.8119C39.7463 18.8122 39.774 18.801 39.7946 18.7809C39.8152 18.7608 39.8269 18.7333 39.8272 18.7045C39.8275 18.6757 39.8164 18.648 39.7963 18.6274C39.7761 18.6068 39.7486 18.5951 39.7199 18.5948Z" fill="#263238"/>
<path d="M54.9964 14.5197C54.4941 13.6705 53.7915 12.9572 52.9499 12.4421C52.1083 11.9271 51.1534 11.626 50.1686 11.5652C47.8916 11.3361 45.6032 11.873 43.6658 13.091C41.7397 14.3284 40.1749 16.0527 39.1296 18.0894C39.1296 18.0894 39.1459 18.1814 39.1953 18.0779C40.1436 16.2785 41.558 14.767 43.2905 13.7015C45.0229 12.636 47.0099 12.0555 49.0435 12.0209C49.9839 11.9759 50.9222 12.1451 51.7876 12.5157C52.653 12.8863 53.4229 13.4486 54.0392 14.1603C54.5566 14.8955 54.9058 15.7356 55.062 16.621C55.2181 17.5063 55.1773 18.4152 54.9425 19.2831C54.2824 21.3514 53.0533 23.192 51.396 24.5945C51.396 24.5945 51.4123 24.6865 51.396 24.5945C52.9846 23.3811 54.245 21.7901 55.0629 19.9661C55.4357 19.1047 55.6225 18.1743 55.6111 17.2358C55.5996 16.2973 55.3902 15.3717 54.9964 14.5197Z" fill="#263238"/>
<path d="M53.0835 29.4029C50.5606 31.053 47.7168 32.1499 44.7393 32.6213C41.6409 33.1437 38.4953 33.3305 35.3569 33.1786C33.5428 33.1058 31.7302 32.9649 29.8712 32.7916C29.8712 32.7916 29.804 32.8711 29.8851 32.8704C33.1368 33.5642 36.4531 33.9102 39.7779 33.9025C42.8587 33.8747 45.9039 33.2411 48.7401 32.0378C50.2932 31.3662 51.7562 30.5031 53.0951 29.4686C53.0951 29.4686 53.1206 29.3828 53.0835 29.4029Z" fill="#263238"/>
<path d="M36.1662 47.6766C36.1662 47.6766 30.7306 43.0416 28.5375 45.1212C26.3444 47.2009 31.449 54.6437 34.759 54.9811C35.1804 55.0544 35.6123 55.0414 36.0285 54.9429C36.4448 54.8444 36.8367 54.6625 37.1806 54.4081C37.5244 54.1538 37.8131 53.8322 38.0291 53.4631C38.2451 53.0939 38.3839 52.6847 38.4372 52.2603L36.1662 47.6766Z" fill="#D3766A"/>
<path d="M30.0593 47.2231C30.0593 47.2231 30.0709 47.2888 30.0732 47.302C31.1706 47.5319 32.2073 47.9899 33.1163 48.6463C34.0253 49.3026 34.7863 50.1426 35.3499 51.1118C35.1705 50.9306 34.954 50.7906 34.7152 50.7013C34.4764 50.612 34.2211 50.5756 33.9669 50.5947C33.7127 50.6138 33.4656 50.6878 33.2428 50.8117C33.02 50.9356 32.8268 51.1064 32.6765 51.3124C32.6765 51.3124 32.6996 51.4437 32.7607 51.4059C33.1034 51.1923 33.5035 51.089 33.9067 51.11C34.31 51.1309 34.6972 51.275 35.016 51.5228C35.5386 51.9502 36.0176 52.4283 36.446 52.9501C36.5966 53.1132 36.8926 52.8714 36.786 52.7276C36.0956 49.9646 33.0217 46.7414 30.0593 47.2231Z" fill="#263238"/>
<path d="M109.786 64.9905C106.759 66.2089 103.557 66.9335 100.301 67.1368C92.4825 67.6516 84.7574 65.1995 78.667 60.2698C72.5766 55.3402 68.5688 48.2954 67.4433 40.5412C66.3178 32.7871 68.1573 24.8936 72.5948 18.4358C77.0323 11.978 83.7415 7.4308 91.3837 5.70141C99.0259 3.97202 107.039 5.18763 113.825 9.1057C120.61 13.0238 125.669 19.3562 127.992 26.8395C130.314 34.3228 129.73 42.4067 126.355 49.4782C122.981 56.5497 117.064 62.0889 109.786 64.9905Z" fill="#A6A6A6"/>
<path d="M117.785 59.1749C117.776 59.2695 117.731 59.3569 117.659 59.4192C117.587 59.4814 117.494 59.5138 117.399 59.5096L115.901 59.2455C115.419 55.2242 114.672 51.9369 114.773 53.1717C114.935 55.1164 114.821 57.0742 114.436 58.9872L111.489 58.4255C111.847 51.6318 111.437 46.4399 111.196 47.95C110.203 54.0529 109.432 55.9059 108.606 57.8753C101.496 56.5041 92.199 54.5878 85.5129 53.048C85.5512 49.2612 85.7632 45.2029 85.5856 45.4485C84.2179 47.2552 83.2967 50.1477 82.7631 52.412C80.6358 51.911 78.9441 51.4617 77.9525 51.1358C77.9525 51.1358 78.1464 47.9891 78.2957 46.9999C78.681 44.4102 79.5142 41.9075 80.7581 39.6036C82.1034 37.3585 83.6695 35.2533 85.4331 33.3193C86.5394 32.0131 87.4925 30.5845 88.2737 29.0614C88.8243 27.942 89.282 26.7792 89.642 25.5847C90.9576 21.2175 94.1541 17.9876 98.3133 17.7222C107.337 12.0956 113.988 17.0282 114.91 23.2672C115.004 23.8796 115.068 24.5623 115.112 25.3087C115.282 28.058 115.202 31.5603 115.209 34.2809C115.213 35.3476 115.28 36.4132 115.41 37.472C116.248 42.5715 119.873 46.2405 117.785 59.1749Z" fill="#263238"/>
<path d="M96.3525 18.4675C94.9444 18.8077 93.6486 19.5071 92.5915 20.4975C91.5343 21.4878 90.7519 22.7352 90.3205 24.1181C89.7801 25.9624 89.0141 27.7329 88.0397 29.3894C86.9062 30.9611 85.5458 32.356 84.0031 33.5287C81.6093 35.3454 79.8159 37.839 78.8552 40.6864C77.7205 43.9873 77.2418 47.478 77.4461 50.9625C77.4459 47.3476 78.1372 43.7661 79.4828 40.411C80.834 37.032 83.1918 35.274 85.6966 33.0635C87.7067 31.3139 89.2272 29.0715 90.1087 26.5566C90.6725 24.9775 91.0165 23.3596 91.9672 21.9661C93.1091 20.5098 94.6621 19.4299 96.4248 18.8663C96.6829 18.7355 96.5761 18.3894 96.3525 18.4675Z" fill="#263238"/>
<path d="M118.594 43.4972C117.371 40.5369 115.976 37.9244 115.633 34.5403C115.337 31.4583 115.455 28.315 115.12 25.2178C115.129 25.1689 115.039 25.2034 115.055 25.2063C115.416 30.6329 114.555 35.8021 116.628 40.8004C117.752 43.5164 118.916 46.0548 119.363 49.0879C119.804 52.2692 119.68 55.5033 118.996 58.6414C118.976 58.7553 119.113 58.7878 119.142 58.6672C120.745 53.7028 120.551 48.333 118.594 43.4972Z" fill="#263238"/>
<path d="M113.034 63.465C112.429 63.8031 111.816 64.0895 111.192 64.3908C110.735 64.6039 110.279 64.8089 109.795 64.9837L109.705 65.0182C109.262 65.2002 108.805 65.3631 108.35 65.5178L107.751 65.7228C106.416 66.1639 105.051 66.5093 103.666 66.7566C103.342 66.817 103.014 66.8682 102.682 66.9104C101.916 67.0187 101.13 67.0983 100.34 67.1521L99.7054 67.1828C99.6302 66.9429 99.5454 66.7098 99.4769 66.4795C99.4374 66.381 99.4048 66.2799 99.3792 66.1769C99.1929 65.6153 99.0118 65.0714 98.8279 64.5438C98.7902 64.4447 98.7576 64.3437 98.7302 64.2412C98.552 63.681 98.3872 63.14 98.2344 62.6263C98.2013 62.5282 98.1683 62.43 98.1434 62.3333C97.9681 61.7569 97.8129 61.2091 97.6682 60.6968C97.6351 60.5987 97.6102 60.502 97.5853 60.4053C97.426 59.8177 97.2856 59.281 97.1642 58.7952C97.1393 58.6984 97.1144 58.6017 97.0976 58.5064L97.1134 58.4169C97.0128 57.9879 96.9007 57.4814 96.792 56.9083C96.8077 56.8187 96.7517 56.7081 96.7282 56.6033C96.6554 56.2547 96.5869 55.8818 96.5294 55.494C96.4982 55.3374 96.4671 55.1808 96.4455 55.0176L96.3966 54.7236C96.32 54.2065 96.238 53.6717 96.1738 53.1316C96.1896 53.0421 96.1565 52.9439 96.1412 52.8405C96.0837 52.31 96.0343 51.781 96.0079 51.2644C96.0236 51.1748 95.9906 51.0767 95.9901 50.9843L96.0088 50.8785C95.9785 50.3943 95.9745 49.9089 95.9966 49.4244C95.9911 49.3297 95.9938 49.2347 96.0047 49.1404C96.0127 48.6259 96.0722 48.1134 96.1821 47.6107C96.19 47.5171 96.2063 47.4245 96.2309 47.3339C96.3323 46.7751 96.6078 46.2626 97.0178 45.8696C97.1261 45.7762 97.2472 45.6986 97.3774 45.6393L97.5272 45.5986L97.6934 45.5607L97.7422 45.5693L97.7829 45.5765C98.1587 45.564 98.5329 45.63 98.8818 45.7703L99.1604 45.9033C99.2949 45.9657 99.4254 46.0364 99.5512 46.1149C100.283 46.5679 100.963 47.0987 101.58 47.698C101.949 48.0317 102.344 48.4118 102.754 48.845C105.007 51.4504 107.061 54.2224 108.896 57.1374C110.258 59.1232 111.662 61.3011 113.034 63.465Z" fill="#EB9481"/>
<path d="M114.14 62.8545C113.775 63.0671 113.412 63.2716 113.028 63.4977C112.423 63.8358 111.81 64.1222 111.186 64.4235C110.729 64.6366 110.273 64.8416 109.789 65.0164L109.699 65.0509C109.256 65.2329 108.799 65.3957 108.344 65.5505L107.745 65.7555C106.411 66.1853 105.048 66.5198 103.666 66.7567C103.342 66.8171 103.014 66.8684 102.682 66.9105C101.916 67.0189 101.13 67.0984 100.34 67.1522L99.7053 67.1829L99.1479 67.2021C99.0608 66.935 98.9817 66.6693 98.9027 66.4035C98.8835 66.313 98.857 66.2241 98.8237 66.1378L98.5985 65.368L98.3513 64.4851C98.3183 64.3869 98.2934 64.2902 98.2685 64.1935C98.1133 63.6458 97.9566 63.1062 97.8148 62.5777L97.7401 62.2875L97.3367 60.8148C97.3239 60.7721 97.3148 60.7284 97.3094 60.6841L97.2347 60.394C97.0891 59.8395 96.9487 59.3028 96.8217 58.7853L96.747 58.4951L96.599 57.9067L96.3681 56.884C96.3838 56.7945 96.3278 56.6839 96.3029 56.5872C96.2325 56.2726 96.1673 55.9758 96.1046 55.7129L96.0773 55.5822C96.0773 55.5822 96.0916 55.5008 96.0581 55.453C96.0739 55.3634 96.0164 55.261 95.9982 55.1738L95.9766 55.0106C95.9517 54.9139 95.935 54.8186 95.9182 54.7233L95.9297 54.6582C95.8314 54.1205 95.7452 53.6101 95.6872 53.1299C95.6872 53.1299 95.667 52.9585 95.6488 52.8714C95.5793 52.3136 95.5299 51.7845 95.5074 51.2938C95.5232 51.2042 95.539 51.1147 95.4978 51.0151C95.4853 50.7527 95.4781 50.5081 95.4871 50.2663C95.5173 50.0953 95.489 49.9225 95.4933 49.7554C95.5059 49.7073 95.5145 49.6583 95.5191 49.6089C95.5277 49.56 95.5363 49.5112 95.5449 49.4624C95.5527 49.3716 95.5685 49.2817 95.5923 49.1938C95.6044 49.1484 95.6125 49.1021 95.6167 49.0554C95.6239 49.0147 95.6325 48.9658 95.6397 48.9251C95.6468 48.8844 95.6842 48.6728 95.7057 48.5507C95.7587 48.257 95.8295 47.9668 95.9177 47.6817C95.9349 47.584 95.9521 47.4863 96.0153 47.4135C96.2045 46.8616 96.5556 46.3795 97.023 46.0302L97.0886 45.9914C97.2255 45.8957 97.3772 45.8232 97.5376 45.7768L97.6875 45.7361L97.8536 45.6982L97.935 45.7126L97.9757 45.7198C98.1076 45.7062 98.2402 45.7015 98.3727 45.7058C98.5733 45.7239 98.7721 45.759 98.9669 45.8106C99.5134 45.9712 100.037 46.2017 100.524 46.4965C100.99 46.7669 101.432 47.0751 101.847 47.418C103.238 48.5428 104.502 49.8154 105.618 51.2134C106.794 52.6376 108.051 54.3113 109.353 56.0683C110.955 58.1216 112.574 60.5053 114.14 62.8545Z" fill="#37474F"/>
<path opacity="0.1" d="M111.184 64.3893C110.727 64.6025 110.271 64.8075 109.787 64.9823L109.697 65.0168C109.254 65.1988 108.797 65.3616 108.342 65.5163L107.743 65.7214C106.41 66.1625 105.048 66.5085 103.666 66.7566C103.342 66.817 103.014 66.8682 102.682 66.9104C101.916 67.0187 101.13 67.0983 100.34 67.1521L99.7054 67.1828L99.148 67.202C99.0609 66.9349 98.9818 66.6691 98.9028 66.4034C98.8764 66.3149 98.8501 66.2263 98.8156 66.1363L98.5905 65.3664C98.5076 65.0748 98.4152 64.79 98.3352 64.4821C98.3103 64.3854 98.2853 64.2887 98.2523 64.1905C98.0971 63.6428 97.9404 63.1032 97.7986 62.5747L97.7239 62.2845L97.3206 60.8118L97.2851 60.6797L97.2104 60.3895C97.0647 59.8351 96.9244 59.2984 96.7974 58.7808L96.7227 58.4907L96.5747 57.9023L96.3356 56.8782C96.3514 56.7886 96.2954 56.678 96.2705 56.5813C96.2 56.2668 96.1349 55.9699 96.0721 55.7071L96.0448 55.5764C96.0282 55.5347 96.019 55.4905 96.0175 55.4457C96.0333 55.3561 95.9758 55.2537 95.9576 55.1665L95.9265 55.01C95.9437 54.9123 95.8862 54.8098 95.8694 54.7146L95.8809 54.6495C95.7827 54.1118 95.6964 53.6014 95.6384 53.1212C95.6205 53.0366 95.6104 52.9505 95.6082 52.8641C95.5387 52.3063 95.4893 51.7772 95.4668 51.2865C95.4826 51.1969 95.4984 51.1074 95.4572 51.0078C95.4447 50.7454 95.4375 50.5008 95.4465 50.259C95.4767 50.088 95.4484 49.9152 95.4527 49.7481C95.4653 49.7001 95.4739 49.651 95.4785 49.6016C95.4831 49.5521 95.4917 49.5031 95.5043 49.4551L95.5517 49.1865C95.5559 49.1397 95.5641 49.0934 95.5761 49.0481C95.5833 49.0074 95.5919 48.9586 95.5991 48.9179C95.6062 48.8772 95.6436 48.6655 95.6651 48.5434C95.7181 48.2497 95.7889 47.9595 95.8771 47.6744C95.8943 47.5767 95.9115 47.479 95.9747 47.4062C96.1639 46.8543 96.515 46.3722 96.9824 46.0229L97.048 45.9841C97.1882 45.8942 97.339 45.8221 97.4971 45.7695L97.6469 45.7288L97.8633 45.6914L97.904 45.6986C98.0359 45.685 98.1685 45.6804 98.3009 45.6847C98.5016 45.7028 98.7004 45.7378 98.8951 45.7894L98.9943 45.9412L99.068 46.0465L99.273 46.3596L100.397 48.0769L100.61 48.3914L101.463 49.6917L101.73 50.0829L101.935 50.396L103.067 52.1147L103.266 52.4182L104.391 54.1273L104.596 54.4404L105.385 55.6287L106.774 57.7453L111.184 64.3893Z" fill="black"/>
<path d="M109.696 65.025C109.252 65.207 108.795 65.3698 108.34 65.5246L107.742 65.7296C106.409 66.1679 105.047 66.5112 103.666 66.7567C103.342 66.817 103.014 66.8683 102.682 66.9105C101.916 67.0188 101.13 67.0984 100.34 67.1521L99.7053 67.1829L99.148 67.2021C94.6209 67.3359 90.1199 66.4706 85.965 64.6677L85.0787 64.2681C84.7067 64.0934 84.3442 63.912 83.9832 63.7224C83.9049 63.6923 83.83 63.6538 83.76 63.6075L83.5762 63.508C83.5538 63.5125 83.5306 63.5084 83.5111 63.4965C82.7416 63.1006 82.0607 62.6784 81.3678 62.2289L80.8277 61.8651C79.9655 61.2824 79.1349 60.654 78.3396 59.9829L77.9608 59.6559L77.5969 59.3399C77.1765 58.9637 76.7737 58.5821 76.3739 58.1843L76.552 57.8884C76.6085 57.806 76.6568 57.7222 76.7147 57.6317C77.0101 57.1467 77.3136 56.663 77.6142 56.1957C77.6638 56.1073 77.7182 56.0216 77.7769 55.939C78.0819 55.4473 78.4016 54.9665 78.7185 54.502C78.7764 54.4115 78.8329 54.3292 78.899 54.2401C79.2283 53.7527 79.5644 53.2748 79.8961 52.8213C79.9545 52.7313 80.0174 52.6444 80.0847 52.5608L80.5457 51.9455C80.7535 51.6716 80.9612 51.3977 81.1661 51.1401C81.1673 51.1152 81.1717 51.0906 81.179 51.0668C81.1941 51.0426 81.2121 51.0204 81.2327 51.0008L81.3384 50.8767C81.7181 50.3898 82.1111 49.9219 82.4984 49.4866C82.5695 49.3976 82.6461 49.313 82.7277 49.2333C83.1686 48.732 83.6104 48.2727 84.0561 47.8394C84.1338 47.7526 84.2182 47.6721 84.3084 47.5985C84.6005 47.3227 84.8992 47.0564 85.2017 46.816C85.3201 46.708 85.4445 46.6066 85.5742 46.5124C85.6719 46.4285 85.7752 46.3514 85.8835 46.2816L86.0477 46.1595L86.2105 46.0455C86.8199 45.5995 87.4674 45.2082 88.1456 44.876C88.2179 44.8311 88.2947 44.794 88.3749 44.7654C88.45 44.7208 88.5296 44.6842 88.6124 44.6562L88.8566 44.5566C90.388 43.8752 92.0623 43.5771 93.7349 43.6878C95.6423 43.8001 97.474 44.4735 98.9999 45.6233C99.1106 45.71 99.2226 45.7885 99.3236 45.8818C99.3883 45.9273 99.4496 45.9774 99.507 46.0317L99.5559 46.0403C99.6127 46.0845 99.6658 46.1332 99.7149 46.1858C100.105 46.5348 100.471 46.9105 100.809 47.3104C100.968 47.5153 101.112 47.7314 101.241 47.9572L101.332 48.1075L101.423 48.2578C101.697 48.7006 102.011 49.2512 102.387 49.9301L102.463 50.0694L102.544 50.2264L103.455 51.9146L103.613 52.2109C103.896 52.7476 104.184 53.302 104.483 53.8918C104.503 53.9455 104.528 53.9975 104.556 54.0474L104.631 54.1949C104.832 54.5745 105.024 54.9609 105.264 55.364L105.517 55.8787C105.558 55.9783 105.616 56.0807 105.665 56.1817C105.871 56.5872 106.068 56.9913 106.288 57.4078L106.504 57.8488L106.591 58.0235C106.88 58.6201 107.161 59.2152 107.444 59.8524C107.464 59.9124 107.491 59.9704 107.522 60.0257L107.577 60.1444C107.848 60.7463 108.128 61.3495 108.388 61.9661C108.649 62.5828 108.929 63.186 109.176 63.7835L109.242 63.9296L109.299 64.0823C109.45 64.4193 109.572 64.7262 109.696 65.025Z" fill="#37474F"/>
<path opacity="0.1" d="M94.544 47.0953L94.2022 47.0351C94.1864 47.1246 94.1706 47.2141 94.1534 47.3118L94.5034 47.3735L95.7085 47.5357C95.7258 47.438 95.743 47.3403 95.8062 47.2675L94.544 47.0953ZM95.3913 49.0492L94.5204 48.8956C94.581 48.9958 94.6466 49.0997 94.7172 49.2073L95.3684 49.3221L95.3913 49.0492ZM94.544 47.0953L94.2022 47.0351C94.1864 47.1246 94.1706 47.2141 94.1534 47.3118L94.5034 47.3735L95.7085 47.5357C95.7258 47.438 95.743 47.3403 95.8062 47.2675L94.544 47.0953ZM94.544 47.0953L94.2022 47.0351C94.1864 47.1246 94.1706 47.2141 94.1534 47.3118L94.5034 47.3735L95.7085 47.5357C95.7258 47.438 95.743 47.3403 95.8062 47.2675L94.544 47.0953ZM94.544 47.0953L94.2022 47.0351C94.1864 47.1246 94.1706 47.2141 94.1534 47.3118L94.5034 47.3735L95.7085 47.5357C95.7258 47.438 95.743 47.3403 95.8062 47.2675L94.544 47.0953ZM99.5827 46.0786L99.5339 46.07L99.3668 45.9231L98.9598 45.8513L97.3204 45.6294L94.6142 45.2697L94.256 45.2065L93.2299 45.076L89.4503 44.569L88.97 44.4843L88.9131 44.4742L88.6689 44.5739C88.5861 44.6019 88.5065 44.6385 88.4314 44.6831L88.9198 44.7692L93.1175 45.3331L94.2901 45.4895L94.6401 45.5512L96.8373 45.8463L96.935 45.8635L99.1566 46.163L99.7101 46.2606C99.6702 46.1957 99.6248 46.1344 99.5746 46.0772L99.5827 46.0786ZM94.1993 47.0513C94.1835 47.1409 94.1677 47.2304 94.1505 47.3281L94.5005 47.3898L95.7057 47.5519C95.7229 47.4543 95.7401 47.3566 95.8033 47.2838L94.5575 47.1145L94.1993 47.0513ZM94.5412 47.1116L94.1993 47.0513C94.1835 47.1409 94.1677 47.2304 94.1505 47.3281L94.5005 47.3898L95.7057 47.5519C95.7229 47.4543 95.7401 47.3566 95.8033 47.2838L94.5412 47.1116ZM94.5412 47.1116L94.1993 47.0513C94.1835 47.1409 94.1677 47.2304 94.1505 47.3281L94.5005 47.3898L95.7057 47.5519C95.7229 47.4543 95.7401 47.3566 95.8033 47.2838L94.5412 47.1116ZM94.5412 47.1116L94.1993 47.0513C94.1835 47.1409 94.1677 47.2304 94.1505 47.3281L94.5005 47.3898L95.7057 47.5519C95.7229 47.4543 95.7401 47.3566 95.8033 47.2838L94.5412 47.1116ZM95.3884 49.0655L94.5175 48.9119C94.5782 49.0121 94.6438 49.116 94.7143 49.2236L95.3655 49.3384L95.3884 49.0655ZM101.364 48.1635L101.273 48.0132L100.312 47.8438L96.2122 47.2972L95.8296 47.2297L94.5838 47.0604L94.2419 47.0001L93.5419 46.8767L86.5471 45.9454L86.3192 45.9052L86.1564 46.0192L85.9922 46.1413L86.155 46.17L93.6818 47.1783L94.1864 47.2673L94.5364 47.329L95.7416 47.4911L96.1567 47.5643L100.567 48.1574L101.503 48.2803L101.364 48.1635ZM92.7735 50.5683L85.5412 49.6036C85.5254 49.6931 85.5096 49.7826 85.4924 49.8803L92.5944 50.8221L93.1154 50.9139C93.1312 50.8244 93.1972 50.7353 93.2456 50.6515L92.7735 50.5683ZM92.7735 50.5683L85.5412 49.6036C85.5254 49.6931 85.5096 49.7826 85.4924 49.8803L92.5944 50.8221L93.1154 50.9139C93.1312 50.8244 93.1972 50.7353 93.2456 50.6515L92.7735 50.5683ZM92.7735 50.5683L85.5412 49.6036C85.5254 49.6931 85.5096 49.7826 85.4924 49.8803L92.5944 50.8221L93.1154 50.9139C93.1312 50.8244 93.1972 50.7353 93.2456 50.6515L92.7735 50.5683ZM92.7735 50.5683L85.5412 49.6036C85.5254 49.6931 85.5096 49.7826 85.4924 49.8803L92.5944 50.8221L93.1154 50.9139C93.1312 50.8244 93.1972 50.7353 93.2456 50.6515L92.7735 50.5683ZM102.497 50.1595L102.429 50.0216L101.615 49.8781L101.314 49.825L95.9113 49.0989L95.3822 49.0056L94.5113 48.852L94.031 48.7674L93.6159 48.6942L85.6046 47.6257L84.3506 47.4549C84.2603 47.5285 84.176 47.609 84.0983 47.6958L84.2448 47.7216L85.6142 47.9043L93.5249 48.9719L93.9482 49.0465L94.7215 49.1829L95.3727 49.2977L95.918 49.3938L101.28 50.1127L101.834 50.2103L102.574 50.3409C102.542 50.2753 102.518 50.2062 102.502 50.135L102.497 50.1595ZM85.5412 49.6036C85.5254 49.6931 85.5096 49.7826 85.4924 49.8803L92.5944 50.8221L93.1154 50.9139C93.1312 50.8244 93.1972 50.7353 93.2456 50.6515L92.7328 50.5611L85.5412 49.6036ZM92.7735 50.5683L85.5412 49.6036C85.5254 49.6931 85.5096 49.7826 85.4924 49.8803L92.5944 50.8221L93.1154 50.9139C93.1312 50.8244 93.1972 50.7353 93.2456 50.6515L92.7735 50.5683ZM92.7735 50.5683L85.5412 49.6036C85.5254 49.6931 85.5096 49.7826 85.4924 49.8803L92.5944 50.8221L93.1154 50.9139C93.1312 50.8244 93.1972 50.7353 93.2456 50.6515L92.7735 50.5683ZM92.7735 50.5683L85.5412 49.6036C85.5254 49.6931 85.5096 49.7826 85.4924 49.8803L92.5944 50.8221L93.1154 50.9139C93.1312 50.8244 93.1972 50.7353 93.2456 50.6515L92.7735 50.5683ZM103.498 52.006L102.969 51.9127L100.936 51.6382L96.0159 50.9805L95.902 50.9604L95.3159 50.8571L93.2652 50.5878L92.7524 50.4974L85.5201 49.5327L83.6106 49.2715L82.7234 49.1151C82.6418 49.1948 82.5653 49.2794 82.4941 49.3684L83.5187 49.5071L85.5192 49.7759L92.6212 50.7177L93.1422 50.8095L95.3327 51.0951L95.9269 51.1998L96.3257 51.2702L100.803 51.8666L103.13 52.1847L103.619 52.2708C103.575 52.1763 103.536 52.0798 103.502 51.9816L103.498 52.006ZM104.607 54.1403C104.579 54.0904 104.554 54.0384 104.534 53.9848L104.289 53.9417L96.0516 52.8249L95.4737 52.723L92.3902 52.3135L91.7797 52.2059L85.4839 51.356L83.0655 51.0302L81.3351 50.8006C81.3023 50.8407 81.2723 50.8831 81.2456 50.9275C81.192 50.9937 81.1919 50.9937 81.1384 51.0597L82.999 51.3123L85.4596 51.637L91.6088 52.4611L92.2193 52.5688L95.4982 53.0126L96.0679 53.1131L104.447 54.238L104.634 54.2711L104.607 54.1403ZM105.533 55.9821L96.3339 54.7462L95.8048 54.6529L91.3615 54.0541L90.7103 53.9393L87.3405 53.4878L87.2917 53.4791L80.0689 52.5077C80.0016 52.5913 79.9387 52.6782 79.8803 52.7682L90.5394 54.1945L91.1743 54.3064L95.847 54.9373L96.3679 55.0292L105.666 56.2742C105.638 56.1435 105.557 56.0367 105.572 55.9472L105.533 55.9821ZM106.582 58.1227L106.495 57.9479L96.6573 56.6245L96.1852 56.5412L90.1514 55.7291L89.5327 55.62L78.8736 54.1937C78.8076 54.2828 78.7511 54.3651 78.6932 54.4556L89.3508 55.8901L89.9613 55.9977L96.2585 56.8395L96.7225 56.9213L106.627 58.2481L106.582 58.1227ZM107.517 60.1004C107.486 60.0452 107.46 59.9872 107.439 59.9271L97.0756 58.5362L96.6442 58.4602L88.888 57.4199L88.8148 57.407L88.3183 57.3194L77.7501 55.9008C77.6914 55.9834 77.637 56.0691 77.5874 56.1574L88.1474 57.5746L88.6113 57.6564L88.709 57.6737L96.7271 58.7517L97.1503 58.8264L107.58 60.2206C107.553 60.1703 107.534 60.116 107.525 60.0598L107.517 60.1004ZM108.395 62.026L108.32 61.8786L97.5633 60.4351L97.1319 60.359L87.6372 59.0877L87.4011 59.0461L87.0511 58.9844L76.6472 57.5863C76.63 57.684 76.541 57.7606 76.4845 57.8429L86.8558 59.2353L87.1814 59.2927L87.4093 59.3329L97.174 60.6434L97.6054 60.7195L108.411 62.1716L108.395 62.026ZM109.249 63.9894L109.182 63.8434L98.1213 62.3631L97.6574 62.2813L86.8422 60.8359L85.7921 60.6507L77.9369 59.6014L78.3157 59.9283L85.5887 60.9002L86.5248 61.0653L97.7417 62.5647L98.2138 62.648L109.307 64.134L109.249 63.9894ZM97.6545 62.2976L86.8393 60.8522L86.1718 60.7345L85.9602 60.9825L86.5219 61.0815L97.7388 62.581L97.6545 62.2976ZM98.7081 64.271L98.2034 64.182L85.0445 62.4157L84.4503 62.3109L80.8023 61.8187L81.3424 62.1825L84.2373 62.5671L84.5547 62.6231L84.8315 62.6719L98.2863 64.4736L98.8073 64.5655L107.736 65.7622L108.334 65.5571L98.7081 64.271ZM86.2748 61.0548L86.5109 61.0964L97.7278 62.5958L97.6531 62.3057L86.8379 60.8603L86.1704 60.7426L85.9588 60.9907L86.2844 61.0481L86.2748 61.0548ZM97.6545 62.2976L86.8393 60.8522L86.1718 60.7345L85.9602 60.9825L86.5219 61.0815L97.7388 62.581L97.6545 62.2976ZM99.3327 66.2024L98.7711 66.1033L85.0448 64.2705L85.9311 64.6702L98.8607 66.4045L99.4304 66.505L102.636 66.9359C102.968 66.8937 103.296 66.8425 103.62 66.7821L99.3327 66.2024ZM98.191 64.205L85.0321 62.4387C84.9579 62.5263 84.8918 62.6153 84.819 62.6948L98.2739 64.4966C98.2561 64.3592 98.2312 64.2625 98.1982 64.1643L98.191 64.205ZM99.3327 66.2024L98.7711 66.1033L85.0448 64.2705L85.9311 64.6702L98.8607 66.4045L99.4304 66.505C99.3915 66.393 99.3612 66.2783 99.3399 66.1617L99.3327 66.2024ZM98.191 64.205L85.0321 62.4387C84.9579 62.5263 84.8918 62.6153 84.819 62.6948L98.2739 64.4966C98.2561 64.3592 98.2312 64.2625 98.1982 64.1643L98.191 64.205ZM99.3327 66.2024L98.7711 66.1033L85.0448 64.2705L85.9311 64.6702L98.8607 66.4045L99.4304 66.505C99.3915 66.393 99.3612 66.2783 99.3399 66.1617L99.3327 66.2024Z" fill="black"/>
<path d="M94.1913 47.0499C94.1755 47.1394 94.1597 47.229 94.1425 47.3266C94.0903 47.5286 94.0272 47.7276 93.9535 47.9228C93.858 48.2249 93.7468 48.5219 93.6203 48.8124C93.6045 48.9019 93.5481 48.9843 93.5146 49.0791C93.3078 49.5378 93.0709 50.0248 92.7942 50.5467C92.7784 50.6362 92.7056 50.7157 92.6558 50.8077C92.4069 51.2673 92.1293 51.7471 91.8134 52.2537L91.6588 52.5118C91.3677 52.9725 91.0561 53.4547 90.7157 53.957L90.5448 54.2122L90.5348 54.2692C90.2165 54.7418 89.8929 55.1967 89.5803 55.6367C89.5224 55.7272 89.4563 55.8163 89.3902 55.9054C89.0432 56.3981 88.7086 56.8678 88.3591 57.3266C88.3056 57.4154 88.2458 57.5002 88.1801 57.5804C87.8249 58.0717 87.4725 58.5467 87.092 58.9915L86.8967 59.2424C86.5237 59.739 86.147 60.2097 85.8057 60.6699C85.7423 60.7565 85.6744 60.8398 85.6022 60.9193C85.213 61.413 84.8363 61.8837 84.4653 62.3219L84.2523 62.5781C83.9966 62.8855 83.752 63.1781 83.5007 63.4611C82.7312 63.0652 82.0503 62.643 81.3574 62.1935L80.8173 61.8297C79.9551 61.2469 79.1245 60.6186 78.3292 59.9475L77.9504 59.6205L77.5865 59.3045C77.1661 58.9283 76.7634 58.5467 76.3635 58.1489C75.4414 57.244 74.5829 56.2766 73.7939 55.2535C75.414 53.9194 77.0513 52.6302 78.6704 51.3966C80.2895 50.163 82.1528 48.8298 83.8499 47.6771L84.5144 47.2404C84.7715 47.0675 85.0176 46.9094 85.2622 46.7595L85.6299 46.5306L86.1082 46.2457L86.5003 46.0211C87.2934 45.5596 88.1122 45.1435 88.9525 44.7749L89.4586 44.5704C91.3516 43.8299 92.7659 43.71 93.5752 44.2136C93.9148 44.4333 94.1553 44.7768 94.2456 45.1711C94.2756 45.2644 94.2952 45.3607 94.3041 45.4583C94.364 45.9913 94.3258 46.5307 94.1913 47.0499Z" fill="#EB9481"/>
<path d="M94.5441 47.0954C94.5283 47.1849 94.511 47.2826 94.4953 47.3721C94.4182 47.7184 94.3215 48.06 94.2057 48.3953C94.177 48.5581 94.0995 48.7123 94.0382 48.8694L93.9406 49.1375C93.7415 49.6479 93.5261 50.1555 93.3097 50.6209C93.294 50.7104 93.2197 50.7981 93.1795 50.8833C92.9024 51.4555 92.6367 51.9626 92.428 52.337C92.3701 52.4275 92.3203 52.5195 92.2734 52.5951C92.2265 52.6708 92.1006 52.9087 92.0537 52.9844C91.8632 53.3033 91.6411 53.6586 91.3725 54.0393C91.3567 54.1288 91.2581 54.2121 91.2002 54.3026L91.1916 54.3515C90.8967 54.7863 90.565 55.2397 90.2031 55.7214L90.0049 55.9886C89.687 56.411 89.35 56.8467 89.002 57.2973C88.9694 57.3277 88.9408 57.3622 88.9168 57.3998C88.8447 57.4793 88.7768 57.5626 88.7133 57.6493L87.5845 59.0533L87.3796 59.3109L86.2073 60.724L85.9957 60.972C85.6012 61.448 85.2001 61.9144 84.8099 62.3659L84.5873 62.6288C84.3029 62.9564 84.0267 63.2853 83.7615 63.5995L83.5777 63.4999C83.5553 63.5044 83.532 63.5003 83.5125 63.4884C82.7431 63.0926 82.0621 62.6704 81.3693 62.2209L80.8291 61.8571C79.9669 61.2743 79.1364 60.646 78.3411 59.9748L77.9623 59.6478L77.5984 59.3319C77.1779 58.9556 76.7752 58.574 76.3754 58.1762C75.4533 57.2713 74.5947 56.3039 73.8058 55.2808C73.6391 55.0836 73.4835 54.8715 73.3278 54.6594C74.8809 53.3722 76.4291 52.1597 77.9357 51.0405C80.1862 49.342 82.5478 47.7957 85.0045 46.412L85.6436 46.0715C86.1243 45.8205 86.5681 45.5883 87.032 45.3847C87.4959 45.1812 87.844 45.0159 88.2218 44.8727L88.4755 44.7664L88.9897 44.5633C91.361 43.6806 92.8338 43.5626 93.6856 44.0149C93.9394 44.1366 94.1592 44.319 94.3256 44.546C94.492 44.773 94.5999 45.0375 94.6396 45.3162C94.6645 45.4129 94.6731 45.5067 94.6899 45.602C94.7153 46.1042 94.6662 46.6075 94.5441 47.0954Z" fill="#37474F"/>
<path d="M93.0733 45.5854C92.9298 46.3994 95.5774 52.4223 99.4275 53.1011C101.438 53.4556 101.459 47.9117 101.459 47.9117L101.724 47.5052L105.412 41.819L99.8568 34.4358L99.0317 33.451C99.0317 33.451 98.1251 35.0704 97.0107 37.1064L96.86 37.3904C96.7896 37.5038 96.7288 37.6106 96.668 37.7174C96.5048 38.0243 96.3334 38.3298 96.1606 38.6435C95.9878 38.9571 95.9117 39.1031 95.7911 39.3588L95.4034 40.1297C94.5006 41.8918 93.722 43.7148 93.0733 45.5854Z" fill="#EB9481"/>
<path d="M97.0204 37.0493C96.9999 39.0246 97.4106 40.9806 98.2238 42.7808C99.037 44.581 100.233 46.1821 101.729 47.4725L105.417 41.7863L99.8622 34.4031L99.0371 33.4184C99.0371 33.4184 98.1362 35.0052 97.0204 37.0493Z" fill="#263238"/>
<path d="M116.214 31.2016C116.322 43.1049 109.207 44.5192 106.636 44.5359C104.308 44.5534 96.3679 44.3199 95.029 32.4934C93.6901 20.6669 99.1885 16.8526 104.555 16.5483C109.921 16.244 116.108 19.282 116.214 31.2016Z" fill="#EB9481"/>
<path d="M112.667 28.4193C112.399 28.372 112.138 28.326 111.853 28.2758C111.566 28.2724 111.288 28.1732 111.064 27.9939C111.003 27.9246 110.966 27.8372 110.96 27.745C110.953 27.6529 110.977 27.5612 111.028 27.484C111.155 27.3466 111.316 27.2456 111.496 27.1917C111.675 27.1377 111.865 27.1326 112.047 27.1769C112.43 27.2076 112.788 27.3783 113.054 27.6566C113.118 27.7246 113.159 27.8107 113.172 27.9032C113.186 27.9957 113.17 28.0901 113.128 28.1735C113.086 28.2569 113.019 28.3252 112.936 28.3692C112.854 28.4132 112.76 28.4307 112.667 28.4193Z" fill="#263238"/>
<path d="M104.738 28.9768C105.008 28.9236 105.259 28.8336 105.525 28.7545C105.817 28.7197 106.088 28.5872 106.296 28.3786C106.349 28.3008 106.374 28.2075 106.368 28.1136C106.361 28.0197 106.324 27.9306 106.261 27.8605C106.119 27.7387 105.946 27.6573 105.761 27.6247C105.577 27.5921 105.387 27.6096 105.211 27.6754C104.833 27.7512 104.497 27.9638 104.267 28.2726C104.214 28.3477 104.185 28.4369 104.185 28.5286C104.184 28.6202 104.21 28.71 104.261 28.7862C104.312 28.8623 104.385 28.9213 104.47 28.9553C104.555 28.9893 104.649 28.9968 104.738 28.9768Z" fill="#263238"/>
<path d="M106.619 31.8766C106.619 31.8766 106.562 31.9168 106.564 31.9508C106.657 32.7561 106.627 33.6907 105.921 34.0279C105.921 34.0279 105.912 34.0767 105.914 34.0686C106.814 33.8664 106.832 32.6191 106.619 31.8766Z" fill="#263238"/>
<path d="M105.826 31.0906C104.514 31.1027 104.633 33.7169 105.843 33.7038C107.054 33.6907 106.918 31.0818 105.826 31.0906Z" fill="#263238"/>
<path d="M105.319 31.2529C105.099 31.4071 104.883 31.6796 104.607 31.7232C104.33 31.7668 104.041 31.5059 103.85 31.2541C103.85 31.2541 103.809 31.2469 103.843 31.2948C103.856 31.7922 104.077 32.3011 104.613 32.3537C105.149 32.4063 105.442 31.9376 105.54 31.4262C105.491 31.3252 105.407 31.1844 105.319 31.2529Z" fill="#263238"/>
<path d="M111.28 31.4813C111.28 31.4813 111.353 31.4942 111.351 31.5527C111.346 32.391 111.503 33.2581 112.236 33.53L112.227 33.5788C111.33 33.4793 111.161 32.2493 111.28 31.4813Z" fill="#263238"/>
<path d="M111.971 30.6047C113.273 30.4566 113.476 33.0688 112.273 33.1758C111.071 33.2827 110.859 30.7274 111.971 30.6047Z" fill="#263238"/>
<path d="M112.535 30.7377C112.749 30.8593 112.976 31.0925 113.22 31.0934C113.463 31.0943 113.693 30.7907 113.86 30.5096C113.86 30.5096 113.86 30.5096 113.9 30.5168C113.955 31.0133 113.828 31.5448 113.359 31.6804C112.891 31.8159 112.57 31.3985 112.413 30.9092C112.384 30.8369 112.443 30.688 112.535 30.7377Z" fill="#263238"/>
<path d="M107.204 38.266C107.398 38.4513 107.596 38.7126 107.893 38.7399C108.197 38.7365 108.496 38.666 108.769 38.5334C108.769 38.5334 108.826 38.5435 108.809 38.5406C108.694 38.6996 108.538 38.8244 108.357 38.9018C108.176 38.9793 107.978 39.0066 107.783 38.9807C107.616 38.9424 107.464 38.8528 107.35 38.7243C107.236 38.5959 107.165 38.435 107.146 38.2641C107.115 38.2502 107.176 38.2358 107.204 38.266Z" fill="#263238"/>
<path d="M110.424 35.141C110.424 35.141 110.658 36.3403 110.69 36.9168C110.682 36.9656 110.558 37.0025 110.37 37.0198C109.885 37.138 109.378 37.1201 108.902 36.9682C108.427 36.8163 108.003 36.5362 107.677 36.1588C107.665 36.1479 107.659 36.1329 107.658 36.1171C107.658 36.1013 107.664 36.086 107.675 36.0745C107.686 36.0631 107.701 36.0565 107.717 36.0561C107.732 36.0557 107.748 36.0617 107.759 36.0726C108.516 36.5266 109.399 36.7263 110.277 36.6425C110.306 36.4797 109.798 34.6024 109.892 34.5938C110.337 34.6129 110.777 34.6905 111.202 34.8249C110.804 32.3208 109.966 29.8901 109.586 27.3808C109.601 27.2913 109.699 27.2582 109.729 27.3305C110.687 29.8957 111.389 32.5496 111.823 35.2533C111.857 35.5865 110.656 35.2573 110.424 35.141Z" fill="#263238"/>
<path d="M109.966 36.7389C109.701 37.1653 109.33 37.516 108.889 37.7574C108.646 37.8811 108.372 37.9265 108.102 37.8873C107.516 37.7839 107.448 37.2683 107.505 36.8C107.54 36.5555 107.605 36.3161 107.698 36.087C108.364 36.5438 109.16 36.7725 109.966 36.7389Z" fill="#263238"/>
<path d="M108.889 37.7573C108.646 37.881 108.372 37.9264 108.102 37.8872C107.516 37.7839 107.448 37.2682 107.505 36.7999C107.809 36.7832 108.11 36.8682 108.361 37.0416C108.611 37.2149 108.797 37.4668 108.889 37.7573Z" fill="#FF9CBD"/>
<path d="M95.7677 32.9678C97.9899 33.3597 98.7825 28.2455 98.7825 28.2455C98.7825 28.2455 108.386 27.0434 109.529 19.3222C110.598 22.5285 112.858 25.2016 115.842 26.7886C115.842 26.7886 115.876 18.2675 109.201 16.3269C109.201 16.3269 100.965 12.919 95.977 19.3581C90.9893 25.7971 94.2767 32.7133 95.7677 32.9678Z" fill="#263238"/>
<path d="M109.613 18.7496C109.657 19.9523 109.446 21.1507 108.993 22.2659C108.567 23.3939 107.911 24.4213 107.068 25.2835C106.857 25.5002 106.633 25.7045 106.398 25.8955L106.051 26.1953L105.678 26.4568C105.422 26.6215 105.173 26.7958 104.912 26.9428L104.095 27.3442L103.692 27.5334L103.264 27.6761L102.375 27.9558C101.798 28.089 101.209 28.1949 100.637 28.2956C101.196 28.0752 101.768 27.9243 102.31 27.7093L103.119 27.3568L103.519 27.1839L103.901 26.966C104.146 26.8161 104.397 26.6757 104.657 26.5369C104.916 26.398 105.127 26.2002 105.357 26.0393L105.713 25.7831L106.032 25.4953C106.257 25.3129 106.469 25.1146 106.665 24.902C107.468 24.0726 108.122 23.1123 108.601 22.0625C108.851 21.5351 109.055 20.9868 109.209 20.4239C109.39 19.878 109.525 19.3179 109.613 18.7496Z" fill="#263238"/>
<path d="M97.0557 32.5654C97.0557 32.5654 94.7483 28.6588 92.9975 29.4495C91.2466 30.2403 92.7738 35.7634 94.6896 36.6551C94.9276 36.7852 95.1895 36.8659 95.4595 36.8924C95.7295 36.9189 96.002 36.8906 96.2608 36.8093C96.5196 36.728 96.7594 36.5953 96.9657 36.4192C97.172 36.2431 97.3407 36.0271 97.4617 35.7843L97.0557 32.5654Z" fill="#EB9481"/>
<path d="M97.872 17.9886C97.2482 19.0032 90.897 18.8485 88.7633 14.2423C86.6297 9.63613 90.9784 5.10709 95.5839 8.26074C98.522 10.2559 99.2171 15.8338 97.872 17.9886Z" fill="#263238"/>
<path d="M89.5033 8.52291C90.7338 7.52494 92.2658 6.97275 93.85 6.95617C94.5909 6.9322 95.3249 7.1044 95.9779 7.45533C96.6308 7.80627 97.1794 8.32349 97.5681 8.95462C98.3542 10.2882 98.7618 11.8109 98.7471 13.3589C98.7637 14.1471 98.709 14.9352 98.5836 15.7136C98.4867 16.5116 98.2451 17.2853 97.8706 17.9966C98.4015 17.3585 98.7902 16.6144 99.0107 15.8141C99.2474 15.0193 99.3918 14.2 99.4413 13.3722C99.5838 11.6661 99.1929 9.9578 98.3227 8.48339C97.856 7.72858 97.186 7.12063 96.3895 6.72931C95.5931 6.33799 94.7024 6.17915 93.8198 6.27103C92.9854 6.33516 92.1728 6.56778 91.4309 6.95483C90.6889 7.34188 90.0332 7.87531 89.5033 8.52291Z" fill="#263238"/>
</svg>
