<svg width="131" height="77" viewBox="0 0 131 77" fill="none" xmlns="http://www.w3.org/2000/svg">
<path d="M68.6965 42.2746C68.2851 48.3557 66.1223 54.1876 62.4691 59.0663C58.8159 63.9451 53.8287 67.6622 48.1094 69.7687L47.8729 69.8104L47.7547 69.8313C43.7521 71.2585 39.4976 71.8427 35.2585 71.5471C33.8809 71.4657 32.5118 71.2769 31.1635 70.9825C30.9284 70.9491 30.6967 70.8947 30.4712 70.8202C30.2646 70.7867 30.061 70.7365 29.8624 70.6702C28.4246 70.3878 27.0194 69.9594 25.6687 69.3917C20.2842 67.2434 15.5986 63.6481 12.1298 59.0032C8.66098 54.3583 6.54406 48.8447 6.01305 43.0719C5.48205 37.299 6.55762 31.4918 9.12088 26.292C11.6841 21.0923 15.6353 16.7026 20.5375 13.6081C25.4397 10.5136 31.1022 8.83491 36.8989 8.75753C42.6955 8.68016 48.4008 10.2071 53.3838 13.1697C58.3669 16.1322 62.4338 20.4149 65.135 25.5443C67.8361 30.6738 69.0663 36.4503 68.6896 42.2352L68.6965 42.2746Z" fill="#37474F"/>
<path d="M46.3235 55.1854L46.2817 55.6397C46.3026 55.7579 46.2608 55.982 46.2492 56.1465C46.2376 56.3111 46.212 56.8574 46.1633 57.2723C46.1516 57.8974 46.1059 58.6368 46.1174 59.3932C46.0946 59.7086 46.0962 60.0253 46.1219 60.3405C46.1404 60.906 46.1217 61.4917 46.1495 62.1098C46.1729 62.7879 46.2379 63.464 46.3439 64.1342C46.3837 64.8014 46.4691 65.4651 46.5994 66.1207C46.6601 66.498 46.7705 66.8657 46.9276 67.214L46.9623 67.4111C47.1407 67.962 47.4535 68.8143 47.7617 69.8705C43.7591 71.2977 39.5046 71.8819 35.2654 71.5864C33.8878 71.5049 32.5187 71.3161 31.1705 71.0218C30.9354 70.9883 30.7037 70.934 30.4782 70.8594C30.2715 70.8259 30.0679 70.7758 29.8694 70.7094C29.6378 69.3959 29.6003 66.3416 29.2415 62.6939C29.0819 60.8666 28.855 58.8886 28.5933 56.9438C28.5169 56.5103 28.4521 56.1425 28.3756 55.7091L28.1069 54.1854C28.0861 54.0671 28.1711 54.0115 28.2893 53.9907C28.659 53.9554 29.032 54.0005 29.3826 54.1229C29.6321 54.1747 29.8787 54.2397 30.1212 54.3178L31.2423 54.3774L33.8685 54.5238L45.5887 55.166L45.9573 55.1822L46.3235 55.1854Z" fill="#D3766A"/>
<path d="M46.9167 67.2298C46.9167 67.2298 46.9376 67.3481 46.9492 67.4137C46.3736 67.6067 45.7831 67.7515 45.1836 67.8469C33.4368 69.7422 29.2209 55.127 29.2209 55.127L33.8878 54.4801L46.2794 55.1664C45.9254 58.8136 46.0189 62.4904 46.5576 66.1149C46.6424 66.4969 46.7626 66.8702 46.9167 67.2298Z" fill="#263238"/>
<path d="M21.8247 36.2233C21.4213 42.7683 28.8595 59.6053 34.1363 62.4942C41.7695 66.6877 52.1387 64.7374 55.2282 56.0664C58.1554 47.6272 48.0854 25.8503 42.3921 23.4412C34.0039 19.882 22.4249 26.5691 21.8247 36.2233Z" fill="#D3766A"/>
<path d="M40.7765 44.5433C40.7765 44.5433 40.7116 44.6361 40.734 44.6863C41.2685 45.7974 41.6964 47.2253 40.8178 48.0033C42.068 47.3359 41.4896 45.5147 40.7765 44.5433Z" fill="#263238"/>
<path d="M39.2893 43.7899C37.4009 44.4479 38.8437 48.1754 40.6147 47.6193C42.3856 47.0632 40.8587 43.2423 39.2893 43.7899Z" fill="#263238"/>
<path d="M47.6868 41.5645C47.6868 41.5645 47.7918 41.5459 47.8189 41.6224C48.229 42.7961 48.9126 44.1383 50.0871 44.0396C50.0871 44.0396 50.0871 44.0396 50.1009 44.1184C48.7619 44.4358 47.8929 42.7335 47.6868 41.5645Z" fill="#263238"/>
<path d="M48.2417 39.9485C50.0536 39.0872 51.6495 42.7606 49.975 43.557C48.3006 44.3533 46.731 40.6753 48.2417 39.9485Z" fill="#263238"/>
<path d="M37.1409 42.6658C37.5754 42.331 37.9915 41.9727 38.3873 41.5928C38.8548 41.1718 39.2798 40.8937 39.4383 40.2563C39.4719 40.0718 39.4408 39.8813 39.3501 39.7171C39.2595 39.5529 39.1149 39.4251 38.9408 39.3553C38.5814 39.258 38.2025 39.2589 37.8436 39.3579C37.4846 39.4569 37.1588 39.6504 36.9002 39.9183C36.2901 40.3805 35.873 41.0524 35.7294 41.8041C35.7077 41.9774 35.7364 42.1533 35.8122 42.3106C35.8881 42.4679 36.0077 42.6 36.1567 42.691C36.3058 42.782 36.4779 42.828 36.6525 42.8236C36.8271 42.8191 36.9967 42.7643 37.1409 42.6658Z" fill="#263238"/>
<path d="M49.017 37.5106C48.4653 37.6079 47.9399 37.7005 47.3851 37.7035C46.8182 37.847 46.2199 37.8002 45.6822 37.5704C45.5255 37.4699 45.4072 37.3193 45.3467 37.1432C45.2861 36.9671 45.2868 36.7756 45.3486 36.5999C45.5219 36.2681 45.7805 35.9884 46.0977 35.7896C46.415 35.5909 46.7795 35.4802 47.1537 35.469C47.9083 35.335 48.6859 35.4822 49.3394 35.8827C49.4834 35.9836 49.595 36.1242 49.6606 36.2873C49.7262 36.4505 49.7428 36.6292 49.7087 36.8017C49.6745 36.9742 49.5909 37.1331 49.4681 37.2589C49.3453 37.3848 49.1886 37.4722 49.017 37.5106Z" fill="#263238"/>
<path d="M43.712 55.1982C44.0929 55.3613 44.5186 55.6248 44.9428 55.4959C45.3741 55.3266 45.7626 55.0638 46.0802 54.7265C46.0802 54.7265 46.1591 54.7126 46.0802 54.7265C46.0012 55.0165 45.8457 55.28 45.6302 55.4895C45.4146 55.699 45.1468 55.8469 44.8547 55.9177C44.5956 55.9472 44.3335 55.9001 44.1009 55.7823C43.8683 55.6644 43.6753 55.481 43.5459 55.2546C43.583 55.2345 43.6548 55.1812 43.712 55.1982Z" fill="#263238"/>
<path d="M43.5741 51.2686C44.0448 51.6178 44.5823 51.8663 45.1533 51.9986C45.7242 52.131 46.3162 52.1443 46.8925 52.0378C47.3949 51.9462 47.8815 51.7828 48.3375 51.5528L48.5971 51.4122L48.8305 51.2763C48.8853 51.2388 48.927 51.1852 48.95 51.1229C48.973 51.0606 48.9761 50.9927 48.9587 50.9286C48.9574 50.8884 48.9504 50.8486 48.9379 50.8104L48.9194 50.7053C48.5996 49.8136 47.9886 48.4993 47.9886 48.4993C48.3726 48.5264 50.3274 48.6286 50.1034 48.1264C48.4435 44.1573 46.3822 40.3684 43.9517 36.8186C43.8628 36.6988 43.6889 36.8649 43.7399 36.9236C45.2677 40.5955 47.4222 43.9807 49.0048 47.6564C48.3059 47.61 47.6039 47.6653 46.9209 47.8207C46.8027 47.8416 48.146 50.3135 48.2642 50.7531C47.5638 51.1094 46.799 51.321 46.0151 51.3755C45.2313 51.4299 44.4445 51.326 43.7016 51.07C43.5286 51.087 43.4683 51.206 43.5741 51.2686Z" fill="#263238"/>
<path d="M47.622 51.2593C47.3873 52.0859 46.9408 52.8369 46.3267 53.438C45.9827 53.7607 45.5426 53.962 45.0734 54.0111C44.0751 54.1871 43.7137 53.2893 43.5901 52.512C43.5369 52.0899 43.5344 51.6629 43.5826 51.2402C44.8922 51.6794 46.3083 51.6861 47.622 51.2593Z" fill="#263238"/>
<path d="M46.3268 53.4378C45.9828 53.7605 45.5426 53.9618 45.0735 54.0109C44.0752 54.1869 43.7137 53.2891 43.5902 52.5118C44.0839 52.334 44.6232 52.3288 45.1202 52.497C45.6172 52.6652 46.0425 52.9968 46.3268 53.4378Z" fill="#FF98B9"/>
<path d="M26.2112 51.2694C26.2112 51.2694 18.1684 42.4485 17.5866 36.5377C17.3205 33.8759 20.5404 31.3985 20.5404 31.3985C20.0539 30.3852 19.8603 29.2561 19.9816 28.1386C20.1028 27.0211 20.5341 25.9598 21.2266 25.0744C23.7483 21.5554 31.376 20.7251 31.376 20.7251C31.376 20.7251 34.8424 12.7325 42.272 14.1583C49.7015 15.5841 46.7519 24.2034 46.7519 24.2034C46.7519 24.2034 50.0043 27.2867 44.3758 31.3129C38.7473 35.3392 26.0628 34.9889 26.0628 34.9889C27.4708 39.0957 28.2554 43.3902 28.3906 47.7295C28.3864 48.4625 28.181 49.1804 27.7967 49.8046C27.4123 50.4289 26.8639 50.9356 26.2112 51.2694Z" fill="#263238"/>
<path d="M32.5721 20.5956C30.9145 20.2727 29.2078 20.2969 27.56 20.6668C26.0784 20.936 24.654 21.4575 23.3488 22.2084C22.1582 22.8151 21.1555 23.735 20.4486 24.8691C19.7417 26.0032 19.3575 27.3085 19.3371 28.6447C19.365 29.3307 19.5305 30.004 19.8237 30.6247C20.117 31.2454 20.532 31.8008 21.0442 32.2579C21.0442 32.2579 21.1493 32.2394 21.1099 32.2463C19.1275 30.6049 19.3558 27.3683 20.675 25.4021C22.3376 23.2536 24.7282 21.7868 27.3969 21.2779C29.0964 20.9166 30.8331 20.7604 32.5698 20.8127C32.5986 20.813 32.6263 20.8019 32.6469 20.7817C32.6675 20.7616 32.6792 20.7341 32.6795 20.7053C32.6798 20.6765 32.6687 20.6488 32.6486 20.6282C32.6284 20.6077 32.6009 20.5959 32.5721 20.5956Z" fill="#263238"/>
<path d="M47.8487 16.5196C47.3464 15.6703 46.6438 14.957 45.8022 14.442C44.9606 13.927 44.0057 13.6259 43.0209 13.5651C40.7439 13.3359 38.4555 13.8729 36.5181 15.0909C34.592 16.3283 33.0272 18.0526 31.9819 20.0893C31.9819 20.0893 31.9982 20.1813 32.0476 20.0777C32.9959 18.2784 34.4103 16.7669 36.1427 15.7014C37.8752 14.6358 39.8622 14.0554 41.8958 14.0208C42.8362 13.9758 43.7745 14.1449 44.6399 14.5156C45.5053 14.8862 46.2752 15.4485 46.8915 16.1602C47.4089 16.8953 47.7581 17.7355 47.9143 18.6209C48.0704 19.5062 48.0296 20.4151 47.7948 21.2829C47.1346 23.3512 45.9056 25.1919 44.2483 26.5944C44.2483 26.5944 44.2645 26.6863 44.2483 26.5944C45.8369 25.381 47.0973 23.79 47.9152 21.966C48.288 21.1046 48.4748 20.1742 48.4633 19.2357C48.4519 18.2972 48.2425 17.3716 47.8487 16.5196Z" fill="#263238"/>
<path d="M45.9358 31.404C43.4129 33.0541 40.5691 34.151 37.5916 34.6224C34.4932 35.1448 31.3476 35.3316 28.2092 35.1797C26.3951 35.1069 24.5825 34.966 22.7235 34.7927C22.7235 34.7927 22.6563 34.8722 22.7374 34.8715C25.9891 35.5653 29.3053 35.9113 32.6302 35.9036C35.711 35.8758 38.7562 35.2422 41.5924 34.0389C43.1455 33.3673 44.6085 32.5042 45.9474 31.4697C45.9474 31.4697 45.9729 31.3839 45.9358 31.404Z" fill="#263238"/>
<path d="M29.0184 49.678C29.0184 49.678 23.5827 45.0429 21.3897 47.1226C19.1966 49.2022 24.3012 56.6451 27.6112 56.9824C28.0326 57.0557 28.4645 57.0427 28.8807 56.9442C29.297 56.8458 29.6889 56.6638 30.0327 56.4095C30.3766 56.1551 30.6653 55.8336 30.8813 55.4644C31.0973 55.0952 31.2361 54.6861 31.2894 54.2617L29.0184 49.678Z" fill="#D3766A"/>
<path d="M22.9116 49.2246C22.9116 49.2246 22.9232 49.2903 22.9255 49.3034C24.0229 49.5334 25.0596 49.9914 25.9686 50.6477C26.8776 51.3041 27.6386 52.1441 28.2022 53.1133C28.0228 52.9321 27.8063 52.792 27.5675 52.7027C27.3287 52.6134 27.0734 52.5771 26.8192 52.5962C26.565 52.6152 26.3179 52.6893 26.0951 52.8132C25.8723 52.9371 25.6791 53.1079 25.5288 53.3138C25.5288 53.3138 25.5519 53.4452 25.613 53.4073C25.9557 53.1938 26.3558 53.0905 26.759 53.1114C27.1623 53.1323 27.5495 53.2764 27.8683 53.5243C28.3909 53.9517 28.8699 54.4298 29.2983 54.9516C29.4489 55.1146 29.7449 54.8728 29.6383 54.7291C28.9479 51.966 25.874 48.7429 22.9116 49.2246Z" fill="#263238"/>
<rect x="106.853" y="0.0585938" width="24" height="24" rx="12" transform="rotate(10.2389 106.853 0.0585938)" fill="#0F9D58"/>
<g clip-path="url(#clip0_673_1532)">
<path d="M114.561 13.644L115.636 15.1931L118.734 13.0429M111.583 10.8163C111.565 10.3677 111.661 9.92179 111.861 9.52001C112.061 9.11824 112.36 8.77356 112.729 8.51796C113.098 8.26235 113.526 8.10409 113.973 8.05783C114.419 8.01158 114.87 8.07884 115.284 8.25337C115.588 7.92511 115.97 7.67874 116.395 7.53697C116.819 7.39521 117.273 7.3626 117.713 7.44217C118.154 7.52174 118.567 7.71092 118.915 7.99227C119.264 8.27362 119.535 8.63809 119.706 9.05208C120.155 9.03299 120.602 9.12785 121.005 9.32784C121.407 9.52783 121.753 9.82645 122.01 10.1959C122.266 10.5654 122.425 10.9937 122.471 11.441C122.518 11.8884 122.45 12.3402 122.275 12.7544C122.603 13.0588 122.85 13.4408 122.992 13.8654C123.133 14.29 123.166 14.7435 123.086 15.184C123.007 15.6245 122.818 16.0379 122.536 16.386C122.255 16.7342 121.89 17.0059 121.476 17.1762C121.495 17.6248 121.4 18.0709 121.201 18.4731C121.001 18.8753 120.703 19.2206 120.335 19.4769C119.966 19.7333 119.539 19.8925 119.092 19.9397C118.646 19.9869 118.195 19.9205 117.781 19.7469C117.476 20.0766 117.094 20.3243 116.668 20.4668C116.243 20.6094 115.788 20.6424 115.347 20.5626C114.905 20.4829 114.491 20.293 114.142 20.0106C113.794 19.7282 113.522 19.3623 113.352 18.947C112.904 18.9658 112.458 18.871 112.055 18.6714C111.653 18.4719 111.308 18.174 111.052 17.8054C110.795 17.4368 110.636 17.0094 110.589 16.5629C110.542 16.1164 110.608 15.6652 110.782 15.2512C110.45 14.947 110.202 14.5639 110.058 14.1377C109.915 13.7114 109.881 13.2558 109.961 12.8132C110.041 12.3706 110.232 11.9555 110.515 11.6063C110.799 11.2572 111.166 10.9854 111.583 10.8163Z" stroke="white" stroke-width="1.33333" stroke-linecap="round" stroke-linejoin="round"/>
</g>
<path d="M102.638 66.9905C99.6119 68.2089 96.4096 68.9335 93.1536 69.1368C85.3351 69.6516 77.6099 67.1995 71.5195 62.2698C65.4292 57.3402 61.4214 50.2954 60.2959 42.5412C59.1703 34.7871 61.0098 26.8936 65.4473 20.4358C69.8848 13.978 76.594 9.4308 84.2362 7.70141C91.8784 5.97202 99.8917 7.18763 106.677 11.1057C113.463 15.0238 118.521 21.3562 120.844 28.8395C123.167 36.3228 122.582 44.4067 119.208 51.4782C115.833 58.5497 109.917 64.0889 102.638 66.9905Z" fill="#A6A6A6"/>
<path d="M110.638 61.1745C110.629 61.2691 110.583 61.3565 110.511 61.4188C110.44 61.481 110.347 61.5134 110.252 61.5093L108.754 61.2452C108.271 57.2239 107.525 53.9366 107.626 55.1714C107.788 57.1161 107.674 59.0738 107.289 60.9868L104.341 60.4251C104.7 53.6315 104.289 48.4395 104.048 49.9496C103.056 56.0525 102.284 57.9055 101.459 59.8749C94.3485 58.5037 85.0515 56.5874 78.3655 55.0476C78.4037 51.2608 78.6157 47.2025 78.4381 47.4482C77.0705 49.2549 76.1492 52.1474 75.6157 54.4117C73.4883 53.9107 71.7967 53.4613 70.805 53.1354C70.805 53.1354 70.999 49.9887 71.1482 48.9995C71.5335 46.4099 72.3668 43.9071 73.6106 41.6033C74.9559 39.3581 76.522 37.2529 78.2856 35.3189C79.3919 34.0127 80.345 32.5842 81.1262 31.0611C81.6768 29.9416 82.1345 28.7788 82.4946 27.5844C83.8102 23.2171 87.0066 19.9872 91.1659 19.7218C100.19 14.0952 106.84 19.0278 107.763 25.2668C107.856 25.8792 107.92 26.5619 107.965 27.3084C108.135 30.0576 108.054 33.56 108.061 36.2805C108.065 37.3472 108.133 38.4128 108.263 39.4716C109.101 44.5711 112.726 48.2401 110.638 61.1745Z" fill="#263238"/>
<path d="M89.205 20.4677C87.797 20.808 86.5012 21.5074 85.444 22.4977C84.3868 23.488 83.6044 24.7355 83.173 26.1183C82.6327 27.9626 81.8666 29.7331 80.8923 31.3897C79.7587 32.9613 78.3984 34.3563 76.8557 35.5289C74.4618 37.3457 72.6685 39.8392 71.7077 42.6867C70.573 45.9875 70.0944 49.4783 70.2986 52.9627C70.2984 49.3479 70.9898 45.7664 72.3354 42.4113C73.6865 39.0322 76.0444 37.2743 78.5491 35.0638C80.5592 33.3141 82.0797 31.0717 82.9612 28.5568C83.525 26.9777 83.8691 25.3598 84.8198 23.9664C85.9617 22.51 87.5146 21.4301 89.2774 20.8665C89.5354 20.7358 89.4286 20.3896 89.205 20.4677Z" fill="#263238"/>
<path d="M111.447 45.4965C110.223 42.5363 108.829 39.9238 108.486 36.5397C108.19 33.4577 108.308 30.3144 107.973 27.2172C107.981 27.1683 107.891 27.2028 107.908 27.2057C108.268 32.6323 107.407 37.8015 109.48 42.7998C110.604 45.5158 111.768 48.0542 112.215 51.0873C112.656 54.2685 112.532 57.5027 111.848 60.6407C111.828 60.7547 111.965 60.7872 111.995 60.6666C113.598 55.7022 113.404 50.3323 111.447 45.4965Z" fill="#263238"/>
<path d="M105.887 65.466C105.281 65.8041 104.669 66.0905 104.045 66.3918C103.588 66.6049 103.132 66.8099 102.648 66.9847L102.558 67.0192C102.114 67.2012 101.658 67.364 101.202 67.5187L100.604 67.7238C99.2685 68.1648 97.9034 68.5103 96.5189 68.7576C96.195 68.8179 95.867 68.8692 95.535 68.9114C94.769 69.0197 93.9828 69.0993 93.1928 69.153L92.5579 69.1838C92.4827 68.9439 92.398 68.7107 92.3295 68.4805C92.29 68.382 92.2573 68.2809 92.2317 68.1779C92.0454 67.6163 91.8643 67.0724 91.6804 66.5448C91.6427 66.4456 91.6101 66.3446 91.5827 66.2422C91.4045 65.682 91.2397 65.141 91.0869 64.6273C91.0539 64.5291 91.0208 64.431 90.9959 64.3343C90.8206 63.7578 90.6654 63.2101 90.5207 62.6978C90.4877 62.5997 90.4628 62.503 90.4379 62.4063C90.2785 61.8186 90.1381 61.2819 90.0168 60.7961C89.9919 60.6994 89.967 60.6027 89.9502 60.5074L89.966 60.4179C89.8654 59.9889 89.7533 59.4824 89.6445 58.9093C89.6603 58.8197 89.6042 58.7091 89.5808 58.6043C89.5079 58.2557 89.4394 57.8827 89.3819 57.4949C89.3508 57.3384 89.3196 57.1818 89.2981 57.0185L89.2492 56.7246C89.1725 56.2075 89.0906 55.6727 89.0263 55.1326C89.0421 55.0431 89.0091 54.9449 88.9937 54.8415C88.9362 54.311 88.8868 53.7819 88.8604 53.2653C88.8762 53.1758 88.8431 53.0777 88.8426 52.9852L88.8613 52.8794C88.831 52.3953 88.827 51.9099 88.8491 51.4253C88.8437 51.3306 88.8464 51.2356 88.8572 51.1414C88.8653 50.6268 88.9247 50.1144 89.0346 49.6116C89.0425 49.5181 89.0589 49.4255 89.0834 49.3349C89.1849 48.7761 89.4603 48.2636 89.8704 47.8706C89.9787 47.7771 90.0997 47.6996 90.2299 47.6403L90.3798 47.5996L90.5459 47.5617L90.5948 47.5703L90.6354 47.5775C91.0112 47.5649 91.3855 47.6309 91.7343 47.7713L92.013 47.9043C92.1475 47.9667 92.278 48.0374 92.4037 48.1159C93.1351 48.5689 93.8153 49.0997 94.4326 49.699C94.8018 50.0326 95.1964 50.4128 95.6067 50.846C97.86 53.4514 99.9131 56.2234 101.748 59.1383C103.11 61.1242 104.514 63.302 105.887 65.466Z" fill="#EB9481"/>
<path d="M106.993 64.8549C106.628 65.0675 106.265 65.272 105.881 65.4981C105.276 65.8362 104.663 66.1226 104.039 66.4238C103.582 66.6369 103.126 66.8419 102.642 67.0168L102.552 67.0512C102.108 67.2332 101.652 67.3961 101.196 67.5508L100.598 67.7558C99.2636 68.1856 97.9005 68.5202 96.5188 68.7571C96.1948 68.8174 95.8668 68.8687 95.5349 68.9109C94.7688 69.0192 93.9827 69.0988 93.1927 69.1525L92.5578 69.1833L92.0005 69.2025C91.9133 68.9353 91.8343 68.6696 91.7552 68.4039C91.736 68.3134 91.7096 68.2245 91.6762 68.1382L91.4511 67.3683L91.2039 66.4855C91.1708 66.3873 91.1459 66.2906 91.121 66.1939C90.9658 65.6462 90.8091 65.1066 90.6673 64.578L90.5926 64.2879L90.1893 62.8152C90.1764 62.7725 90.1673 62.7287 90.162 62.6845L90.0872 62.3943C89.9416 61.8399 89.8012 61.3032 89.6743 60.7856L89.5996 60.4955L89.4515 59.9071L89.2206 58.8844C89.2364 58.7949 89.1804 58.6843 89.1554 58.5876C89.085 58.273 89.0199 57.9762 88.9571 57.7133L88.9298 57.5826C88.9298 57.5826 88.9441 57.5012 88.9106 57.4533C88.9264 57.3638 88.8689 57.2613 88.8507 57.1742L88.8292 57.0109C88.8043 56.9142 88.7875 56.8189 88.7707 56.7237L88.7822 56.6586C88.684 56.1209 88.5977 55.6105 88.5397 55.1303C88.5397 55.1303 88.5196 54.9589 88.5014 54.8717C88.4319 54.3139 88.3825 53.7849 88.3599 53.2941C88.3757 53.2046 88.3915 53.1151 88.3503 53.0155C88.3378 52.7531 88.3306 52.5084 88.3397 52.2666C88.3698 52.0957 88.3415 51.9229 88.3458 51.7558C88.3584 51.7077 88.3671 51.6587 88.3716 51.6092C88.3803 51.5604 88.3889 51.5116 88.3975 51.4627C88.4052 51.372 88.421 51.2821 88.4448 51.1941C88.4569 51.1488 88.4651 51.1025 88.4692 51.0558C88.4764 51.0151 88.485 50.9662 88.4922 50.9255C88.4994 50.8848 88.5367 50.6732 88.5582 50.5511C88.6112 50.2574 88.682 49.9672 88.7702 49.682C88.7874 49.5844 88.8047 49.4867 88.8679 49.4139C89.057 48.8619 89.4082 48.3798 89.8755 48.0305L89.9411 47.9917C90.078 47.896 90.2297 47.8235 90.3902 47.7772L90.54 47.7365L90.7062 47.6986L90.7876 47.713L90.8283 47.7201C90.9601 47.7066 91.0927 47.7019 91.2252 47.7062C91.4259 47.7243 91.6246 47.7593 91.8194 47.811C92.366 47.9715 92.8895 48.2021 93.377 48.4969C93.8425 48.7672 94.285 49.0754 94.7 49.4184C96.0907 50.5432 97.3549 51.8158 98.4706 53.2137C99.6462 54.638 100.904 56.3117 102.205 58.0686C103.807 60.122 105.426 62.5057 106.993 64.8549Z" fill="#37474F"/>
<path opacity="0.1" d="M104.037 66.389C103.579 66.6021 103.124 66.8071 102.64 66.9819L102.55 67.0164C102.106 67.1984 101.649 67.3613 101.194 67.516L100.596 67.721C99.263 68.1622 97.9006 68.5081 96.5189 68.7562C96.1949 68.8166 95.8669 68.8679 95.535 68.9101C94.7689 69.0184 93.9828 69.098 93.1928 69.1517L92.5579 69.1824L92.0006 69.2017C91.9134 68.9345 91.8344 68.6688 91.7553 68.4031C91.729 68.3145 91.7026 68.2259 91.6681 68.1359L91.443 67.366C91.3601 67.0745 91.2677 66.7896 91.1877 66.4817C91.1628 66.385 91.1379 66.2883 91.1048 66.1902C90.9496 65.6425 90.793 65.1029 90.6512 64.5743L90.5764 64.2842L90.1731 62.8114L90.1376 62.6793L90.0629 62.3892C89.9173 61.8347 89.7769 61.298 89.65 60.7805L89.5752 60.4903L89.4272 59.9019L89.1881 58.8778C89.2039 58.7883 89.1479 58.6777 89.123 58.581C89.0526 58.2664 88.9874 57.9696 88.9247 57.7067L88.8973 57.576C88.8808 57.5343 88.8715 57.4901 88.87 57.4453C88.8858 57.3558 88.8284 57.2533 88.8101 57.1662L88.779 57.0096C88.7962 56.9119 88.7387 56.8095 88.722 56.7142L88.7335 56.6491C88.6352 56.1114 88.549 55.601 88.491 55.1208C88.4731 55.0362 88.463 54.9502 88.4608 54.8637C88.3913 54.3059 88.3419 53.7769 88.3193 53.2861C88.3351 53.1966 88.3509 53.107 88.3097 53.0074C88.2972 52.7451 88.29 52.5004 88.2991 52.2586C88.3292 52.0877 88.3009 51.9148 88.3052 51.7477C88.3178 51.6997 88.3265 51.6507 88.3311 51.6012C88.3356 51.5518 88.3443 51.5028 88.3569 51.4547L88.4042 51.1861C88.4084 51.1394 88.4166 51.0931 88.4286 51.0477C88.4358 51.007 88.4444 50.9582 88.4516 50.9175C88.4588 50.8768 88.4961 50.6652 88.5176 50.5431C88.5706 50.2493 88.6414 49.9591 88.7296 49.674C88.7468 49.5763 88.7641 49.4787 88.8273 49.4059C89.0164 48.8539 89.3676 48.3718 89.8349 48.0225L89.9005 47.9837C90.0407 47.8939 90.1916 47.8218 90.3496 47.7691L90.4994 47.7284L90.7159 47.6911L90.7566 47.6982C90.8884 47.6846 91.021 47.68 91.1535 47.6843C91.3541 47.7024 91.5529 47.7374 91.7477 47.7891L91.8468 47.9408L91.9206 48.0461L92.1255 48.3593L93.2495 50.0765L93.4626 50.3911L94.316 51.6914L94.5827 52.0825L94.7877 52.3956L95.9198 54.1143L96.1181 54.4178L97.2435 56.127L97.4484 56.4401L98.2376 57.6283L99.6269 59.7449L104.037 66.389Z" fill="#0C0C0C"/>
<path d="M102.548 67.0246C102.105 67.2066 101.648 67.3695 101.193 67.5242L100.594 67.7292C99.2618 68.1676 97.8999 68.5108 96.5189 68.7563C96.1949 68.8167 95.8669 68.8679 95.535 68.9101C94.7689 69.0184 93.9828 69.098 93.1928 69.1518L92.5579 69.1825L92.0006 69.2017C87.4734 69.3355 82.9724 68.4703 78.8176 66.6674L77.9313 66.2677C77.5592 66.093 77.1968 65.9116 76.8357 65.722C76.7574 65.692 76.6826 65.6534 76.6126 65.6072L76.4287 65.5076C76.4063 65.5121 76.3831 65.508 76.3636 65.4961C75.5941 65.1003 74.9132 64.6781 74.2203 64.2286L73.6802 63.8648C72.818 63.282 71.9875 62.6537 71.1921 61.9825L70.8134 61.6555L70.4494 61.3396C70.029 60.9633 69.6263 60.5818 69.2264 60.1839L69.4045 59.888C69.461 59.8057 69.5093 59.7219 69.5673 59.6314C69.8626 59.1463 70.1661 58.6627 70.4667 58.1953C70.5164 58.1069 70.5707 58.0213 70.6295 57.9387C70.9344 57.4469 71.2542 56.9662 71.5711 56.5017C71.629 56.4112 71.6855 56.3288 71.7515 56.2398C72.0809 55.7523 72.4169 55.2744 72.7487 54.821C72.807 54.7309 72.87 54.644 72.9373 54.5605L73.3983 53.9452C73.606 53.6713 73.8138 53.3973 74.0187 53.1397C74.0199 53.1149 74.0242 53.0903 74.0316 53.0665C74.0466 53.0423 74.0646 53.0201 74.0852 53.0004L74.191 52.8764C74.5706 52.3894 74.9636 51.9215 75.3509 51.4863C75.4221 51.3972 75.4987 51.3126 75.5802 51.233C76.0211 50.7316 76.463 50.2724 76.9087 49.839C76.9864 49.7523 77.0707 49.6717 77.161 49.5981C77.453 49.3223 77.7517 49.0561 78.0543 48.8157C78.1727 48.7076 78.297 48.6062 78.4268 48.512C78.5244 48.4281 78.6278 48.351 78.736 48.2812L78.9002 48.1591L79.063 48.0451C79.6724 47.5992 80.3199 47.2078 80.9981 46.8757C81.0704 46.8307 81.1473 46.7936 81.2275 46.765C81.3026 46.7204 81.3822 46.6838 81.4649 46.6558L81.7091 46.5562C83.2406 45.8749 84.9149 45.5767 86.5874 45.6875C88.4948 45.7997 90.3265 46.4731 91.8525 47.623C91.9631 47.7096 92.0752 47.7881 92.1762 47.8815C92.2408 47.927 92.3021 47.977 92.3596 48.0313L92.4084 48.0399C92.4652 48.0841 92.5184 48.1328 92.5674 48.1855C92.9578 48.5344 93.3235 48.9101 93.6616 49.31C93.8208 49.5149 93.965 49.7311 94.0931 49.9568L94.1841 50.1071L94.2751 50.2574C94.5495 50.7003 94.8636 51.2509 95.2391 51.9297L95.3153 52.069L95.3967 52.2261L96.3076 53.9142L96.4652 54.2105C96.7482 54.7472 97.0365 55.3016 97.3353 55.8915C97.3558 55.9451 97.3803 55.9971 97.4086 56.0471L97.4833 56.1945C97.685 56.5742 97.877 56.9605 98.1165 57.3636L98.3698 57.8783C98.411 57.9779 98.4685 58.0803 98.5178 58.1814C98.7233 58.5869 98.9206 58.991 99.1409 59.4075L99.3569 59.8484L99.4436 60.0232C99.7328 60.6197 100.014 61.2148 100.296 61.852C100.317 61.9121 100.343 61.9701 100.375 62.0253L100.429 62.1441C100.701 62.7459 100.98 63.3491 101.241 63.9658C101.502 64.5824 101.781 65.1857 102.028 65.7832L102.095 65.9292L102.152 66.0819C102.302 66.419 102.425 66.7259 102.548 67.0246Z" fill="#37474F"/>
<path opacity="0.1" d="M87.3966 49.0951L87.0547 49.0348C87.0389 49.1244 87.0231 49.2139 87.0059 49.3116L87.3559 49.3733L88.5611 49.5354C88.5783 49.4377 88.5955 49.3401 88.6587 49.2673L87.3966 49.0951ZM88.2438 51.0489L87.3729 50.8954C87.4336 50.9956 87.4992 51.0995 87.5697 51.207L88.2209 51.3218L88.2438 51.0489ZM87.3966 49.0951L87.0547 49.0348C87.0389 49.1244 87.0231 49.2139 87.0059 49.3116L87.3559 49.3733L88.5611 49.5354C88.5783 49.4377 88.5955 49.3401 88.6587 49.2673L87.3966 49.0951ZM87.3966 49.0951L87.0547 49.0348C87.0389 49.1244 87.0231 49.2139 87.0059 49.3116L87.3559 49.3733L88.5611 49.5354C88.5783 49.4377 88.5955 49.3401 88.6587 49.2673L87.3966 49.0951ZM87.3966 49.0951L87.0547 49.0348C87.0389 49.1244 87.0231 49.2139 87.0059 49.3116L87.3559 49.3733L88.5611 49.5354C88.5783 49.4377 88.5955 49.3401 88.6587 49.2673L87.3966 49.0951ZM92.4353 48.0784L92.3864 48.0698L92.2193 47.9228L91.8123 47.8511L90.1729 47.6291L87.4667 47.2694L87.1086 47.2063L86.0825 47.0757L82.3028 46.5687L81.8226 46.4841L81.7656 46.474L81.5214 46.5736C81.4387 46.6016 81.3591 46.6382 81.284 46.6828L81.7723 46.7689L85.97 47.3329L87.1426 47.4893L87.4926 47.551L89.6898 47.8461L89.7875 47.8633L92.0092 48.1627L92.5626 48.2603C92.5227 48.1955 92.4774 48.1342 92.4271 48.077L92.4353 48.0784ZM87.0518 49.0511C87.0361 49.1406 87.0203 49.2302 87.003 49.3278L87.353 49.3896L88.5582 49.5517C88.5754 49.454 88.5926 49.3563 88.6558 49.2836L87.41 49.1142L87.0518 49.0511ZM87.3937 49.1114L87.0518 49.0511C87.0361 49.1406 87.0203 49.2302 87.003 49.3278L87.353 49.3896L88.5582 49.5517C88.5754 49.454 88.5926 49.3563 88.6558 49.2836L87.3937 49.1114ZM87.3937 49.1114L87.0518 49.0511C87.0361 49.1406 87.0203 49.2302 87.003 49.3278L87.353 49.3896L88.5582 49.5517C88.5754 49.454 88.5926 49.3563 88.6558 49.2836L87.3937 49.1114ZM87.3937 49.1114L87.0518 49.0511C87.0361 49.1406 87.0203 49.2302 87.003 49.3278L87.353 49.3896L88.5582 49.5517C88.5754 49.454 88.5926 49.3563 88.6558 49.2836L87.3937 49.1114ZM88.241 51.0652L87.37 50.9116C87.4307 51.0119 87.4963 51.1158 87.5668 51.2233L88.218 51.3381L88.241 51.0652ZM94.2162 50.1633L94.1252 50.013L93.1647 49.8436L89.0647 49.2969L88.6822 49.2295L87.4363 49.0601L87.0944 48.9999L86.3944 48.8764L79.3996 47.9452L79.1717 47.905L79.0089 48.019L78.8447 48.1411L79.0075 48.1698L86.5343 49.178L87.0389 49.267L87.3889 49.3287L88.5941 49.4909L89.0092 49.5641L93.42 50.1572L94.3551 50.2801L94.2162 50.1633ZM85.626 52.568L78.3937 51.6033C78.3779 51.6928 78.3621 51.7824 78.3449 51.8801L85.447 52.8218L85.9679 52.9137C85.9837 52.8241 86.0498 52.7351 86.0981 52.6513L85.626 52.568ZM85.626 52.568L78.3937 51.6033C78.3779 51.6928 78.3621 51.7824 78.3449 51.8801L85.447 52.8218L85.9679 52.9137C85.9837 52.8241 86.0498 52.7351 86.0981 52.6513L85.626 52.568ZM85.626 52.568L78.3937 51.6033C78.3779 51.6928 78.3621 51.7824 78.3449 51.8801L85.447 52.8218L85.9679 52.9137C85.9837 52.8241 86.0498 52.7351 86.0981 52.6513L85.626 52.568ZM85.626 52.568L78.3937 51.6033C78.3779 51.6928 78.3621 51.7824 78.3449 51.8801L85.447 52.8218L85.9679 52.9137C85.9837 52.8241 86.0498 52.7351 86.0981 52.6513L85.626 52.568ZM95.3498 52.1592L95.2818 52.0213L94.4678 51.8778L94.1666 51.8247L88.7638 51.0987L88.2347 51.0054L87.3638 50.8518L86.8836 50.7671L86.4684 50.6939L78.4571 49.6254L77.2031 49.4546C77.1129 49.5282 77.0285 49.6088 76.9508 49.6955L77.0973 49.7213L78.4667 49.9041L86.3775 50.9716L86.8008 51.0463L87.574 51.1826L88.2252 51.2974L88.7706 51.3936L94.1327 52.1125L94.6862 52.2101L95.4269 52.3407C95.3948 52.2751 95.3704 52.206 95.3541 52.1348L95.3498 52.1592ZM78.3937 51.6033C78.3779 51.6928 78.3621 51.7824 78.3449 51.8801L85.447 52.8218L85.9679 52.9137C85.9837 52.8241 86.0498 52.7351 86.0981 52.6513L85.5853 52.5609L78.3937 51.6033ZM85.626 52.568L78.3937 51.6033C78.3779 51.6928 78.3621 51.7824 78.3449 51.8801L85.447 52.8218L85.9679 52.9137C85.9837 52.8241 86.0498 52.7351 86.0981 52.6513L85.626 52.568ZM85.626 52.568L78.3937 51.6033C78.3779 51.6928 78.3621 51.7824 78.3449 51.8801L85.447 52.8218L85.9679 52.9137C85.9837 52.8241 86.0498 52.7351 86.0981 52.6513L85.626 52.568ZM85.626 52.568L78.3937 51.6033C78.3779 51.6928 78.3621 51.7824 78.3449 51.8801L85.447 52.8218L85.9679 52.9137C85.9837 52.8241 86.0498 52.7351 86.0981 52.6513L85.626 52.568ZM96.3502 54.0058L95.8211 53.9125L93.7882 53.638L88.8685 52.9803L88.7545 52.9602L88.1685 52.8569L86.1177 52.5876L85.6049 52.4972L78.3726 51.5324L76.4631 51.2713L75.5759 51.1149C75.4944 51.1945 75.4178 51.2791 75.3466 51.3682L76.3713 51.5069L78.3717 51.7757L85.4738 52.7174L85.9947 52.8093L88.1852 53.0948L88.7794 53.1996L89.1783 53.2699L93.6556 53.8664L95.983 54.1844L96.4714 54.2705C96.4279 54.176 96.3889 54.0795 96.3546 53.9814L96.3502 54.0058ZM97.4594 56.1401C97.4311 56.0902 97.4066 56.0382 97.3861 55.9845L97.1419 55.9414L88.9041 54.8246L88.3262 54.7227L85.2427 54.3133L84.6323 54.2056L78.3365 53.3557L75.918 53.03L74.1877 52.8004C74.1548 52.8405 74.1249 52.8829 74.0981 52.9273C74.0445 52.9934 74.0445 52.9934 73.9909 53.0595L75.8515 53.312L78.3121 53.6368L84.4614 54.4609L85.0718 54.5685L88.3507 55.0124L88.9205 55.1128L97.2995 56.2378L97.4867 56.2708L97.4594 56.1401ZM98.3852 57.9819L89.1864 56.746L88.6573 56.6527L84.2141 56.0538L83.5629 55.939L80.1931 55.4875L80.1442 55.4789L72.9215 54.5075C72.8542 54.591 72.7912 54.678 72.7329 54.768L83.392 56.1942L84.0269 56.3062L88.6995 56.9371L89.2205 57.0289L98.5183 58.2739C98.491 58.1432 98.4091 58.0365 98.4249 57.9469L98.3852 57.9819ZM99.4345 60.1224L99.3478 59.9477L89.5099 58.6242L89.0378 58.541L83.0039 57.7288L82.3853 57.6198L71.7262 56.1935C71.6601 56.2826 71.6036 56.3649 71.5457 56.4554L82.2034 57.8898L82.8139 57.9975L89.1111 58.8393L89.575 58.9211L99.4795 60.2479L99.4345 60.1224ZM100.37 62.1002C100.339 62.0449 100.312 61.9869 100.291 61.9269L89.9281 60.536L89.4967 60.4599L81.7406 59.4196L81.6673 59.4067L81.1708 59.3192L70.6027 57.9005C70.5439 57.9831 70.4896 58.0688 70.4399 58.1572L80.9999 59.5744L81.4639 59.6562L81.5616 59.6734L89.5796 60.7515L90.0029 60.8261L100.433 62.2204C100.406 62.1701 100.387 62.1158 100.377 62.0595L100.37 62.1002ZM101.247 64.0258L101.173 63.8783L90.4158 62.4348L89.9844 62.3588L80.4897 61.0874L80.2537 61.0458L79.9037 60.9841L69.4998 59.586C69.4826 59.6837 69.3935 59.7603 69.337 59.8427L79.7084 61.235L80.0339 61.2924L80.2619 61.3326L90.0266 62.6432L90.458 62.7192L101.264 64.1713L101.247 64.0258ZM102.101 65.9892L102.035 65.8432L90.9739 64.3628L90.5099 64.281L79.6947 62.8356L78.6447 62.6505L70.7894 61.6011L71.1682 61.9281L78.4412 62.9L79.3773 63.065L90.5942 64.5645L91.0663 64.6477L102.16 66.1338L102.101 65.9892ZM90.507 64.2973L79.6918 62.8519L79.0244 62.7342L78.8128 62.9823L79.3744 63.0813L90.5913 64.5808L90.507 64.2973ZM91.5607 66.2708L91.056 66.1818L77.897 64.4154L77.3029 64.3107L73.6549 63.8185L74.195 64.1823L77.0898 64.5668L77.4073 64.6228L77.684 64.6716L91.1388 66.4734L91.6598 66.5652L100.589 67.7619L101.187 67.5569L91.5607 66.2708ZM79.1274 63.0545L79.3634 63.0961L90.5803 64.5956L90.5056 64.3055L79.6904 62.8601L79.0229 62.7424L78.8114 62.9904L79.1369 63.0478L79.1274 63.0545ZM90.507 64.2973L79.6918 62.8519L79.0244 62.7342L78.8128 62.9823L79.3744 63.0813L90.5913 64.5808L90.507 64.2973ZM92.1853 68.2021L91.6236 68.1031L77.8973 66.2703L78.7836 66.6699L91.7132 68.4042L92.283 68.5047L95.4886 68.9357C95.8205 68.8935 96.1485 68.8422 96.4725 68.7818L92.1853 68.2021ZM91.0435 66.2048L77.8846 64.4384C77.8104 64.526 77.7443 64.6151 77.6716 64.6946L91.1264 66.4963C91.1087 66.3589 91.0838 66.2622 91.0507 66.1641L91.0435 66.2048ZM92.1853 68.2021L91.6236 68.1031L77.8973 66.2703L78.7836 66.6699L91.7132 68.4042L92.283 68.5047C92.244 68.3928 92.2138 68.278 92.1924 68.1614L92.1853 68.2021ZM91.0435 66.2048L77.8846 64.4384C77.8104 64.526 77.7443 64.6151 77.6716 64.6946L91.1264 66.4963C91.1087 66.3589 91.0838 66.2622 91.0507 66.1641L91.0435 66.2048ZM92.1853 68.2021L91.6236 68.1031L77.8973 66.2703L78.7836 66.6699L91.7132 68.4042L92.283 68.5047C92.244 68.3928 92.2138 68.278 92.1924 68.1614L92.1853 68.2021Z" fill="#0C0C0C"/>
<path d="M87.0438 49.0495C87.0281 49.139 87.0123 49.2286 86.995 49.3263C86.9428 49.5282 86.8797 49.7272 86.806 49.9224C86.7105 50.2245 86.5993 50.5215 86.4729 50.812C86.4571 50.9016 86.4006 50.9839 86.3671 51.0787C86.1603 51.5375 85.9234 52.0244 85.6467 52.5463C85.6309 52.6359 85.5582 52.7154 85.5084 52.8073C85.2595 53.267 84.9818 53.7468 84.6659 54.2534L84.5113 54.5115C84.2203 54.9721 83.9086 55.4543 83.5683 55.9566L83.3974 56.2118L83.3873 56.2688C83.069 56.7414 82.7454 57.1963 82.4328 57.6364C82.3749 57.7269 82.3088 57.8159 82.2428 57.905C81.8957 58.3977 81.5611 58.8675 81.2116 59.3262C81.1582 59.415 81.0983 59.4998 81.0326 59.58C80.6774 60.0713 80.3251 60.5463 79.9445 60.9911L79.7492 61.2421C79.3763 61.7386 78.9995 62.2093 78.6582 62.6695C78.5948 62.7562 78.5269 62.8394 78.4548 62.919C78.0656 63.4127 77.6888 63.8834 77.3178 64.3215L77.1048 64.5777C76.8492 64.8851 76.6045 65.1777 76.3532 65.4607C75.5837 65.0649 74.9028 64.6427 74.21 64.1932L73.6698 63.8293C72.8076 63.2466 71.9771 62.6183 71.1818 61.9471L70.803 61.6201L70.4391 61.3042C70.0186 60.9279 69.6159 60.5463 69.2161 60.1485C68.294 59.2436 67.4354 58.2762 66.6464 57.2531C68.2665 55.919 69.9038 54.6298 71.5229 53.3963C73.142 52.1627 75.0053 50.8294 76.7025 49.6767L77.367 49.24C77.624 49.0671 77.8701 48.9091 78.1148 48.7592L78.4824 48.5303L78.9607 48.2453L79.3528 48.0207C80.146 47.5592 80.9647 47.1431 81.805 46.7745L82.3111 46.57C84.2041 45.8295 85.6185 45.7096 86.4277 46.2132C86.7673 46.433 87.0078 46.7765 87.0982 47.1707C87.1281 47.264 87.1477 47.3604 87.1566 47.458C87.2166 47.9909 87.1784 48.5303 87.0438 49.0495Z" fill="#EB9481"/>
<path d="M87.3966 49.0959C87.3808 49.1854 87.3636 49.2831 87.3478 49.3726C87.2707 49.7189 87.1741 50.0605 87.0583 50.3958C87.0296 50.5586 86.952 50.7128 86.8908 50.8699L86.7931 51.138C86.594 51.6484 86.3786 52.156 86.1623 52.6214C86.1465 52.7109 86.0723 52.7985 86.0321 52.8838C85.7549 53.456 85.4893 53.9631 85.2806 54.3375C85.2227 54.428 85.1729 54.5199 85.126 54.5956C85.079 54.6713 84.9532 54.9092 84.9063 54.9849C84.7157 55.3038 84.4936 55.6591 84.2251 56.0398C84.2093 56.1293 84.1107 56.2126 84.0527 56.3031L84.0441 56.352C83.7493 56.7867 83.4175 57.2402 83.0556 57.7219L82.8574 57.9891C82.5396 58.4115 82.2026 58.8472 81.8545 59.2978C81.8219 59.3282 81.7933 59.3627 81.7693 59.4003C81.6972 59.4798 81.6293 59.5631 81.5659 59.6498L80.4371 61.0537L80.2322 61.3114L79.0598 62.7244L78.8482 62.9725C78.4538 63.4485 78.0526 63.9149 77.6624 64.3664L77.4398 64.6293C77.1555 64.9568 76.8793 65.2858 76.6141 65.5999L76.4302 65.5004C76.4078 65.5049 76.3846 65.5008 76.3651 65.4889C75.5956 65.093 74.9147 64.6708 74.2218 64.2213L73.6817 63.8575C72.8195 63.2748 71.9889 62.6465 71.1936 61.9753L70.8148 61.6483L70.4509 61.3324C70.0305 60.9561 69.6278 60.5745 69.2279 60.1767C68.3058 59.2718 67.4473 58.3044 66.6583 57.2813C66.4916 57.0841 66.336 56.872 66.1804 56.6599C67.7334 55.3727 69.2817 54.1602 70.7883 53.041C73.0388 51.3425 75.4003 49.7962 77.857 48.4125L78.4961 48.072C78.9768 47.821 79.4206 47.5888 79.8846 47.3852C80.3485 47.1817 80.6965 47.0164 81.0743 46.8732L81.328 46.7669L81.8422 46.5638C84.2136 45.6811 85.6863 45.5631 86.5382 46.0154C86.7919 46.1371 87.0118 46.3195 87.1782 46.5465C87.3446 46.7735 87.4524 47.038 87.4921 47.3166C87.517 47.4134 87.5256 47.5072 87.5424 47.6025C87.5678 48.1047 87.5187 48.608 87.3966 49.0959Z" fill="#37474F"/>
<path d="M85.9259 47.5863C85.7824 48.4003 88.43 54.4231 92.2801 55.102C94.2906 55.4565 94.3113 49.9125 94.3113 49.9125L94.5761 49.506L98.2644 43.8198L92.7093 36.4366L91.8842 35.4519C91.8842 35.4519 90.9776 37.0713 89.8633 39.1073L89.7125 39.3912C89.6421 39.5047 89.5813 39.6115 89.5205 39.7183C89.3573 40.0252 89.1859 40.3307 89.0131 40.6443C88.8403 40.9579 88.7642 41.104 88.6436 41.3597L88.2559 42.1306C87.3531 43.8927 86.5745 45.7157 85.9259 47.5863Z" fill="#EB9481"/>
<path d="M89.8729 39.05C89.8524 41.0252 90.2631 42.9812 91.0763 44.7814C91.8896 46.5816 93.0857 48.1828 94.5814 49.4731L98.2697 43.7869L92.7147 36.4037L91.8896 35.419C91.8896 35.419 90.9887 37.0058 89.8729 39.05Z" fill="#263238"/>
<path d="M109.066 33.2022C109.175 45.1055 102.06 46.5199 99.4887 46.5365C97.1608 46.5541 89.2205 46.3206 87.8816 34.4941C86.5427 22.6676 92.0411 18.8532 97.4073 18.5489C102.774 18.2446 108.961 21.2826 109.066 33.2022Z" fill="#EB9481"/>
<path d="M105.52 30.4203C105.251 30.3729 104.991 30.327 104.706 30.2768C104.419 30.2734 104.141 30.1742 103.916 29.9949C103.855 29.9256 103.819 29.8381 103.812 29.746C103.806 29.6539 103.83 29.5622 103.88 29.485C104.007 29.3476 104.169 29.2466 104.348 29.1926C104.527 29.1386 104.718 29.1336 104.9 29.1779C105.283 29.2086 105.641 29.3793 105.906 29.6575C105.97 29.7256 106.012 29.8117 106.025 29.9042C106.038 29.9967 106.023 30.0911 105.981 30.1745C105.938 30.2578 105.871 30.3262 105.789 30.3702C105.707 30.4142 105.613 30.4317 105.52 30.4203Z" fill="#263238"/>
<path d="M97.5909 30.9764C97.8604 30.9233 98.1113 30.8332 98.377 30.7542C98.6691 30.7193 98.9409 30.5868 99.1483 30.3782C99.2012 30.3004 99.2265 30.2071 99.2203 30.1132C99.214 30.0194 99.1765 29.9303 99.1138 29.8602C98.9713 29.7383 98.7987 29.6569 98.614 29.6243C98.4294 29.5918 98.2394 29.6093 98.0638 29.675C97.686 29.7508 97.3496 29.9635 97.1192 30.2722C97.0666 30.3473 97.038 30.4365 97.0371 30.5282C97.0361 30.6199 97.0629 30.7096 97.1139 30.7858C97.165 30.862 97.2378 30.9209 97.3229 30.9549C97.408 30.989 97.5014 30.9964 97.5909 30.9764Z" fill="#263238"/>
<path d="M99.4717 33.8768C99.4717 33.8768 99.4142 33.917 99.4166 33.951C99.5096 34.7563 99.4791 35.6909 98.7734 36.0281C98.7734 36.0281 98.7648 36.077 98.7662 36.0688C99.6663 35.8666 99.6848 34.6194 99.4717 33.8768Z" fill="#263238"/>
<path d="M98.6784 33.0914C97.367 33.1036 97.4851 35.7178 98.696 35.7047C99.9069 35.6916 99.771 33.0826 98.6784 33.0914Z" fill="#263238"/>
<path d="M98.1715 33.2538C97.9513 33.408 97.7354 33.6804 97.4591 33.724C97.1828 33.7676 96.8931 33.5067 96.7025 33.2549C96.7025 33.2549 96.6618 33.2477 96.6953 33.2956C96.7083 33.7931 96.9291 34.302 97.4654 34.3546C98.0017 34.4072 98.2941 33.9384 98.3927 33.427C98.3434 33.326 98.2591 33.1853 98.1715 33.2538Z" fill="#263238"/>
<path d="M104.132 33.4805C104.132 33.4805 104.205 33.4934 104.203 33.5518C104.198 34.3902 104.356 35.2572 105.089 35.5291L105.08 35.5779C104.183 35.4785 104.013 34.2485 104.132 33.4805Z" fill="#263238"/>
<path d="M104.824 32.604C106.126 32.4558 106.328 35.0681 105.126 35.175C103.924 35.282 103.711 32.7267 104.824 32.604Z" fill="#263238"/>
<path d="M105.388 32.738C105.601 32.8596 105.829 33.0927 106.072 33.0936C106.315 33.0946 106.545 32.791 106.712 32.5099C106.712 32.5099 106.712 32.5099 106.753 32.5171C106.808 33.0136 106.681 33.545 106.212 33.6806C105.743 33.8162 105.422 33.3987 105.265 32.9094C105.236 32.8371 105.296 32.6882 105.388 32.738Z" fill="#263238"/>
<path d="M100.057 40.2665C100.251 40.4517 100.448 40.7131 100.746 40.7404C101.049 40.737 101.348 40.6665 101.621 40.5339C101.621 40.5339 101.678 40.544 101.662 40.5411C101.546 40.7 101.39 40.8249 101.21 40.9023C101.029 40.9798 100.831 41.0071 100.636 40.9812C100.468 40.9429 100.317 40.8533 100.203 40.7248C100.088 40.5963 100.017 40.4355 99.9986 40.2646C99.9675 40.2507 100.029 40.2363 100.057 40.2665Z" fill="#263238"/>
<path d="M103.277 37.1406C103.277 37.1406 103.51 38.34 103.543 38.9164C103.534 38.9653 103.41 39.0021 103.223 39.0194C102.738 39.1376 102.23 39.1198 101.755 38.9679C101.28 38.816 100.856 38.5359 100.529 38.1584C100.518 38.1475 100.511 38.1325 100.511 38.1167C100.511 38.1009 100.516 38.0856 100.527 38.0742C100.538 38.0627 100.553 38.0561 100.569 38.0557C100.585 38.0554 100.6 38.0613 100.612 38.0722C101.369 38.5262 102.251 38.7259 103.13 38.6421C103.158 38.4793 102.65 36.602 102.744 36.5934C103.189 36.6125 103.63 36.6902 104.055 36.8245C103.657 34.3205 102.818 31.8897 102.438 29.3804C102.454 29.2909 102.552 29.2578 102.581 29.3301C103.54 31.8953 104.241 34.5492 104.676 37.2529C104.709 37.5862 103.508 37.2569 103.277 37.1406Z" fill="#263238"/>
<path d="M102.819 38.7397C102.553 39.1661 102.182 39.5169 101.741 39.7583C101.499 39.882 101.224 39.9273 100.955 39.8881C100.369 39.7848 100.3 39.2691 100.358 38.8009C100.393 38.5563 100.458 38.317 100.55 38.0879C101.216 38.5446 102.012 38.7733 102.819 38.7397Z" fill="#263238"/>
<path d="M101.741 39.7565C101.499 39.8802 101.224 39.9256 100.955 39.8863C100.369 39.783 100.3 39.2674 100.358 38.7991C100.662 38.7824 100.963 38.8674 101.213 39.0407C101.464 39.2141 101.65 39.4659 101.741 39.7565Z" fill="#FF9CBD"/>
<path d="M88.6203 34.9688C90.8424 35.3606 91.6351 30.2465 91.6351 30.2465C91.6351 30.2465 101.239 29.0444 102.382 21.3232C103.45 24.5295 105.71 27.2026 108.694 28.7896C108.694 28.7896 108.728 20.2685 102.054 18.3279C102.054 18.3279 93.8172 14.92 88.8295 21.3591C83.8419 27.7981 87.1293 34.7143 88.6203 34.9688Z" fill="#263238"/>
<path d="M102.466 20.7492C102.51 21.9519 102.299 23.1503 101.846 24.2655C101.419 25.3935 100.764 26.4209 99.9207 27.2832C99.7092 27.4998 99.4854 27.7042 99.2504 27.8952L98.9038 28.1949L98.5304 28.4564C98.2747 28.6211 98.0258 28.7955 97.7649 28.9425L96.9472 29.3438L96.5445 29.533L96.1165 29.6757L95.2279 29.9555C94.6505 30.0887 94.0611 30.1946 93.4894 30.2952C94.0486 30.0749 94.6208 29.924 95.1623 29.7089L95.9714 29.3564L96.3711 29.1835L96.7537 28.9656C96.9983 28.8157 97.2497 28.6754 97.5091 28.5365C97.7686 28.3976 97.9797 28.1998 98.2095 28.0389L98.5653 27.7827L98.8846 27.4949C99.1096 27.3125 99.3212 27.1142 99.5179 26.9016C100.32 26.0722 100.975 25.1119 101.454 24.0621C101.704 23.5347 101.907 22.9864 102.062 22.4236C102.242 21.8776 102.378 21.3175 102.466 20.7492Z" fill="#263238"/>
<path d="M89.9082 34.5656C89.9082 34.5656 87.6008 30.6589 85.85 31.4496C84.0992 32.2404 85.6263 37.7635 87.5421 38.6553C87.7802 38.7853 88.042 38.866 88.312 38.8925C88.582 38.919 88.8546 38.8907 89.1134 38.8094C89.3722 38.7281 89.6119 38.5954 89.8183 38.4193C90.0246 38.2432 90.1933 38.0273 90.3142 37.7844L89.9082 34.5656Z" fill="#EB9481"/>
<path d="M90.7245 19.9891C90.1008 21.0037 83.7495 20.849 81.6159 16.2428C79.4822 11.6366 83.8309 7.10758 88.4364 10.2612C91.3746 12.2564 92.0696 17.8343 90.7245 19.9891Z" fill="#263238"/>
<path d="M82.3558 10.5228C83.5863 9.52482 85.1183 8.97263 86.7026 8.95605C87.4434 8.93208 88.1775 9.10427 88.8304 9.45521C89.4833 9.80615 90.0319 10.3234 90.4207 10.9545C91.2068 12.2881 91.6144 13.8108 91.5996 15.3588C91.6162 16.147 91.5615 16.9351 91.4362 17.7135C91.3392 18.5115 91.0976 19.2852 90.7231 19.9965C91.2541 19.3584 91.6428 18.6143 91.8633 17.814C92.0999 17.0192 92.2444 16.1999 92.2939 15.3721C92.4363 13.6659 92.0454 11.9577 91.1752 10.4833C90.7085 9.72846 90.0385 9.12051 89.2421 8.72918C88.4456 8.33786 87.5549 8.17903 86.6723 8.2709C85.838 8.33504 85.0253 8.56766 84.2834 8.95471C83.5415 9.34176 82.8858 9.87519 82.3558 10.5228Z" fill="#263238"/>
<rect x="0.529053" y="50" width="24" height="24" rx="12" fill="#DFEDE5"/>
<path d="M10.5291 61.9994L11.8624 63.3327L14.5291 60.6661M7.09573 59.7461C6.99842 59.3078 7.01336 58.852 7.13916 58.421C7.26497 57.99 7.49756 57.5977 7.81537 57.2806C8.13319 56.9634 8.52593 56.7316 8.9572 56.6067C9.38846 56.4818 9.84428 56.4679 10.2824 56.5661C10.5235 56.1889 10.8557 55.8786 11.2484 55.6636C11.641 55.4486 12.0814 55.3359 12.5291 55.3359C12.9767 55.3359 13.4171 55.4486 13.8098 55.6636C14.2024 55.8786 14.5346 56.1889 14.7757 56.5661C15.2145 56.4674 15.6711 56.4814 16.1031 56.6066C16.535 56.7318 16.9283 56.9642 17.2463 57.2822C17.5643 57.6002 17.7967 57.9935 17.9219 58.4254C18.0471 58.8574 18.061 59.314 17.9624 59.7527C18.3395 59.9939 18.6499 60.3261 18.8649 60.7187C19.0799 61.1113 19.1925 61.5518 19.1925 61.9994C19.1925 62.447 19.0799 62.8875 18.8649 63.2801C18.6499 63.6727 18.3395 64.0049 17.9624 64.2461C18.0606 64.6842 18.0466 65.14 17.9217 65.5713C17.7968 66.0025 17.5651 66.3953 17.2479 66.7131C16.9308 67.0309 16.5385 67.2635 16.1075 67.3893C15.6765 67.5151 15.2207 67.5301 14.7824 67.4327C14.5416 67.8113 14.2091 68.123 13.8158 68.339C13.4225 68.5549 12.9811 68.6681 12.5324 68.6681C12.0837 68.6681 11.6423 68.5549 11.249 68.339C10.8557 68.123 10.5232 67.8113 10.2824 67.4327C9.84428 67.531 9.38846 67.517 8.9572 67.3921C8.52593 67.2672 8.13319 67.0354 7.81537 66.7183C7.49756 66.4011 7.26497 66.0089 7.13916 65.5779C7.01336 65.1469 6.99842 64.6911 7.09573 64.2527C6.7157 64.0122 6.40267 63.6795 6.18576 63.2856C5.96885 62.8916 5.8551 62.4492 5.8551 61.9994C5.8551 61.5497 5.96885 61.1072 6.18576 60.7133C6.40267 60.3193 6.7157 59.9866 7.09573 59.7461Z" stroke="#0F9D58" stroke-width="1.33333" stroke-linecap="round" stroke-linejoin="round"/>
<defs>
<clipPath id="clip0_673_1532">
<rect width="16" height="16" fill="white" transform="translate(110.078 4.70508) rotate(10.2389)"/>
</clipPath>
</defs>
</svg>
